<?xml version="1.0" encoding="utf-8" standalone="no"?>
<!DOCTYPE svg PUBLIC "-//W3C//DTD SVG 1.1//EN"
  "http://www.w3.org/Graphics/SVG/1.1/DTD/svg11.dtd">
<svg xmlns:xlink="http://www.w3.org/1999/xlink" width="864pt" height="432pt" viewBox="0 0 864 432" xmlns="http://www.w3.org/2000/svg" version="1.1">
 <metadata>
  <rdf:RDF xmlns:dc="http://purl.org/dc/elements/1.1/" xmlns:cc="http://creativecommons.org/ns#" xmlns:rdf="http://www.w3.org/1999/02/22-rdf-syntax-ns#">
   <cc:Work>
    <dc:type rdf:resource="http://purl.org/dc/dcmitype/StillImage"/>
    <dc:date>2022-06-19T20:34:54.582846</dc:date>
    <dc:format>image/svg+xml</dc:format>
    <dc:creator>
     <cc:Agent>
      <dc:title>Matplotlib v3.5.2, https://matplotlib.org/</dc:title>
     </cc:Agent>
    </dc:creator>
   </cc:Work>
  </rdf:RDF>
 </metadata>
 <defs>
  <style type="text/css">*{stroke-linejoin: round; stroke-linecap: butt}</style>
 </defs>
 <g id="figure_1">
  <g id="patch_1">
   <path d="M 0 432 
L 864 432 
L 864 0 
L 0 0 
z
" style="fill: #ffffff"/>
  </g>
  <g id="axes_1">
   <g id="patch_2">
    <path d="M 108 384.48 
L 777.6 384.48 
L 777.6 51.84 
L 108 51.84 
z
" style="fill: #ffffff"/>
   </g>
   <g id="matplotlib.axis_1">
    <g id="xtick_1">
     <g id="line2d_1">
      <defs>
       <path id="m0b4ddfeead" d="M 0 0 
L 0 3.5 
" style="stroke: #000000; stroke-width: 0.8"/>
      </defs>
      <g>
       <use xlink:href="#m0b4ddfeead" x="108" y="384.48" style="stroke: #000000; stroke-width: 0.8"/>
      </g>
     </g>
    </g>
    <g id="xtick_2">
     <g id="line2d_2">
      <g>
       <use xlink:href="#m0b4ddfeead" x="139.584906" y="384.48" style="stroke: #000000; stroke-width: 0.8"/>
      </g>
     </g>
     <g id="text_1">
      <!-- 2011 -->
      <g transform="translate(126.859906 399.078438)scale(0.1 -0.1)">
       <defs>
        <path id="DejaVuSans-32" d="M 1228 531 
L 3431 531 
L 3431 0 
L 469 0 
L 469 531 
Q 828 903 1448 1529 
Q 2069 2156 2228 2338 
Q 2531 2678 2651 2914 
Q 2772 3150 2772 3378 
Q 2772 3750 2511 3984 
Q 2250 4219 1831 4219 
Q 1534 4219 1204 4116 
Q 875 4013 500 3803 
L 500 4441 
Q 881 4594 1212 4672 
Q 1544 4750 1819 4750 
Q 2544 4750 2975 4387 
Q 3406 4025 3406 3419 
Q 3406 3131 3298 2873 
Q 3191 2616 2906 2266 
Q 2828 2175 2409 1742 
Q 1991 1309 1228 531 
z
" transform="scale(0.015625)"/>
        <path id="DejaVuSans-30" d="M 2034 4250 
Q 1547 4250 1301 3770 
Q 1056 3291 1056 2328 
Q 1056 1369 1301 889 
Q 1547 409 2034 409 
Q 2525 409 2770 889 
Q 3016 1369 3016 2328 
Q 3016 3291 2770 3770 
Q 2525 4250 2034 4250 
z
M 2034 4750 
Q 2819 4750 3233 4129 
Q 3647 3509 3647 2328 
Q 3647 1150 3233 529 
Q 2819 -91 2034 -91 
Q 1250 -91 836 529 
Q 422 1150 422 2328 
Q 422 3509 836 4129 
Q 1250 4750 2034 4750 
z
" transform="scale(0.015625)"/>
        <path id="DejaVuSans-31" d="M 794 531 
L 1825 531 
L 1825 4091 
L 703 3866 
L 703 4441 
L 1819 4666 
L 2450 4666 
L 2450 531 
L 3481 531 
L 3481 0 
L 794 0 
L 794 531 
z
" transform="scale(0.015625)"/>
       </defs>
       <use xlink:href="#DejaVuSans-32"/>
       <use xlink:href="#DejaVuSans-30" x="63.623047"/>
       <use xlink:href="#DejaVuSans-31" x="127.246094"/>
       <use xlink:href="#DejaVuSans-31" x="190.869141"/>
      </g>
     </g>
    </g>
    <g id="xtick_3">
     <g id="line2d_3">
      <g>
       <use xlink:href="#m0b4ddfeead" x="213.962264" y="384.48" style="stroke: #000000; stroke-width: 0.8"/>
      </g>
     </g>
     <g id="text_2">
      <!-- 2012 -->
      <g transform="translate(201.237264 399.078438)scale(0.1 -0.1)">
       <use xlink:href="#DejaVuSans-32"/>
       <use xlink:href="#DejaVuSans-30" x="63.623047"/>
       <use xlink:href="#DejaVuSans-31" x="127.246094"/>
       <use xlink:href="#DejaVuSans-32" x="190.869141"/>
      </g>
     </g>
    </g>
    <g id="xtick_4">
     <g id="line2d_4">
      <g>
       <use xlink:href="#m0b4ddfeead" x="288.543396" y="384.48" style="stroke: #000000; stroke-width: 0.8"/>
      </g>
     </g>
     <g id="text_3">
      <!-- 2013 -->
      <g transform="translate(275.818396 399.078438)scale(0.1 -0.1)">
       <defs>
        <path id="DejaVuSans-33" d="M 2597 2516 
Q 3050 2419 3304 2112 
Q 3559 1806 3559 1356 
Q 3559 666 3084 287 
Q 2609 -91 1734 -91 
Q 1441 -91 1130 -33 
Q 819 25 488 141 
L 488 750 
Q 750 597 1062 519 
Q 1375 441 1716 441 
Q 2309 441 2620 675 
Q 2931 909 2931 1356 
Q 2931 1769 2642 2001 
Q 2353 2234 1838 2234 
L 1294 2234 
L 1294 2753 
L 1863 2753 
Q 2328 2753 2575 2939 
Q 2822 3125 2822 3475 
Q 2822 3834 2567 4026 
Q 2313 4219 1838 4219 
Q 1578 4219 1281 4162 
Q 984 4106 628 3988 
L 628 4550 
Q 988 4650 1302 4700 
Q 1616 4750 1894 4750 
Q 2613 4750 3031 4423 
Q 3450 4097 3450 3541 
Q 3450 3153 3228 2886 
Q 3006 2619 2597 2516 
z
" transform="scale(0.015625)"/>
       </defs>
       <use xlink:href="#DejaVuSans-32"/>
       <use xlink:href="#DejaVuSans-30" x="63.623047"/>
       <use xlink:href="#DejaVuSans-31" x="127.246094"/>
       <use xlink:href="#DejaVuSans-33" x="190.869141"/>
      </g>
     </g>
    </g>
    <g id="xtick_5">
     <g id="line2d_5">
      <g>
       <use xlink:href="#m0b4ddfeead" x="362.920755" y="384.48" style="stroke: #000000; stroke-width: 0.8"/>
      </g>
     </g>
     <g id="text_4">
      <!-- 2014 -->
      <g transform="translate(350.195755 399.078438)scale(0.1 -0.1)">
       <defs>
        <path id="DejaVuSans-34" d="M 2419 4116 
L 825 1625 
L 2419 1625 
L 2419 4116 
z
M 2253 4666 
L 3047 4666 
L 3047 1625 
L 3713 1625 
L 3713 1100 
L 3047 1100 
L 3047 0 
L 2419 0 
L 2419 1100 
L 313 1100 
L 313 1709 
L 2253 4666 
z
" transform="scale(0.015625)"/>
       </defs>
       <use xlink:href="#DejaVuSans-32"/>
       <use xlink:href="#DejaVuSans-30" x="63.623047"/>
       <use xlink:href="#DejaVuSans-31" x="127.246094"/>
       <use xlink:href="#DejaVuSans-34" x="190.869141"/>
      </g>
     </g>
    </g>
    <g id="xtick_6">
     <g id="line2d_6">
      <g>
       <use xlink:href="#m0b4ddfeead" x="437.298113" y="384.48" style="stroke: #000000; stroke-width: 0.8"/>
      </g>
     </g>
     <g id="text_5">
      <!-- 2015 -->
      <g transform="translate(424.573113 399.078438)scale(0.1 -0.1)">
       <defs>
        <path id="DejaVuSans-35" d="M 691 4666 
L 3169 4666 
L 3169 4134 
L 1269 4134 
L 1269 2991 
Q 1406 3038 1543 3061 
Q 1681 3084 1819 3084 
Q 2600 3084 3056 2656 
Q 3513 2228 3513 1497 
Q 3513 744 3044 326 
Q 2575 -91 1722 -91 
Q 1428 -91 1123 -41 
Q 819 9 494 109 
L 494 744 
Q 775 591 1075 516 
Q 1375 441 1709 441 
Q 2250 441 2565 725 
Q 2881 1009 2881 1497 
Q 2881 1984 2565 2268 
Q 2250 2553 1709 2553 
Q 1456 2553 1204 2497 
Q 953 2441 691 2322 
L 691 4666 
z
" transform="scale(0.015625)"/>
       </defs>
       <use xlink:href="#DejaVuSans-32"/>
       <use xlink:href="#DejaVuSans-30" x="63.623047"/>
       <use xlink:href="#DejaVuSans-31" x="127.246094"/>
       <use xlink:href="#DejaVuSans-35" x="190.869141"/>
      </g>
     </g>
    </g>
    <g id="xtick_7">
     <g id="line2d_7">
      <g>
       <use xlink:href="#m0b4ddfeead" x="511.675472" y="384.48" style="stroke: #000000; stroke-width: 0.8"/>
      </g>
     </g>
     <g id="text_6">
      <!-- 2016 -->
      <g transform="translate(498.950472 399.078438)scale(0.1 -0.1)">
       <defs>
        <path id="DejaVuSans-36" d="M 2113 2584 
Q 1688 2584 1439 2293 
Q 1191 2003 1191 1497 
Q 1191 994 1439 701 
Q 1688 409 2113 409 
Q 2538 409 2786 701 
Q 3034 994 3034 1497 
Q 3034 2003 2786 2293 
Q 2538 2584 2113 2584 
z
M 3366 4563 
L 3366 3988 
Q 3128 4100 2886 4159 
Q 2644 4219 2406 4219 
Q 1781 4219 1451 3797 
Q 1122 3375 1075 2522 
Q 1259 2794 1537 2939 
Q 1816 3084 2150 3084 
Q 2853 3084 3261 2657 
Q 3669 2231 3669 1497 
Q 3669 778 3244 343 
Q 2819 -91 2113 -91 
Q 1303 -91 875 529 
Q 447 1150 447 2328 
Q 447 3434 972 4092 
Q 1497 4750 2381 4750 
Q 2619 4750 2861 4703 
Q 3103 4656 3366 4563 
z
" transform="scale(0.015625)"/>
       </defs>
       <use xlink:href="#DejaVuSans-32"/>
       <use xlink:href="#DejaVuSans-30" x="63.623047"/>
       <use xlink:href="#DejaVuSans-31" x="127.246094"/>
       <use xlink:href="#DejaVuSans-36" x="190.869141"/>
      </g>
     </g>
    </g>
    <g id="xtick_8">
     <g id="line2d_8">
      <g>
       <use xlink:href="#m0b4ddfeead" x="586.256604" y="384.48" style="stroke: #000000; stroke-width: 0.8"/>
      </g>
     </g>
     <g id="text_7">
      <!-- 2017 -->
      <g transform="translate(573.531604 399.078438)scale(0.1 -0.1)">
       <defs>
        <path id="DejaVuSans-37" d="M 525 4666 
L 3525 4666 
L 3525 4397 
L 1831 0 
L 1172 0 
L 2766 4134 
L 525 4134 
L 525 4666 
z
" transform="scale(0.015625)"/>
       </defs>
       <use xlink:href="#DejaVuSans-32"/>
       <use xlink:href="#DejaVuSans-30" x="63.623047"/>
       <use xlink:href="#DejaVuSans-31" x="127.246094"/>
       <use xlink:href="#DejaVuSans-37" x="190.869141"/>
      </g>
     </g>
    </g>
    <g id="xtick_9">
     <g id="line2d_9">
      <g>
       <use xlink:href="#m0b4ddfeead" x="660.633962" y="384.48" style="stroke: #000000; stroke-width: 0.8"/>
      </g>
     </g>
     <g id="text_8">
      <!-- 2018 -->
      <g transform="translate(647.908962 399.078438)scale(0.1 -0.1)">
       <defs>
        <path id="DejaVuSans-38" d="M 2034 2216 
Q 1584 2216 1326 1975 
Q 1069 1734 1069 1313 
Q 1069 891 1326 650 
Q 1584 409 2034 409 
Q 2484 409 2743 651 
Q 3003 894 3003 1313 
Q 3003 1734 2745 1975 
Q 2488 2216 2034 2216 
z
M 1403 2484 
Q 997 2584 770 2862 
Q 544 3141 544 3541 
Q 544 4100 942 4425 
Q 1341 4750 2034 4750 
Q 2731 4750 3128 4425 
Q 3525 4100 3525 3541 
Q 3525 3141 3298 2862 
Q 3072 2584 2669 2484 
Q 3125 2378 3379 2068 
Q 3634 1759 3634 1313 
Q 3634 634 3220 271 
Q 2806 -91 2034 -91 
Q 1263 -91 848 271 
Q 434 634 434 1313 
Q 434 1759 690 2068 
Q 947 2378 1403 2484 
z
M 1172 3481 
Q 1172 3119 1398 2916 
Q 1625 2713 2034 2713 
Q 2441 2713 2670 2916 
Q 2900 3119 2900 3481 
Q 2900 3844 2670 4047 
Q 2441 4250 2034 4250 
Q 1625 4250 1398 4047 
Q 1172 3844 1172 3481 
z
" transform="scale(0.015625)"/>
       </defs>
       <use xlink:href="#DejaVuSans-32"/>
       <use xlink:href="#DejaVuSans-30" x="63.623047"/>
       <use xlink:href="#DejaVuSans-31" x="127.246094"/>
       <use xlink:href="#DejaVuSans-38" x="190.869141"/>
      </g>
     </g>
    </g>
    <g id="xtick_10">
     <g id="line2d_10">
      <g>
       <use xlink:href="#m0b4ddfeead" x="735.011321" y="384.48" style="stroke: #000000; stroke-width: 0.8"/>
      </g>
     </g>
     <g id="text_9">
      <!-- 2019 -->
      <g transform="translate(722.286321 399.078438)scale(0.1 -0.1)">
       <defs>
        <path id="DejaVuSans-39" d="M 703 97 
L 703 672 
Q 941 559 1184 500 
Q 1428 441 1663 441 
Q 2288 441 2617 861 
Q 2947 1281 2994 2138 
Q 2813 1869 2534 1725 
Q 2256 1581 1919 1581 
Q 1219 1581 811 2004 
Q 403 2428 403 3163 
Q 403 3881 828 4315 
Q 1253 4750 1959 4750 
Q 2769 4750 3195 4129 
Q 3622 3509 3622 2328 
Q 3622 1225 3098 567 
Q 2575 -91 1691 -91 
Q 1453 -91 1209 -44 
Q 966 3 703 97 
z
M 1959 2075 
Q 2384 2075 2632 2365 
Q 2881 2656 2881 3163 
Q 2881 3666 2632 3958 
Q 2384 4250 1959 4250 
Q 1534 4250 1286 3958 
Q 1038 3666 1038 3163 
Q 1038 2656 1286 2365 
Q 1534 2075 1959 2075 
z
" transform="scale(0.015625)"/>
       </defs>
       <use xlink:href="#DejaVuSans-32"/>
       <use xlink:href="#DejaVuSans-30" x="63.623047"/>
       <use xlink:href="#DejaVuSans-31" x="127.246094"/>
       <use xlink:href="#DejaVuSans-39" x="190.869141"/>
      </g>
     </g>
    </g>
    <g id="xtick_11">
     <g id="line2d_11">
      <g>
       <use xlink:href="#m0b4ddfeead" x="777.6" y="384.48" style="stroke: #000000; stroke-width: 0.8"/>
      </g>
     </g>
    </g>
    <g id="xtick_12">
     <g id="line2d_12">
      <defs>
       <path id="m8e63878aca" d="M 0 0 
L 0 2 
" style="stroke: #000000; stroke-width: 0.6"/>
      </defs>
      <g>
       <use xlink:href="#m8e63878aca" x="120.837736" y="384.48" style="stroke: #000000; stroke-width: 0.6"/>
      </g>
     </g>
    </g>
    <g id="xtick_13">
     <g id="line2d_13">
      <g>
       <use xlink:href="#m8e63878aca" x="157.924528" y="384.48" style="stroke: #000000; stroke-width: 0.6"/>
      </g>
     </g>
    </g>
    <g id="xtick_14">
     <g id="line2d_14">
      <g>
       <use xlink:href="#m8e63878aca" x="176.467925" y="384.48" style="stroke: #000000; stroke-width: 0.6"/>
      </g>
     </g>
    </g>
    <g id="xtick_15">
     <g id="line2d_15">
      <g>
       <use xlink:href="#m8e63878aca" x="195.215094" y="384.48" style="stroke: #000000; stroke-width: 0.6"/>
      </g>
     </g>
    </g>
    <g id="xtick_16">
     <g id="line2d_16">
      <g>
       <use xlink:href="#m8e63878aca" x="232.50566" y="384.48" style="stroke: #000000; stroke-width: 0.6"/>
      </g>
     </g>
    </g>
    <g id="xtick_17">
     <g id="line2d_17">
      <g>
       <use xlink:href="#m8e63878aca" x="251.049057" y="384.48" style="stroke: #000000; stroke-width: 0.6"/>
      </g>
     </g>
    </g>
    <g id="xtick_18">
     <g id="line2d_18">
      <g>
       <use xlink:href="#m8e63878aca" x="269.796226" y="384.48" style="stroke: #000000; stroke-width: 0.6"/>
      </g>
     </g>
    </g>
    <g id="xtick_19">
     <g id="line2d_19">
      <g>
       <use xlink:href="#m8e63878aca" x="306.883019" y="384.48" style="stroke: #000000; stroke-width: 0.6"/>
      </g>
     </g>
    </g>
    <g id="xtick_20">
     <g id="line2d_20">
      <g>
       <use xlink:href="#m8e63878aca" x="325.426415" y="384.48" style="stroke: #000000; stroke-width: 0.6"/>
      </g>
     </g>
    </g>
    <g id="xtick_21">
     <g id="line2d_21">
      <g>
       <use xlink:href="#m8e63878aca" x="344.173585" y="384.48" style="stroke: #000000; stroke-width: 0.6"/>
      </g>
     </g>
    </g>
    <g id="xtick_22">
     <g id="line2d_22">
      <g>
       <use xlink:href="#m8e63878aca" x="381.260377" y="384.48" style="stroke: #000000; stroke-width: 0.6"/>
      </g>
     </g>
    </g>
    <g id="xtick_23">
     <g id="line2d_23">
      <g>
       <use xlink:href="#m8e63878aca" x="399.803774" y="384.48" style="stroke: #000000; stroke-width: 0.6"/>
      </g>
     </g>
    </g>
    <g id="xtick_24">
     <g id="line2d_24">
      <g>
       <use xlink:href="#m8e63878aca" x="418.550943" y="384.48" style="stroke: #000000; stroke-width: 0.6"/>
      </g>
     </g>
    </g>
    <g id="xtick_25">
     <g id="line2d_25">
      <g>
       <use xlink:href="#m8e63878aca" x="455.637736" y="384.48" style="stroke: #000000; stroke-width: 0.6"/>
      </g>
     </g>
    </g>
    <g id="xtick_26">
     <g id="line2d_26">
      <g>
       <use xlink:href="#m8e63878aca" x="474.181132" y="384.48" style="stroke: #000000; stroke-width: 0.6"/>
      </g>
     </g>
    </g>
    <g id="xtick_27">
     <g id="line2d_27">
      <g>
       <use xlink:href="#m8e63878aca" x="492.928302" y="384.48" style="stroke: #000000; stroke-width: 0.6"/>
      </g>
     </g>
    </g>
    <g id="xtick_28">
     <g id="line2d_28">
      <g>
       <use xlink:href="#m8e63878aca" x="530.218868" y="384.48" style="stroke: #000000; stroke-width: 0.6"/>
      </g>
     </g>
    </g>
    <g id="xtick_29">
     <g id="line2d_29">
      <g>
       <use xlink:href="#m8e63878aca" x="548.762264" y="384.48" style="stroke: #000000; stroke-width: 0.6"/>
      </g>
     </g>
    </g>
    <g id="xtick_30">
     <g id="line2d_30">
      <g>
       <use xlink:href="#m8e63878aca" x="567.509434" y="384.48" style="stroke: #000000; stroke-width: 0.6"/>
      </g>
     </g>
    </g>
    <g id="xtick_31">
     <g id="line2d_31">
      <g>
       <use xlink:href="#m8e63878aca" x="604.596226" y="384.48" style="stroke: #000000; stroke-width: 0.6"/>
      </g>
     </g>
    </g>
    <g id="xtick_32">
     <g id="line2d_32">
      <g>
       <use xlink:href="#m8e63878aca" x="623.139623" y="384.48" style="stroke: #000000; stroke-width: 0.6"/>
      </g>
     </g>
    </g>
    <g id="xtick_33">
     <g id="line2d_33">
      <g>
       <use xlink:href="#m8e63878aca" x="641.886792" y="384.48" style="stroke: #000000; stroke-width: 0.6"/>
      </g>
     </g>
    </g>
    <g id="xtick_34">
     <g id="line2d_34">
      <g>
       <use xlink:href="#m8e63878aca" x="678.973585" y="384.48" style="stroke: #000000; stroke-width: 0.6"/>
      </g>
     </g>
    </g>
    <g id="xtick_35">
     <g id="line2d_35">
      <g>
       <use xlink:href="#m8e63878aca" x="697.516981" y="384.48" style="stroke: #000000; stroke-width: 0.6"/>
      </g>
     </g>
    </g>
    <g id="xtick_36">
     <g id="line2d_36">
      <g>
       <use xlink:href="#m8e63878aca" x="716.264151" y="384.48" style="stroke: #000000; stroke-width: 0.6"/>
      </g>
     </g>
    </g>
    <g id="xtick_37">
     <g id="line2d_37">
      <g>
       <use xlink:href="#m8e63878aca" x="753.350943" y="384.48" style="stroke: #000000; stroke-width: 0.6"/>
      </g>
     </g>
    </g>
    <g id="xtick_38">
     <g id="line2d_38">
      <g>
       <use xlink:href="#m8e63878aca" x="771.89434" y="384.48" style="stroke: #000000; stroke-width: 0.6"/>
      </g>
     </g>
    </g>
    <g id="text_10">
     <!-- Time -->
     <g transform="translate(430.566406 412.756563)scale(0.1 -0.1)">
      <defs>
       <path id="DejaVuSans-54" d="M -19 4666 
L 3928 4666 
L 3928 4134 
L 2272 4134 
L 2272 0 
L 1638 0 
L 1638 4134 
L -19 4134 
L -19 4666 
z
" transform="scale(0.015625)"/>
       <path id="DejaVuSans-69" d="M 603 3500 
L 1178 3500 
L 1178 0 
L 603 0 
L 603 3500 
z
M 603 4863 
L 1178 4863 
L 1178 4134 
L 603 4134 
L 603 4863 
z
" transform="scale(0.015625)"/>
       <path id="DejaVuSans-6d" d="M 3328 2828 
Q 3544 3216 3844 3400 
Q 4144 3584 4550 3584 
Q 5097 3584 5394 3201 
Q 5691 2819 5691 2113 
L 5691 0 
L 5113 0 
L 5113 2094 
Q 5113 2597 4934 2840 
Q 4756 3084 4391 3084 
Q 3944 3084 3684 2787 
Q 3425 2491 3425 1978 
L 3425 0 
L 2847 0 
L 2847 2094 
Q 2847 2600 2669 2842 
Q 2491 3084 2119 3084 
Q 1678 3084 1418 2786 
Q 1159 2488 1159 1978 
L 1159 0 
L 581 0 
L 581 3500 
L 1159 3500 
L 1159 2956 
Q 1356 3278 1631 3431 
Q 1906 3584 2284 3584 
Q 2666 3584 2933 3390 
Q 3200 3197 3328 2828 
z
" transform="scale(0.015625)"/>
       <path id="DejaVuSans-65" d="M 3597 1894 
L 3597 1613 
L 953 1613 
Q 991 1019 1311 708 
Q 1631 397 2203 397 
Q 2534 397 2845 478 
Q 3156 559 3463 722 
L 3463 178 
Q 3153 47 2828 -22 
Q 2503 -91 2169 -91 
Q 1331 -91 842 396 
Q 353 884 353 1716 
Q 353 2575 817 3079 
Q 1281 3584 2069 3584 
Q 2775 3584 3186 3129 
Q 3597 2675 3597 1894 
z
M 3022 2063 
Q 3016 2534 2758 2815 
Q 2500 3097 2075 3097 
Q 1594 3097 1305 2825 
Q 1016 2553 972 2059 
L 3022 2063 
z
" transform="scale(0.015625)"/>
      </defs>
      <use xlink:href="#DejaVuSans-54"/>
      <use xlink:href="#DejaVuSans-69" x="57.958984"/>
      <use xlink:href="#DejaVuSans-6d" x="85.742188"/>
      <use xlink:href="#DejaVuSans-65" x="183.154297"/>
     </g>
    </g>
   </g>
   <g id="matplotlib.axis_2">
    <g id="ytick_1">
     <g id="line2d_39">
      <defs>
       <path id="m7bca20c238" d="M 0 0 
L -3.5 0 
" style="stroke: #000000; stroke-width: 0.8"/>
      </defs>
      <g>
       <use xlink:href="#m7bca20c238" x="108" y="380.415156" style="stroke: #000000; stroke-width: 0.8"/>
      </g>
     </g>
     <g id="text_11">
      <!-- 40 -->
      <g transform="translate(88.275 384.214375)scale(0.1 -0.1)">
       <use xlink:href="#DejaVuSans-34"/>
       <use xlink:href="#DejaVuSans-30" x="63.623047"/>
      </g>
     </g>
    </g>
    <g id="ytick_2">
     <g id="line2d_40">
      <g>
       <use xlink:href="#m7bca20c238" x="108" y="313.136198" style="stroke: #000000; stroke-width: 0.8"/>
      </g>
     </g>
     <g id="text_12">
      <!-- 50 -->
      <g transform="translate(88.275 316.935417)scale(0.1 -0.1)">
       <use xlink:href="#DejaVuSans-35"/>
       <use xlink:href="#DejaVuSans-30" x="63.623047"/>
      </g>
     </g>
    </g>
    <g id="ytick_3">
     <g id="line2d_41">
      <g>
       <use xlink:href="#m7bca20c238" x="108" y="245.85724" style="stroke: #000000; stroke-width: 0.8"/>
      </g>
     </g>
     <g id="text_13">
      <!-- 60 -->
      <g transform="translate(88.275 249.656459)scale(0.1 -0.1)">
       <use xlink:href="#DejaVuSans-36"/>
       <use xlink:href="#DejaVuSans-30" x="63.623047"/>
      </g>
     </g>
    </g>
    <g id="ytick_4">
     <g id="line2d_42">
      <g>
       <use xlink:href="#m7bca20c238" x="108" y="178.578283" style="stroke: #000000; stroke-width: 0.8"/>
      </g>
     </g>
     <g id="text_14">
      <!-- 70 -->
      <g transform="translate(88.275 182.377501)scale(0.1 -0.1)">
       <use xlink:href="#DejaVuSans-37"/>
       <use xlink:href="#DejaVuSans-30" x="63.623047"/>
      </g>
     </g>
    </g>
    <g id="ytick_5">
     <g id="line2d_43">
      <g>
       <use xlink:href="#m7bca20c238" x="108" y="111.299325" style="stroke: #000000; stroke-width: 0.8"/>
      </g>
     </g>
     <g id="text_15">
      <!-- 80 -->
      <g transform="translate(88.275 115.098544)scale(0.1 -0.1)">
       <use xlink:href="#DejaVuSans-38"/>
       <use xlink:href="#DejaVuSans-30" x="63.623047"/>
      </g>
     </g>
    </g>
    <g id="text_16">
     <!-- Mean Temperature (˚F) -->
     <g transform="translate(82.195312 275.908437)rotate(-90)scale(0.1 -0.1)">
      <defs>
       <path id="DejaVuSans-4d" d="M 628 4666 
L 1569 4666 
L 2759 1491 
L 3956 4666 
L 4897 4666 
L 4897 0 
L 4281 0 
L 4281 4097 
L 3078 897 
L 2444 897 
L 1241 4097 
L 1241 0 
L 628 0 
L 628 4666 
z
" transform="scale(0.015625)"/>
       <path id="DejaVuSans-61" d="M 2194 1759 
Q 1497 1759 1228 1600 
Q 959 1441 959 1056 
Q 959 750 1161 570 
Q 1363 391 1709 391 
Q 2188 391 2477 730 
Q 2766 1069 2766 1631 
L 2766 1759 
L 2194 1759 
z
M 3341 1997 
L 3341 0 
L 2766 0 
L 2766 531 
Q 2569 213 2275 61 
Q 1981 -91 1556 -91 
Q 1019 -91 701 211 
Q 384 513 384 1019 
Q 384 1609 779 1909 
Q 1175 2209 1959 2209 
L 2766 2209 
L 2766 2266 
Q 2766 2663 2505 2880 
Q 2244 3097 1772 3097 
Q 1472 3097 1187 3025 
Q 903 2953 641 2809 
L 641 3341 
Q 956 3463 1253 3523 
Q 1550 3584 1831 3584 
Q 2591 3584 2966 3190 
Q 3341 2797 3341 1997 
z
" transform="scale(0.015625)"/>
       <path id="DejaVuSans-6e" d="M 3513 2113 
L 3513 0 
L 2938 0 
L 2938 2094 
Q 2938 2591 2744 2837 
Q 2550 3084 2163 3084 
Q 1697 3084 1428 2787 
Q 1159 2491 1159 1978 
L 1159 0 
L 581 0 
L 581 3500 
L 1159 3500 
L 1159 2956 
Q 1366 3272 1645 3428 
Q 1925 3584 2291 3584 
Q 2894 3584 3203 3211 
Q 3513 2838 3513 2113 
z
" transform="scale(0.015625)"/>
       <path id="DejaVuSans-20" transform="scale(0.015625)"/>
       <path id="DejaVuSans-70" d="M 1159 525 
L 1159 -1331 
L 581 -1331 
L 581 3500 
L 1159 3500 
L 1159 2969 
Q 1341 3281 1617 3432 
Q 1894 3584 2278 3584 
Q 2916 3584 3314 3078 
Q 3713 2572 3713 1747 
Q 3713 922 3314 415 
Q 2916 -91 2278 -91 
Q 1894 -91 1617 61 
Q 1341 213 1159 525 
z
M 3116 1747 
Q 3116 2381 2855 2742 
Q 2594 3103 2138 3103 
Q 1681 3103 1420 2742 
Q 1159 2381 1159 1747 
Q 1159 1113 1420 752 
Q 1681 391 2138 391 
Q 2594 391 2855 752 
Q 3116 1113 3116 1747 
z
" transform="scale(0.015625)"/>
       <path id="DejaVuSans-72" d="M 2631 2963 
Q 2534 3019 2420 3045 
Q 2306 3072 2169 3072 
Q 1681 3072 1420 2755 
Q 1159 2438 1159 1844 
L 1159 0 
L 581 0 
L 581 3500 
L 1159 3500 
L 1159 2956 
Q 1341 3275 1631 3429 
Q 1922 3584 2338 3584 
Q 2397 3584 2469 3576 
Q 2541 3569 2628 3553 
L 2631 2963 
z
" transform="scale(0.015625)"/>
       <path id="DejaVuSans-74" d="M 1172 4494 
L 1172 3500 
L 2356 3500 
L 2356 3053 
L 1172 3053 
L 1172 1153 
Q 1172 725 1289 603 
Q 1406 481 1766 481 
L 2356 481 
L 2356 0 
L 1766 0 
Q 1100 0 847 248 
Q 594 497 594 1153 
L 594 3053 
L 172 3053 
L 172 3500 
L 594 3500 
L 594 4494 
L 1172 4494 
z
" transform="scale(0.015625)"/>
       <path id="DejaVuSans-75" d="M 544 1381 
L 544 3500 
L 1119 3500 
L 1119 1403 
Q 1119 906 1312 657 
Q 1506 409 1894 409 
Q 2359 409 2629 706 
Q 2900 1003 2900 1516 
L 2900 3500 
L 3475 3500 
L 3475 0 
L 2900 0 
L 2900 538 
Q 2691 219 2414 64 
Q 2138 -91 1772 -91 
Q 1169 -91 856 284 
Q 544 659 544 1381 
z
M 1991 3584 
L 1991 3584 
z
" transform="scale(0.015625)"/>
       <path id="DejaVuSans-28" d="M 1984 4856 
Q 1566 4138 1362 3434 
Q 1159 2731 1159 2009 
Q 1159 1288 1364 580 
Q 1569 -128 1984 -844 
L 1484 -844 
Q 1016 -109 783 600 
Q 550 1309 550 2009 
Q 550 2706 781 3412 
Q 1013 4119 1484 4856 
L 1984 4856 
z
" transform="scale(0.015625)"/>
       <path id="DejaVuSans-2da" d="M 2075 4763 
Q 2075 4959 1937 5096 
Q 1800 5234 1600 5234 
Q 1397 5234 1261 5098 
Q 1125 4963 1125 4763 
Q 1125 4559 1261 4423 
Q 1397 4288 1600 4288 
Q 1800 4288 1937 4425 
Q 2075 4563 2075 4763 
z
M 2456 4763 
Q 2456 4403 2207 4153 
Q 1959 3903 1600 3903 
Q 1241 3903 992 4153 
Q 744 4403 744 4763 
Q 744 5122 992 5370 
Q 1241 5619 1600 5619 
Q 1959 5619 2207 5370 
Q 2456 5122 2456 4763 
z
" transform="scale(0.015625)"/>
       <path id="DejaVuSans-46" d="M 628 4666 
L 3309 4666 
L 3309 4134 
L 1259 4134 
L 1259 2759 
L 3109 2759 
L 3109 2228 
L 1259 2228 
L 1259 0 
L 628 0 
L 628 4666 
z
" transform="scale(0.015625)"/>
       <path id="DejaVuSans-29" d="M 513 4856 
L 1013 4856 
Q 1481 4119 1714 3412 
Q 1947 2706 1947 2009 
Q 1947 1309 1714 600 
Q 1481 -109 1013 -844 
L 513 -844 
Q 928 -128 1133 580 
Q 1338 1288 1338 2009 
Q 1338 2731 1133 3434 
Q 928 4138 513 4856 
z
" transform="scale(0.015625)"/>
      </defs>
      <use xlink:href="#DejaVuSans-4d"/>
      <use xlink:href="#DejaVuSans-65" x="86.279297"/>
      <use xlink:href="#DejaVuSans-61" x="147.802734"/>
      <use xlink:href="#DejaVuSans-6e" x="209.082031"/>
      <use xlink:href="#DejaVuSans-20" x="272.460938"/>
      <use xlink:href="#DejaVuSans-54" x="304.248047"/>
      <use xlink:href="#DejaVuSans-65" x="348.332031"/>
      <use xlink:href="#DejaVuSans-6d" x="409.855469"/>
      <use xlink:href="#DejaVuSans-70" x="507.267578"/>
      <use xlink:href="#DejaVuSans-65" x="570.744141"/>
      <use xlink:href="#DejaVuSans-72" x="632.267578"/>
      <use xlink:href="#DejaVuSans-61" x="673.380859"/>
      <use xlink:href="#DejaVuSans-74" x="734.660156"/>
      <use xlink:href="#DejaVuSans-75" x="773.869141"/>
      <use xlink:href="#DejaVuSans-72" x="837.248047"/>
      <use xlink:href="#DejaVuSans-65" x="876.111328"/>
      <use xlink:href="#DejaVuSans-20" x="937.634766"/>
      <use xlink:href="#DejaVuSans-28" x="969.421875"/>
      <use xlink:href="#DejaVuSans-2da" x="1008.435547"/>
      <use xlink:href="#DejaVuSans-46" x="1058.435547"/>
      <use xlink:href="#DejaVuSans-29" x="1115.955078"/>
     </g>
    </g>
   </g>
   <g id="line2d_44">
    <path d="M 108 262.957309 
L 108.203774 254.203595 
L 108.407547 253.407435 
L 108.611321 262.420012 
L 109.018868 262.420012 
L 109.222642 272.01375 
L 109.630189 255.323016 
L 109.833962 254.355881 
L 110.037736 254.584686 
L 110.241509 262.832989 
L 110.445283 261.074433 
L 110.649057 280.209085 
L 110.85283 248.727809 
L 111.464151 248.727809 
L 111.667925 225.758537 
L 112.075472 242.888498 
L 112.279245 255.266885 
L 112.483019 258.140322 
L 112.686792 231.790253 
L 113.09434 125.526021 
L 113.501887 246.034782 
L 113.70566 252.462811 
L 113.909434 254.379242 
L 114.316981 250.604406 
L 114.520755 223.926169 
L 114.724528 170.803825 
L 114.928302 177.914837 
L 115.132075 241.331202 
L 115.335849 259.121474 
L 115.743396 204.592813 
L 115.94717 254.159651 
L 116.150943 247.918251 
L 116.354717 247.483149 
L 116.558491 225.617487 
L 116.762264 228.200043 
L 116.966038 258.827128 
L 117.169811 265.060995 
L 117.373585 257.205892 
L 117.577358 268.798262 
L 117.781132 235.340231 
L 117.984906 225.477323 
L 118.188679 207.955193 
L 118.596226 228.509548 
L 118.8 243.493001 
L 119.003774 241.002602 
L 119.207547 232.523774 
L 119.615094 179.671566 
L 119.818868 203.056695 
L 120.226415 150.302432 
L 120.633962 245.572239 
L 120.837736 242.963256 
L 121.041509 254.944572 
L 121.245283 252.352976 
L 121.856604 240.703859 
L 122.264151 242.278374 
L 122.467925 235.705147 
L 122.671698 211.178601 
L 123.283019 179.116514 
L 123.486792 191.917271 
L 123.89434 266.891259 
L 124.098113 279.270888 
L 124.301887 271.722262 
L 124.50566 275.057328 
L 124.709434 268.943689 
L 124.913208 243.247468 
L 125.116981 257.332302 
L 125.320755 253.332131 
L 125.524528 233.952603 
L 125.728302 259.952734 
L 125.932075 267.119527 
L 126.135849 263.489934 
L 126.339623 232.548326 
L 126.543396 256.526443 
L 126.74717 260.772322 
L 127.154717 243.146581 
L 127.358491 228.724467 
L 127.562264 227.246694 
L 127.766038 189.598766 
L 127.969811 248.319463 
L 128.173585 244.996555 
L 128.988679 300.508455 
L 130.415094 300.508455 
L 130.618868 274.419586 
L 131.026415 310.330523 
L 131.230189 307.532691 
L 131.433962 291.876995 
L 131.637736 302.029914 
L 131.841509 343.962193 
L 132.045283 324.902193 
L 132.249057 323.802374 
L 132.45283 310.240278 
L 132.656604 324.260916 
L 132.860377 325.048808 
L 133.064151 319.935163 
L 133.675472 281.303371 
L 133.879245 282.989499 
L 137.954717 282.989499 
L 138.158491 296.608001 
L 138.362264 287.962655 
L 138.566038 287.226742 
L 138.769811 289.033394 
L 139.177358 329.638232 
L 139.381132 330.661661 
L 139.584906 325.729822 
L 139.788679 316.785147 
L 139.992453 313.022487 
L 140.196226 324.779196 
L 140.4 317.423147 
L 140.603774 344.63116 
L 140.807547 352.990747 
L 141.011321 336.805309 
L 141.215094 349.359376 
L 141.418868 342.98359 
L 141.622642 330.003317 
L 142.030189 284.063706 
L 142.233962 275.567441 
L 142.437736 271.802281 
L 142.641509 293.47112 
L 143.049057 286.084451 
L 143.25283 275.601127 
L 143.660377 279.113603 
L 143.864151 267.537061 
L 144.067925 266.648307 
L 144.271698 278.16996 
L 144.679245 264.162724 
L 144.883019 274.406102 
L 145.086792 302.890174 
L 145.290566 282.659765 
L 145.698113 309.407823 
L 145.901887 279.576146 
L 146.10566 278.635737 
L 146.309434 289.42971 
L 146.513208 283.767064 
L 146.920755 211.10259 
L 147.124528 261.138503 
L 147.532075 281.096359 
L 147.735849 279.950996 
L 147.939623 296.632589 
L 148.143396 295.727768 
L 148.34717 298.928191 
L 148.754717 273.904156 
L 149.366038 367.593709 
L 149.569811 357.288014 
L 149.977358 316.755996 
L 150.181132 313.458577 
L 150.384906 318.434416 
L 150.588679 316.46698 
L 150.792453 326.727482 
L 150.996226 354.844414 
L 151.403774 308.678967 
L 151.607547 301.376595 
L 151.811321 283.033537 
L 152.015094 274.871879 
L 152.218868 310.904779 
L 153.237736 310.904779 
L 153.441509 271.423244 
L 153.645283 291.279881 
L 153.849057 279.786393 
L 154.05283 255.747738 
L 154.256604 254.327848 
L 154.460377 259.448524 
L 155.071698 303.810587 
L 155.275472 318.948353 
L 155.479245 294.128716 
L 155.886792 296.659911 
L 156.090566 294.653437 
L 156.29434 315.916748 
L 156.498113 291.181729 
L 156.701887 292.726679 
L 156.90566 313.535311 
L 157.313208 271.198981 
L 157.720755 191.053318 
L 157.924528 203.812564 
L 158.128302 253.248516 
L 158.332075 267.746592 
L 158.535849 234.438506 
L 158.943396 281.27 
L 159.14717 306.911718 
L 159.758491 284.49592 
L 159.962264 275.701618 
L 160.166038 300.696648 
L 160.573585 285.43035 
L 160.777358 260.663349 
L 160.981132 255.643271 
L 161.184906 268.970366 
L 161.592453 254.961071 
L 161.796226 252.758006 
L 162.203774 285.824705 
L 162.407547 260.667956 
L 162.611321 266.265191 
L 162.815094 264.050592 
L 163.018868 269.337597 
L 163.222642 261.22902 
L 163.426415 273.921389 
L 163.630189 268.362986 
L 163.833962 232.536941 
L 164.037736 225.430601 
L 164.241509 259.976477 
L 164.445283 245.113879 
L 164.649057 188.91775 
L 164.85283 204.148959 
L 165.056604 268.343574 
L 165.464151 279.666093 
L 165.667925 268.947005 
L 165.871698 294.401596 
L 166.075472 282.187878 
L 166.279245 261.87337 
L 166.686792 288.184248 
L 166.890566 286.36478 
L 167.09434 286.967487 
L 167.298113 283.015926 
L 167.501887 262.092961 
L 167.70566 252.907515 
L 167.909434 265.377483 
L 168.113208 262.460558 
L 168.316981 268.082657 
L 168.520755 263.802968 
L 168.724528 272.441773 
L 168.928302 267.489294 
L 169.132075 256.252774 
L 169.335849 253.403775 
L 169.539623 268.035936 
L 169.743396 264.186084 
L 169.94717 268.76502 
L 170.150943 262.30788 
L 170.354717 262.785953 
L 170.558491 257.925109 
L 170.762264 262.312552 
L 171.169811 240.147873 
L 171.373585 259.117398 
L 171.577358 244.868139 
L 171.781132 250.590128 
L 171.984906 251.356361 
L 172.188679 248.308453 
L 172.392453 264.671988 
L 172.8 248.155938 
L 173.003774 211.718266 
L 173.207547 197.355228 
L 173.411321 240.274021 
L 173.615094 254.194185 
L 173.818868 247.983069 
L 174.226415 160.824113 
L 174.430189 178.344476 
L 174.633962 242.446571 
L 174.837736 246.902212 
L 175.041509 248.632498 
L 175.245283 256.603054 
L 175.449057 236.484908 
L 175.65283 262.887227 
L 175.856604 260.50443 
L 176.060377 243.029244 
L 176.467925 186.863047 
L 176.671698 218.655984 
L 176.875472 173.784657 
L 177.079245 210.180704 
L 177.486792 237.454428 
L 177.690566 238.075465 
L 177.89434 232.895455 
L 178.098113 277.245462 
L 179.116981 277.245462 
L 179.320755 259.812199 
L 179.524528 229.434274 
L 179.932075 215.384107 
L 180.135849 220.113695 
L 180.339623 199.766482 
L 180.543396 247.482286 
L 180.74717 247.482286 
L 180.950943 211.04038 
L 181.562264 254.771702 
L 181.766038 255.01586 
L 181.969811 238.844344 
L 182.173585 260.12038 
L 182.377358 212.561802 
L 182.581132 236.255973 
L 182.784906 228.491549 
L 185.026415 228.491549 
L 185.230189 231.45634 
L 185.433962 237.54382 
L 185.637736 231.937129 
L 186.045283 245.961476 
L 186.249057 248.151266 
L 186.45283 260.130658 
L 186.656604 235.569167 
L 186.860377 243.137248 
L 187.064151 237.942619 
L 187.267925 204.317156 
L 187.471698 228.986107 
L 187.675472 231.803414 
L 187.879245 237.110976 
L 188.083019 245.673752 
L 188.286792 246.020766 
L 188.490566 238.269669 
L 188.69434 249.216516 
L 188.898113 240.708531 
L 189.30566 235.360782 
L 189.509434 250.108897 
L 189.713208 252.580464 
L 189.916981 249.991957 
L 190.120755 249.991957 
L 190.324528 266.792869 
L 190.528302 257.434828 
L 190.732075 241.189763 
L 190.935849 238.112794 
L 191.139623 214.132624 
L 191.343396 217.128191 
L 191.54717 227.592982 
L 191.750943 252.296121 
L 191.954717 247.179459 
L 192.158491 246.777654 
L 192.362264 236.442891 
L 192.566038 192.208279 
L 192.769811 188.947711 
L 192.973585 190.95948 
L 193.177358 229.126272 
L 193.381132 232.24619 
L 193.584906 226.154785 
L 193.788679 239.442379 
L 193.992453 224.591444 
L 194.196226 229.705618 
L 194.4 205.303253 
L 194.603774 166.999715 
L 194.807547 219.818743 
L 195.215094 206.80274 
L 195.622642 236.614734 
L 195.826415 239.477502 
L 196.233962 258.644947 
L 196.437736 250.328378 
L 196.641509 232.353393 
L 196.845283 237.877209 
L 197.049057 229.184674 
L 197.25283 210.460475 
L 197.456604 205.348721 
L 197.660377 182.315419 
L 197.864151 175.049666 
L 198.067925 212.815274 
L 198.271698 210.624559 
L 198.679245 234.81388 
L 198.883019 239.063935 
L 199.086792 248.38373 
L 199.290566 238.526637 
L 199.49434 208.019934 
L 199.698113 202.427513 
L 200.10566 259.374625 
L 200.309434 258.621554 
L 200.716981 240.357303 
L 200.920755 237.186253 
L 201.124528 236.12048 
L 201.328302 242.960508 
L 201.735849 242.960508 
L 202.143396 298.996852 
L 202.34717 298.996852 
L 202.550943 286.623804 
L 202.754717 289.919783 
L 202.958491 287.177734 
L 203.366038 266.225144 
L 203.569811 282.347842 
L 203.773585 271.569094 
L 203.977358 268.47979 
L 204.181132 273.703254 
L 204.384906 273.468311 
L 204.588679 276.875643 
L 204.792453 275.402314 
L 205.2 307.244617 
L 205.607547 296.096868 
L 206.015094 272.796856 
L 206.422642 281.169349 
L 206.626415 280.552625 
L 206.830189 280.800249 
L 207.237736 294.228008 
L 207.441509 275.894492 
L 207.645283 242.46526 
L 207.849057 230.887672 
L 208.256604 294.419566 
L 208.460377 291.696953 
L 208.664151 307.833308 
L 208.867925 310.902911 
L 209.071698 310.295531 
L 209.275472 300.451311 
L 210.090566 316.135718 
L 210.701887 303.20298 
L 210.90566 301.510583 
L 211.109434 306.90355 
L 211.313208 299.381389 
L 211.516981 306.15541 
L 211.720755 306.286827 
L 211.924528 290.686518 
L 212.128302 319.435955 
L 212.332075 319.429584 
L 212.535849 319.200649 
L 212.739623 315.383502 
L 212.943396 306.954944 
L 213.14717 286.414133 
L 213.350943 282.866418 
L 213.554717 272.812229 
L 213.758491 289.279444 
L 213.962264 279.995431 
L 214.166038 281.071234 
L 214.369811 285.843525 
L 214.573585 274.558257 
L 214.981132 301.651727 
L 215.184906 274.924593 
L 215.388679 268.713398 
L 215.592453 287.725453 
L 215.796226 287.725453 
L 216 293.343011 
L 216.203774 280.534412 
L 216.407547 288.564494 
L 216.611321 288.564494 
L 217.018868 342.348439 
L 217.222642 341.068728 
L 217.630189 319.504338 
L 217.833962 280.465913 
L 218.241509 309.435856 
L 218.649057 309.435856 
L 218.85283 258.152813 
L 219.056604 272.34833 
L 219.260377 294.394203 
L 219.464151 292.345131 
L 219.667925 278.978111 
L 219.871698 285.82 
L 220.075472 297.258364 
L 220.483019 280.412461 
L 220.686792 284.977837 
L 221.09434 274.422765 
L 221.298113 293.546149 
L 221.501887 274.83139 
L 221.70566 271.705534 
L 221.909434 261.646324 
L 222.724528 313.921119 
L 223.132075 308.647798 
L 223.335849 288.839429 
L 223.539623 286.958567 
L 223.743396 294.547983 
L 223.94717 316.354297 
L 224.558491 261.835993 
L 224.762264 253.417653 
L 224.966038 256.047885 
L 225.373585 321.012642 
L 225.577358 326.942401 
L 225.984906 302.056342 
L 226.188679 310.061924 
L 226.392453 298.363056 
L 226.8 257.762276 
L 227.003774 309.164871 
L 227.207547 309.660119 
L 227.411321 300.53541 
L 227.615094 280.446259 
L 227.818868 280.646068 
L 228.022642 299.774503 
L 228.430189 274.269662 
L 228.633962 277.697942 
L 228.837736 264.502335 
L 229.041509 261.326729 
L 229.245283 272.674727 
L 229.449057 319.281326 
L 229.65283 322.672056 
L 230.060377 304.512259 
L 230.264151 263.952477 
L 230.467925 289.121348 
L 230.671698 293.023083 
L 230.875472 322.513203 
L 231.283019 293.277144 
L 231.690566 260.338683 
L 231.89434 270.048831 
L 232.098113 247.198148 
L 232.50566 293.799379 
L 232.913208 275.267756 
L 233.320755 311.031941 
L 233.524528 300.857788 
L 233.728302 279.443857 
L 233.932075 282.09095 
L 234.135849 289.391114 
L 234.543396 268.562426 
L 234.74717 277.903516 
L 234.950943 293.193184 
L 235.154717 281.371626 
L 235.969811 261.582512 
L 236.581132 196.445652 
L 236.784906 256.273717 
L 237.192453 226.628632 
L 237.396226 227.260768 
L 237.6 260.366912 
L 237.803774 260.672726 
L 238.211321 233.683954 
L 238.618868 274.212518 
L 238.822642 287.274358 
L 239.026415 258.836677 
L 239.230189 263.698623 
L 239.433962 247.674777 
L 239.637736 217.247217 
L 239.841509 210.270501 
L 240.249057 256.523759 
L 240.45283 239.895577 
L 240.656604 235.15377 
L 240.860377 264.037622 
L 241.064151 260.448364 
L 241.267925 270.560694 
L 241.675472 270.560694 
L 241.879245 293.537545 
L 242.083019 260.5449 
L 242.490566 242.427883 
L 242.69434 265.160009 
L 243.101887 244.182424 
L 243.30566 253.482189 
L 243.509434 268.222688 
L 243.916981 272.581938 
L 244.528302 272.581938 
L 244.732075 226.972411 
L 244.935849 227.668561 
L 245.139623 263.20392 
L 245.343396 257.394748 
L 245.54717 258.796595 
L 245.750943 255.52565 
L 245.954717 248.300775 
L 246.158491 251.571077 
L 246.362264 246.361833 
L 246.566038 223.14592 
L 246.769811 177.709263 
L 246.973585 197.880208 
L 247.177358 197.880208 
L 247.381132 233.738823 
L 247.584906 228.08214 
L 247.788679 218.768116 
L 247.992453 180.194847 
L 248.4 275.242953 
L 248.807547 209.86767 
L 249.011321 268.521839 
L 249.418868 240.070309 
L 249.622642 239.736724 
L 250.030189 220.77714 
L 250.233962 226.473373 
L 250.437736 241.329927 
L 250.845283 219.020412 
L 251.25283 240.932795 
L 251.456604 235.209411 
L 251.660377 234.284325 
L 251.864151 248.22148 
L 252.271698 232.364072 
L 252.475472 261.639763 
L 252.679245 258.227729 
L 253.086792 230.327851 
L 253.49434 269.755287 
L 253.901887 244.754613 
L 254.10566 251.361033 
L 254.309434 236.73459 
L 254.513208 231.70984 
L 255.124528 205.097405 
L 255.532075 240.823778 
L 255.735849 227.771348 
L 256.34717 248.632498 
L 256.550943 245.576912 
L 256.754717 245.654933 
L 256.958491 220.772468 
L 257.366038 236.91875 
L 257.569811 241.371977 
L 257.773585 253.412107 
L 257.977358 255.713843 
L 258.181132 233.214403 
L 258.384906 225.654865 
L 258.588679 234.144161 
L 258.792453 223.786005 
L 259.403774 241.040254 
L 259.607547 275.961904 
L 259.811321 252.901743 
L 260.015094 243.058623 
L 260.218868 238.956475 
L 260.422642 232.506572 
L 261.033962 232.506572 
L 261.237736 261.251068 
L 261.441509 255.520945 
L 261.645283 256.846137 
L 261.849057 247.646674 
L 262.05283 244.586938 
L 262.256604 259.995166 
L 262.664151 220.216482 
L 262.867925 218.170081 
L 263.071698 212.23645 
L 263.275472 249.781846 
L 263.479245 253.770751 
L 263.683019 252.089888 
L 263.886792 242.44154 
L 264.090566 243.437067 
L 264.29434 258.953277 
L 264.498113 254.496046 
L 264.701887 247.051205 
L 264.90566 244.79199 
L 265.109434 250.281766 
L 265.516981 234.580702 
L 265.924528 249.174467 
L 266.128302 268.563889 
L 266.332075 253.028991 
L 266.739623 265.6765 
L 266.943396 254.925883 
L 267.14717 256.508163 
L 267.350943 250.552653 
L 267.554717 254.485884 
L 267.962264 239.891489 
L 268.166038 260.336233 
L 268.369811 252.33284 
L 268.573585 262.498197 
L 268.777358 263.102146 
L 268.981132 259.934428 
L 269.184906 268.792824 
L 269.388679 258.102945 
L 270 158.618859 
L 270.203774 211.970138 
L 270.407547 233.714323 
L 270.611321 225.986587 
L 270.815094 233.968155 
L 271.018868 248.123233 
L 271.426415 232.547298 
L 271.833962 262.527471 
L 272.037736 254.480318 
L 272.241509 239.713363 
L 272.445283 235.966299 
L 273.260377 184.016665 
L 273.667925 250.753654 
L 273.871698 269.876763 
L 274.075472 267.601426 
L 274.279245 270.868075 
L 274.483019 258.29911 
L 274.686792 256.392938 
L 274.890566 244.840999 
L 275.09434 220.07952 
L 275.70566 253.715797 
L 275.909434 237.355627 
L 276.113208 243.750101 
L 276.316981 261.887387 
L 276.724528 215.698326 
L 276.928302 201.686736 
L 277.132075 207.718183 
L 277.335849 261.270663 
L 277.743396 307.14696 
L 277.94717 298.161958 
L 278.150943 296.979839 
L 278.354717 286.187238 
L 278.762264 250.823736 
L 278.966038 250.051982 
L 279.169811 254.63621 
L 279.373585 249.931355 
L 279.577358 267.017407 
L 279.984906 237.877209 
L 280.392453 276.464494 
L 280.8 262.639603 
L 281.207547 277.866139 
L 281.411321 260.149347 
L 282.022642 243.867101 
L 282.226415 244.063135 
L 282.430189 257.145155 
L 282.633962 283.000832 
L 283.041509 242.163955 
L 283.449057 287.159045 
L 283.65283 292.341315 
L 284.060377 266.572573 
L 284.671698 322.512909 
L 284.875472 319.607126 
L 285.079245 323.933537 
L 285.486792 278.818983 
L 285.690566 326.078053 
L 285.89434 340.986883 
L 286.301887 285.322465 
L 286.50566 289.649301 
L 286.709434 288.901757 
L 286.913208 311.290699 
L 287.116981 319.401551 
L 287.320755 311.220617 
L 287.524528 314.039524 
L 287.728302 323.687862 
L 287.932075 326.241579 
L 288.135849 325.476947 
L 288.339623 329.876511 
L 288.543396 323.877471 
L 288.74717 328.920877 
L 288.950943 330.431696 
L 289.154717 316.109646 
L 289.358491 316.109646 
L 289.562264 316.989448 
L 289.969811 299.516881 
L 290.173585 309.206495 
L 290.377358 333.436689 
L 290.581132 332.13316 
L 290.988679 350.97594 
L 291.6 325.302476 
L 292.007547 296.022113 
L 292.211321 298.881469 
L 292.618868 296.629493 
L 292.822642 288.105583 
L 293.026415 287.215111 
L 293.433962 258.196388 
L 293.841509 311.456754 
L 294.249057 301.184839 
L 294.45283 285.518186 
L 295.675472 285.518186 
L 296.286792 325.78838 
L 296.490566 310.501106 
L 296.69434 310.24881 
L 296.898113 295.760473 
L 297.101887 302.726648 
L 297.30566 301.29711 
L 297.713208 255.477197 
L 297.916981 261.719189 
L 298.120755 294.716819 
L 298.324528 309.664791 
L 298.528302 334.716858 
L 299.139623 305.296331 
L 299.54717 294.653173 
L 299.750943 299.021634 
L 299.954717 296.42859 
L 300.362264 280.226437 
L 300.566038 263.784279 
L 300.769811 257.103105 
L 301.177358 308.506098 
L 301.381132 298.633845 
L 301.584906 295.269897 
L 301.788679 307.147423 
L 301.992453 303.354873 
L 302.4 282.373139 
L 302.603774 280.641396 
L 302.807547 281.20457 
L 303.011321 269.34881 
L 303.215094 282.080843 
L 303.418868 275.361867 
L 303.622642 278.772536 
L 303.826415 278.852159 
L 304.030189 284.68478 
L 304.233962 279.25844 
L 304.437736 277.230727 
L 304.641509 294.120548 
L 304.845283 281.82345 
L 305.049057 279.369689 
L 305.25283 285.154693 
L 305.456604 302.721976 
L 306.067925 252.94022 
L 306.475472 252.594481 
L 306.679245 253.285959 
L 306.883019 258.540745 
L 307.086792 279.203575 
L 307.49434 258.724341 
L 307.698113 254.565866 
L 307.901887 262.639076 
L 308.10566 262.393447 
L 308.309434 275.511735 
L 308.513208 228.080434 
L 308.716981 223.422296 
L 308.920755 283.84294 
L 309.328302 274.91395 
L 309.532075 283.444686 
L 309.735849 302.333393 
L 309.939623 280.621172 
L 310.143396 246.852408 
L 310.34717 252.025262 
L 310.550943 247.314951 
L 310.754717 247.609297 
L 311.162264 205.966425 
L 311.569811 274.844121 
L 311.773585 264.172068 
L 312.181132 283.288806 
L 312.588679 213.722194 
L 312.792453 235.42433 
L 312.996226 204.027483 
L 313.2 201.714769 
L 313.403774 187.506761 
L 313.607547 227.983621 
L 313.811321 229.70054 
L 314.015094 217.637455 
L 314.218868 231.262882 
L 314.422642 266.850157 
L 314.626415 265.904488 
L 314.830189 274.899324 
L 315.237736 247.375689 
L 315.441509 252.290791 
L 315.645283 251.641362 
L 315.849057 265.77605 
L 316.05283 257.981469 
L 316.256604 262.233126 
L 316.664151 225.626505 
L 316.867925 217.505982 
L 317.071698 252.894521 
L 317.275472 266.522159 
L 317.479245 262.462061 
L 317.683019 262.695669 
L 317.886792 270.442093 
L 318.090566 256.014494 
L 318.29434 259.009342 
L 318.498113 243.250181 
L 318.90566 239.105984 
L 319.313208 198.319717 
L 319.516981 241.909274 
L 319.720755 245.675027 
L 320.128302 257.168515 
L 320.332075 253.940191 
L 320.535849 230.270949 
L 320.739623 232.373416 
L 320.943396 242.464865 
L 321.14717 233.284485 
L 321.350943 236.900729 
L 321.554717 229.462942 
L 321.758491 229.126272 
L 321.962264 219.249347 
L 322.166038 269.009419 
L 322.573585 240.601072 
L 322.777358 252.65414 
L 322.981132 231.102591 
L 323.184906 230.696114 
L 323.388679 230.793434 
L 323.592453 217.528177 
L 323.796226 244.695149 
L 324 249.38458 
L 324.203774 204.041499 
L 324.407547 183.871829 
L 324.611321 196.094502 
L 324.815094 189.707344 
L 325.018868 190.987513 
L 325.222642 201.042529 
L 325.426415 201.448456 
L 325.630189 217.110777 
L 325.833962 207.839682 
L 326.037736 188.401952 
L 326.241509 250.403242 
L 326.445283 249.455645 
L 326.649057 238.400489 
L 326.85283 237.35276 
L 327.056604 238.344424 
L 327.260377 247.308257 
L 327.464151 262.88545 
L 327.871698 234.718835 
L 328.075472 256.635988 
L 328.279245 259.486035 
L 328.483019 240.395497 
L 328.686792 235.788758 
L 329.09434 244.596348 
L 329.298113 274.114403 
L 329.501887 274.114403 
L 329.70566 224.348782 
L 329.909434 228.398112 
L 330.113208 228.238563 
L 330.316981 249.763158 
L 330.520755 246.534702 
L 330.928302 251.347017 
L 331.132075 237.159378 
L 331.539623 245.113382 
L 331.743396 235.939201 
L 332.150943 250.800298 
L 332.354717 253.677823 
L 332.558491 253.466898 
L 332.966038 220.993278 
L 333.373585 235.627022 
L 333.577358 225.995734 
L 333.781132 244.14114 
L 334.188679 212.791953 
L 334.392453 221.87488 
L 334.596226 204.935525 
L 334.8 209.808893 
L 335.003774 218.51582 
L 335.207547 206.055196 
L 335.411321 219.7773 
L 335.615094 208.150718 
L 335.818868 210.346766 
L 336.022642 218.920173 
L 336.226415 237.788438 
L 336.633962 199.989929 
L 337.041509 222.384882 
L 337.65283 188.814963 
L 337.856604 222.304584 
L 338.060377 214.007195 
L 338.264151 189.864091 
L 338.467925 204.176992 
L 338.671698 201.752146 
L 338.875472 204.751666 
L 339.079245 176.601963 
L 339.283019 173.18195 
L 339.486792 226.341671 
L 339.690566 226.2529 
L 340.098113 194.690604 
L 340.50566 234.35908 
L 340.709434 232.177186 
L 340.913208 215.572365 
L 341.116981 213.334405 
L 341.320755 222.529196 
L 341.524528 219.858393 
L 341.728302 225.165432 
L 341.932075 220.524844 
L 342.135849 222.342539 
L 342.339623 225.635915 
L 342.543396 203.95869 
L 342.950943 203.95869 
L 343.154717 256.910212 
L 343.358491 227.936573 
L 343.562264 230.937421 
L 343.969811 205.979167 
L 344.173585 230.612115 
L 344.377358 237.274501 
L 344.581132 234.554376 
L 344.784906 185.429365 
L 344.988679 191.636942 
L 345.192453 189.85218 
L 345.6 253.530378 
L 345.803774 255.416459 
L 346.007547 261.894666 
L 346.211321 279.206197 
L 346.415094 282.431987 
L 346.822642 236.209251 
L 347.230189 214.483754 
L 347.433962 222.94969 
L 347.637736 277.300809 
L 347.841509 265.648467 
L 348.045283 286.266664 
L 348.860377 274.039126 
L 349.064151 257.76655 
L 349.267925 261.29545 
L 349.471698 268.593571 
L 349.675472 270.180453 
L 349.879245 261.359829 
L 350.083019 269.049792 
L 350.286792 259.09661 
L 350.490566 243.002557 
L 350.69434 271.437359 
L 350.898113 276.44674 
L 351.101887 273.016448 
L 351.509434 244.59576 
L 351.713208 247.151426 
L 351.916981 268.647987 
L 352.120755 270.030617 
L 352.324528 269.033195 
L 352.732075 230.789557 
L 352.935849 257.61237 
L 353.54717 276.664745 
L 353.750943 275.174981 
L 353.954717 276.758513 
L 354.158491 255.879002 
L 354.362264 253.33268 
L 354.566038 257.751031 
L 354.769811 238.568687 
L 355.177358 284.860347 
L 355.381132 285.892893 
L 355.788679 263.375646 
L 355.992453 265.498958 
L 356.196226 272.605298 
L 356.4 306.744697 
L 356.603774 260.658611 
L 357.011321 291.752781 
L 357.215094 333.375951 
L 357.418868 351.204875 
L 357.622642 336.519165 
L 358.030189 369.36 
L 358.233962 360.687836 
L 358.641509 323.218698 
L 359.049057 314.862868 
L 359.864151 276.249575 
L 360.067925 299.211349 
L 360.271698 296.078706 
L 360.475472 309.729907 
L 360.883019 286.747896 
L 361.086792 287.640277 
L 361.49434 281.342219 
L 361.698113 292.570786 
L 361.901887 294.601319 
L 362.10566 298.367761 
L 362.309434 285.715351 
L 362.716981 304.239807 
L 362.920755 274.43101 
L 363.124528 281.825606 
L 363.328302 282.234599 
L 363.532075 288.396764 
L 363.735849 282.874782 
L 363.939623 285.280841 
L 364.143396 282.485827 
L 364.34717 285.313546 
L 364.550943 283.898851 
L 364.754717 283.715671 
L 364.958491 284.734199 
L 365.162264 279.764894 
L 365.366038 269.743623 
L 365.569811 268.77443 
L 365.773585 252.704168 
L 365.977358 269.017087 
L 366.384906 275.751681 
L 366.588679 274.661044 
L 366.792453 279.334486 
L 366.996226 277.78204 
L 367.2 288.770865 
L 367.403774 272.236199 
L 367.607547 273.226694 
L 367.811321 258.983694 
L 368.015094 267.951086 
L 368.218868 284.808954 
L 368.422642 248.263398 
L 368.626415 241.489284 
L 369.441509 316.701408 
L 369.645283 308.164481 
L 369.849057 314.951662 
L 370.05283 311.70652 
L 370.256604 299.233449 
L 370.867925 215.687434 
L 371.275472 245.133057 
L 371.479245 239.704554 
L 371.683019 213.404488 
L 371.886792 215.676469 
L 372.701887 270.755752 
L 372.90566 264.794613 
L 373.109434 269.522496 
L 374.535849 269.522496 
L 374.739623 261.246714 
L 374.943396 245.422731 
L 375.14717 252.865465 
L 375.350943 254.951662 
L 375.554717 241.951323 
L 375.758491 216.983354 
L 375.962264 237.115923 
L 376.166038 245.052012 
L 376.573585 215.718218 
L 376.777358 241.007827 
L 376.981132 234.25162 
L 377.184906 218.980699 
L 377.592453 252.893498 
L 377.796226 239.647953 
L 378 261.949933 
L 378.203774 254.007293 
L 378.407547 254.379242 
L 378.611321 244.987167 
L 378.815094 266.955399 
L 379.018868 275.465364 
L 379.222642 273.53571 
L 379.426415 274.048993 
L 379.630189 269.47963 
L 379.833962 268.063969 
L 380.037736 261.658451 
L 380.445283 232.25194 
L 380.649057 258.401963 
L 380.85283 266.618322 
L 381.056604 296.927218 
L 381.260377 301.726808 
L 381.667925 260.404446 
L 381.871698 271.264391 
L 382.279245 229.73398 
L 382.483019 196.010074 
L 382.686792 218.422377 
L 382.890566 265.271297 
L 383.09434 252.246286 
L 383.298113 261.228613 
L 383.70566 243.247199 
L 383.909434 249.375369 
L 384.113208 247.599952 
L 384.316981 232.849975 
L 384.520755 242.22698 
L 384.724528 258.4602 
L 384.928302 265.274695 
L 385.132075 232.789237 
L 385.335849 259.621394 
L 385.539623 267.821017 
L 385.94717 249.347336 
L 386.150943 272.533582 
L 386.354717 268.662004 
L 386.762264 235.443018 
L 387.169811 151.605537 
L 387.373585 159.263615 
L 387.577358 248.730613 
L 387.781132 251.253771 
L 387.984906 236.167202 
L 388.188679 242.231652 
L 388.392453 243.580107 
L 388.596226 254.299815 
L 389.003774 239.180738 
L 389.207547 241.55419 
L 389.615094 195.203766 
L 390.022642 130.609927 
L 390.430189 239.942299 
L 390.633962 252.216036 
L 390.837736 241.227695 
L 391.041509 242.203619 
L 391.245283 232.630384 
L 391.449057 234.812278 
L 391.65283 243.941659 
L 391.856604 241.647633 
L 392.060377 234.499244 
L 392.264151 209.764883 
L 392.467925 219.90812 
L 392.671698 238.281251 
L 392.875472 224.229859 
L 393.079245 222.77682 
L 393.283019 268.717972 
L 393.690566 243.778134 
L 393.89434 255.383754 
L 394.301887 232.209891 
L 394.50566 241.29255 
L 394.709434 238.022045 
L 394.913208 231.728659 
L 395.116981 194.010394 
L 395.320755 207.625038 
L 395.524528 232.037021 
L 395.728302 220.215959 
L 395.932075 235.828471 
L 396.135849 204.681584 
L 396.339623 213.100798 
L 396.543396 242.446244 
L 396.74717 247.254213 
L 397.154717 198.710576 
L 397.358491 238.578031 
L 397.562264 218.291556 
L 397.766038 250.599473 
L 397.969811 243.504829 
L 398.377358 216.717042 
L 398.581132 232.875852 
L 398.784906 213.742184 
L 398.988679 206.245716 
L 399.396226 178.006709 
L 399.6 188.698355 
L 399.803774 235.896217 
L 400.007547 225.75824 
L 400.211321 222.104031 
L 400.415094 233.45869 
L 400.618868 212.684822 
L 400.822642 222.183457 
L 401.026415 213.895063 
L 401.230189 218.632623 
L 401.433962 205.989786 
L 401.637736 227.745745 
L 401.841509 197.915102 
L 402.045283 210.90956 
L 402.249057 211.647759 
L 402.45283 198.135902 
L 402.656604 192.010714 
L 402.860377 189.263489 
L 403.064151 190.85202 
L 403.267925 188.272994 
L 403.471698 182.8533 
L 403.675472 191.8285 
L 403.879245 174.261216 
L 404.083019 166.44471 
L 404.286792 165.155196 
L 404.490566 162.553658 
L 404.69434 156.717294 
L 404.898113 188.160862 
L 405.30566 205.082402 
L 405.509434 198.224673 
L 405.713208 208.405287 
L 405.916981 209.003323 
L 406.120755 200.051483 
L 406.324528 216.365029 
L 406.528302 205.765523 
L 406.732075 186.436839 
L 406.935849 185.320195 
L 407.139623 173.981671 
L 407.343396 201.668047 
L 407.54717 192.449896 
L 407.750943 224.108383 
L 407.954717 194.244001 
L 408.158491 180.998456 
L 408.566038 191.474996 
L 408.769811 196.758664 
L 408.973585 190.02505 
L 409.381132 200.756815 
L 409.584906 209.503243 
L 409.788679 182.431532 
L 409.992453 177.734927 
L 410.196226 169.962838 
L 410.4 183.325187 
L 410.603774 179.274433 
L 410.807547 183.941911 
L 411.011321 191.22112 
L 411.215094 183.171006 
L 411.418868 181.091899 
L 411.622642 191.09115 
L 411.826415 191.529482 
L 412.030189 167.243647 
L 412.233962 171.383172 
L 412.437736 170.095488 
L 412.641509 205.797833 
L 412.845283 182.553858 
L 413.660377 202.971577 
L 413.864151 214.731378 
L 414.067925 203.382105 
L 414.271698 184.242577 
L 414.475472 191.856533 
L 414.679245 193.169407 
L 415.086792 181.674056 
L 415.901887 154.213021 
L 416.10566 174.55089 
L 416.309434 172.906293 
L 416.716981 161.188541 
L 416.920755 168.27152 
L 417.124528 143.069944 
L 417.328302 172.87826 
L 417.532075 168.920949 
L 417.735849 178.94271 
L 417.939623 180.834931 
L 418.143396 196.555408 
L 418.550943 163.973142 
L 418.754717 163.281664 
L 418.958491 150.984566 
L 419.162264 162.122971 
L 419.366038 212.53403 
L 419.773585 229.31251 
L 419.977358 215.095806 
L 420.181132 217.880407 
L 420.384906 210.676371 
L 420.792453 164.150684 
L 420.996226 199.279501 
L 421.2 198.248034 
L 421.403774 190.071771 
L 421.607547 206.232738 
L 422.015094 173.466951 
L 422.218868 189.585868 
L 422.422642 190.506281 
L 422.626415 205.593372 
L 422.830189 201.766162 
L 423.033962 181.48436 
L 423.237736 186.782578 
L 423.441509 179.837974 
L 423.849057 218.132703 
L 424.05283 209.964152 
L 424.256604 184.217568 
L 425.071698 233.114606 
L 425.275472 227.995612 
L 425.479245 216.997371 
L 425.683019 194.482281 
L 426.090566 219.717248 
L 426.29434 184.958022 
L 426.498113 212.138335 
L 426.701887 218.501803 
L 426.90566 203.798548 
L 427.109434 203.364705 
L 427.313208 214.572525 
L 427.516981 214.572525 
L 427.720755 194.451681 
L 428.128302 237.55483 
L 428.332075 245.502157 
L 428.739623 243.282886 
L 429.14717 194.61626 
L 429.350943 221.38452 
L 429.554717 233.433994 
L 429.758491 231.864152 
L 429.962264 227.009788 
L 430.166038 231.324986 
L 430.369811 245.838552 
L 430.573585 209.579846 
L 430.777358 221.654677 
L 431.592453 221.654677 
L 431.796226 146.719109 
L 432 145.439391 
L 434.037736 145.439391 
L 434.241509 299.756367 
L 434.445283 290.443402 
L 435.056604 244.568718 
L 435.464151 274.951385 
L 435.667925 267.050112 
L 435.871698 267.050112 
L 436.279245 320.938688 
L 436.483019 306.867023 
L 436.890566 323.076795 
L 437.09434 319.326797 
L 437.298113 331.292173 
L 437.501887 333.284599 
L 437.70566 329.199049 
L 438.316981 284.020406 
L 438.928302 263.783449 
L 439.335849 284.706166 
L 439.539623 282.412922 
L 439.743396 283.834811 
L 439.94717 288.708565 
L 440.150943 287.69252 
L 440.354717 275.973918 
L 440.558491 276.805561 
L 440.762264 276.805561 
L 440.966038 279.048193 
L 441.169811 296.316459 
L 441.373585 277.861323 
L 441.577358 295.091698 
L 441.781132 295.433188 
L 441.984906 263.34265 
L 442.188679 290.082569 
L 442.392453 274.593298 
L 442.596226 240.793737 
L 442.8 263.828665 
L 443.207547 273.71823 
L 443.411321 250.070409 
L 443.615094 264.548176 
L 444.022642 241.239138 
L 444.226415 261.73087 
L 444.430189 254.918875 
L 444.837736 229.899513 
L 445.449057 274.406412 
L 445.856604 237.486876 
L 446.060377 235.386953 
L 446.467925 210.262467 
L 446.671698 254.612849 
L 446.875472 274.530224 
L 447.079245 262.52695 
L 447.283019 263.025055 
L 447.486792 258.787415 
L 447.690566 271.236358 
L 447.89434 263.638108 
L 448.098113 265.723222 
L 448.301887 275.530064 
L 448.709434 252.300099 
L 449.116981 279.223399 
L 449.320755 278.845948 
L 449.524528 273.905768 
L 449.728302 276.819578 
L 450.339623 250.64675 
L 450.543396 249.010209 
L 450.74717 273.158847 
L 450.950943 275.488015 
L 451.154717 274.689077 
L 451.358491 249.040556 
L 451.766038 239.219759 
L 451.969811 210.05874 
L 452.377358 230.656401 
L 452.581132 256.839129 
L 452.784906 258.394955 
L 452.988679 248.269437 
L 453.192453 256.474701 
L 453.396226 242.481612 
L 453.6 244.265519 
L 453.803774 255.797239 
L 454.007547 251.75583 
L 454.211321 264.779447 
L 454.415094 218.373669 
L 454.618868 265.989534 
L 454.822642 244.335845 
L 455.026415 245.123713 
L 455.230189 261.628082 
L 455.433962 257.656935 
L 455.637736 270.987221 
L 455.841509 255.119778 
L 456.249057 278.310547 
L 456.45283 291.31025 
L 456.656604 278.312329 
L 456.860377 284.81129 
L 457.267925 260.483406 
L 457.471698 262.602226 
L 457.675472 253.057023 
L 457.879245 237.825815 
L 458.083019 272.362789 
L 458.286792 273.976574 
L 458.69434 209.197266 
L 459.101887 267.22253 
L 459.30566 272.361798 
L 459.509434 269.264115 
L 459.713208 278.794889 
L 459.916981 264.760225 
L 460.120755 267.879419 
L 460.324528 268.82099 
L 460.528302 268.099855 
L 460.732075 251.909986 
L 460.935849 273.942294 
L 461.139623 273.942294 
L 461.343396 229.710291 
L 461.54717 229.710291 
L 461.750943 228.526992 
L 461.954717 261.359531 
L 462.158491 268.525985 
L 462.362264 284.283337 
L 462.566038 266.190958 
L 462.973585 262.267982 
L 463.177358 287.879891 
L 463.992453 287.879891 
L 464.196226 249.506714 
L 464.4 244.291346 
L 464.603774 263.250622 
L 464.807547 267.331634 
L 465.011321 264.190756 
L 465.215094 265.556907 
L 465.418868 260.185256 
L 465.622642 263.414878 
L 465.826415 249.954048 
L 466.030189 250.24479 
L 466.233962 260.040308 
L 466.437736 276.268761 
L 466.641509 274.895707 
L 466.845283 261.127378 
L 467.25283 272.257223 
L 467.456604 278.636393 
L 467.864151 262.525602 
L 468.067925 226.516943 
L 468.475472 250.034142 
L 468.679245 241.810717 
L 468.883019 242.443191 
L 469.086792 244.253714 
L 469.290566 239.136427 
L 469.49434 202.72501 
L 469.901887 232.185027 
L 470.10566 257.574992 
L 470.309434 215.394824 
L 470.920755 265.349253 
L 471.124528 244.047669 
L 471.328302 253.799439 
L 471.532075 254.56797 
L 471.735849 240.921114 
L 472.143396 247.219172 
L 472.34717 260.065248 
L 472.550943 231.658333 
L 472.754717 228.409407 
L 472.958491 207.699793 
L 473.162264 221.852483 
L 473.366038 213.889113 
L 473.569811 213.397479 
L 473.773585 220.009931 
L 473.977358 204.174761 
L 474.384906 227.028509 
L 474.588679 214.196139 
L 474.792453 223.727603 
L 474.996226 214.786165 
L 475.2 211.353758 
L 475.403774 203.714182 
L 475.607547 226.879591 
L 475.811321 234.039654 
L 476.218868 199.88732 
L 476.422642 193.69202 
L 476.626415 201.504505 
L 476.830189 224.525559 
L 477.033962 199.136324 
L 477.237736 208.417476 
L 477.441509 210.031803 
L 477.645283 197.906357 
L 477.849057 155.48727 
L 478.05283 179.655248 
L 478.256604 235.800196 
L 478.460377 226.401572 
L 478.664151 222.151158 
L 478.867925 214.872355 
L 479.071698 229.032423 
L 479.275472 219.524454 
L 479.683019 175.842602 
L 479.886792 202.474413 
L 480.29434 217.614193 
L 480.498113 194.494696 
L 480.701887 199.79122 
L 480.90566 193.90267 
L 481.313208 199.402055 
L 481.516981 214.913608 
L 481.720755 201.017237 
L 481.924528 218.67464 
L 482.128302 210.166459 
L 482.332075 212.484025 
L 482.535849 212.747554 
L 482.739623 193.921757 
L 483.14717 210.037642 
L 483.350943 167.534688 
L 483.554717 174.583889 
L 483.758491 200.6139 
L 483.962264 210.494764 
L 484.166038 206.995391 
L 484.573585 227.701299 
L 484.777358 209.390163 
L 484.981132 209.255041 
L 485.184906 205.421884 
L 485.388679 218.653958 
L 485.592453 215.69821 
L 486 156.924773 
L 486.203774 186.404222 
L 487.222642 219.198249 
L 487.426415 227.809955 
L 487.833962 190.410183 
L 488.241509 136.69416 
L 488.445283 148.287576 
L 488.85283 223.832858 
L 489.056604 235.053605 
L 489.260377 221.563377 
L 489.464151 226.436536 
L 489.667925 237.340948 
L 489.871698 220.112303 
L 490.075472 224.665619 
L 490.279245 215.535056 
L 490.686792 149.884397 
L 490.890566 163.506832 
L 491.09434 237.494394 
L 491.298113 222.538691 
L 491.501887 185.236745 
L 491.909434 228.279394 
L 492.113208 223.607469 
L 492.316981 234.762156 
L 492.520755 232.925542 
L 492.724528 238.689444 
L 493.132075 226.461082 
L 493.335849 239.901902 
L 493.539623 231.586893 
L 493.743396 193.468876 
L 493.94717 201.286141 
L 494.150943 220.152861 
L 494.354717 206.332649 
L 494.558491 215.218501 
L 494.762264 213.612741 
L 494.966038 222.281077 
L 495.373585 179.942616 
L 495.577358 189.345534 
L 495.781132 214.715988 
L 495.984906 221.314635 
L 496.188679 217.716981 
L 496.392453 222.723814 
L 496.596226 220.623962 
L 496.8 215.629938 
L 497.003774 215.629938 
L 497.207547 227.137718 
L 497.411321 227.870223 
L 497.615094 230.377803 
L 497.818868 228.38209 
L 498.022642 220.264519 
L 498.226415 223.794726 
L 498.430189 224.178728 
L 498.633962 228.917528 
L 499.041509 197.900327 
L 499.245283 221.250416 
L 499.449057 258.668373 
L 499.65283 266.884284 
L 499.856604 263.632674 
L 500.060377 268.424733 
L 500.264151 263.813247 
L 500.467925 256.198355 
L 500.671698 260.308147 
L 500.875472 288.355115 
L 501.079245 295.089893 
L 501.283019 291.152692 
L 501.690566 272.629878 
L 501.89434 299.097322 
L 502.098113 277.202578 
L 502.301887 284.473915 
L 502.50566 266.701996 
L 502.709434 260.574202 
L 503.116981 241.570971 
L 503.320755 217.144199 
L 504.135849 322.69715 
L 504.74717 312.786635 
L 505.154717 319.550284 
L 505.358491 310.31312 
L 505.562264 280.208112 
L 505.969811 285.422894 
L 506.173585 296.88774 
L 506.581132 253.704116 
L 506.784906 259.02031 
L 506.988679 246.934179 
L 507.192453 262.297641 
L 507.396226 298.812989 
L 507.6 290.374268 
L 508.007547 309.869055 
L 508.211321 309.858986 
L 508.415094 319.63511 
L 508.822642 293.322545 
L 509.026415 301.235193 
L 509.230189 314.59075 
L 509.433962 272.419491 
L 509.637736 267.384146 
L 509.841509 303.913374 
L 510.249057 329.230474 
L 510.45283 327.293409 
L 510.656604 355.784257 
L 511.064151 331.927093 
L 511.267925 344.122422 
L 511.471698 336.306415 
L 511.675472 344.921823 
L 512.286792 295.025175 
L 512.490566 298.176663 
L 512.898113 315.692799 
L 513.101887 312.875611 
L 513.30566 303.184721 
L 513.509434 299.071132 
L 513.713208 283.010449 
L 514.120755 268.313797 
L 514.324528 297.870222 
L 514.528302 275.569676 
L 514.732075 271.859968 
L 514.935849 253.844775 
L 515.139623 253.844775 
L 515.54717 283.67282 
L 515.750943 264.540938 
L 515.954717 267.209588 
L 516.362264 290.415806 
L 516.566038 280.461914 
L 516.769811 285.845162 
L 516.973585 269.441103 
L 517.177358 271.904846 
L 517.381132 261.57875 
L 517.788679 302.698138 
L 518.196226 315.895647 
L 518.4 308.138333 
L 518.603774 283.990351 
L 518.807547 283.92348 
L 519.418868 205.82124 
L 519.622642 234.744024 
L 519.826415 235.590321 
L 520.030189 242.887427 
L 520.233962 258.115319 
L 520.437736 259.75826 
L 520.641509 246.10393 
L 520.845283 202.056914 
L 521.049057 209.850898 
L 521.660377 287.218849 
L 521.864151 293.703658 
L 522.067925 283.61655 
L 522.475472 246.644897 
L 522.679245 249.399518 
L 522.883019 228.525025 
L 523.086792 262.496538 
L 523.290566 257.761029 
L 523.49434 269.557113 
L 523.698113 240.97772 
L 523.901887 243.486689 
L 524.10566 250.916618 
L 524.309434 252.264529 
L 524.513208 240.582141 
L 524.716981 247.988199 
L 525.124528 295.709248 
L 525.328302 298.377032 
L 525.532075 262.607209 
L 525.735849 249.443821 
L 525.939623 279.824425 
L 526.143396 283.722136 
L 526.34717 263.194314 
L 526.550943 273.585076 
L 526.754717 278.059956 
L 526.958491 250.09885 
L 527.162264 239.28248 
L 527.366038 277.083782 
L 527.569811 259.14357 
L 527.773585 256.034121 
L 528.181132 280.259376 
L 528.588679 262.879063 
L 528.792453 256.315604 
L 528.996226 255.584555 
L 529.403774 289.377254 
L 529.607547 282.438384 
L 529.811321 283.791278 
L 530.015094 277.750435 
L 530.422642 281.998892 
L 530.626415 282.035877 
L 531.033962 223.296538 
L 531.237736 156.559487 
L 531.441509 227.440578 
L 532.05283 275.013092 
L 532.256604 260.949479 
L 532.460377 275.14009 
L 532.664151 271.278559 
L 532.867925 274.500589 
L 533.071698 261.974832 
L 533.275472 212.164133 
L 533.479245 193.515197 
L 533.886792 210.440907 
L 534.090566 229.516682 
L 534.29434 228.805845 
L 534.498113 256.33935 
L 534.701887 261.864327 
L 534.90566 264.16201 
L 535.109434 279.007876 
L 535.313208 277.01853 
L 535.516981 278.40953 
L 535.720755 268.181622 
L 535.924528 270.563425 
L 536.128302 215.042981 
L 536.332075 208.88857 
L 536.535849 266.966013 
L 536.739623 268.794671 
L 537.14717 244.360527 
L 537.350943 273.965175 
L 537.758491 255.951702 
L 537.962264 274.767404 
L 538.166038 268.719898 
L 538.369811 275.203451 
L 538.573585 271.162315 
L 538.981132 245.181959 
L 539.184906 245.508103 
L 539.388679 249.354211 
L 539.592453 204.000687 
L 540.203774 280.901662 
L 540.407547 268.416639 
L 540.815094 263.49359 
L 541.018868 262.559548 
L 541.222642 266.122254 
L 541.426415 261.355602 
L 541.833962 211.651841 
L 542.037736 253.099479 
L 542.241509 254.93623 
L 542.445283 248.604678 
L 542.649057 261.201736 
L 542.85283 253.547324 
L 543.056604 211.09978 
L 543.464151 269.558656 
L 544.483019 269.558656 
L 544.686792 229.489231 
L 544.890566 239.711283 
L 545.09434 262.714357 
L 545.298113 262.699574 
L 545.501887 263.429804 
L 545.70566 233.435122 
L 546.113208 224.139989 
L 546.316981 193.44547 
L 546.520755 233.311991 
L 546.724528 228.644832 
L 546.928302 268.474693 
L 547.132075 245.650984 
L 547.335849 243.144223 
L 547.539623 237.833065 
L 547.743396 237.238659 
L 547.94717 241.365453 
L 548.150943 259.388064 
L 548.354717 289.291225 
L 548.558491 254.280469 
L 548.762264 264.567198 
L 548.966038 262.664747 
L 549.169811 263.64735 
L 549.373585 256.92364 
L 549.577358 270.256912 
L 549.781132 271.647508 
L 549.984906 268.170248 
L 550.596226 229.672783 
L 550.8 235.849789 
L 551.003774 253.257926 
L 551.411321 253.257926 
L 551.615094 248.083911 
L 551.818868 254.256487 
L 552.022642 268.435964 
L 552.226415 258.424075 
L 552.430189 286.029506 
L 553.041509 286.029506 
L 553.245283 210.255037 
L 553.449057 242.345004 
L 556.301887 242.345004 
L 556.50566 265.771812 
L 556.709434 241.357804 
L 557.116981 250.501659 
L 557.320755 231.05587 
L 558.339623 231.05587 
L 558.543396 234.858486 
L 558.74717 247.594261 
L 558.950943 248.856453 
L 559.154717 247.215325 
L 559.358491 254.630915 
L 559.562264 242.946974 
L 559.766038 256.374932 
L 559.969811 257.309726 
L 560.173585 227.7686 
L 560.377358 227.687133 
L 560.784906 235.670708 
L 561.192453 206.835445 
L 562.211321 206.835445 
L 562.415094 208.720245 
L 562.618868 188.587546 
L 562.822642 239.318113 
L 563.026415 260.574821 
L 563.230189 256.161544 
L 563.637736 261.025587 
L 563.841509 227.255718 
L 564.045283 231.302811 
L 564.249057 261.937406 
L 564.45283 259.462823 
L 564.656604 252.726776 
L 564.860377 190.119212 
L 565.064151 187.054392 
L 565.267925 242.011989 
L 565.471698 251.249751 
L 565.675472 250.609604 
L 565.879245 235.207723 
L 566.083019 205.247662 
L 566.286792 154.983478 
L 566.490566 133.840268 
L 566.898113 265.960776 
L 567.101887 274.283203 
L 567.30566 267.692541 
L 567.509434 248.789781 
L 567.916981 256.959653 
L 568.120755 237.811798 
L 568.324528 242.975043 
L 568.528302 231.597442 
L 568.935849 180.8398 
L 569.139623 270.71944 
L 569.343396 274.114403 
L 569.54717 274.114403 
L 569.750943 274.659843 
L 569.954717 230.830809 
L 570.158491 229.312047 
L 570.362264 229.369021 
L 570.769811 236.187732 
L 570.973585 243.215371 
L 571.381132 213.532875 
L 571.992453 255.775301 
L 572.4 211.598157 
L 572.603774 226.074145 
L 572.807547 231.842023 
L 573.011321 224.810351 
L 573.215094 221.824236 
L 573.622642 245.993943 
L 573.826415 248.900562 
L 574.030189 249.302125 
L 574.233962 231.420187 
L 574.437736 226.432065 
L 574.641509 244.858821 
L 575.049057 219.123605 
L 575.25283 209.714589 
L 575.456604 213.154774 
L 575.660377 197.502206 
L 575.864151 226.907466 
L 576.067925 232.370993 
L 576.475472 253.0706 
L 576.679245 249.572564 
L 576.883019 278.831753 
L 577.086792 286.916472 
L 577.290566 263.374688 
L 577.49434 261.462677 
L 577.698113 266.614413 
L 578.10566 282.080331 
L 578.309434 286.950173 
L 578.513208 302.552007 
L 578.716981 294.326017 
L 578.920755 291.219179 
L 579.328302 279.991561 
L 579.735849 301.525924 
L 580.143396 267.22333 
L 580.34717 282.290259 
L 580.754717 298.861934 
L 581.162264 329.31299 
L 581.569811 246.511145 
L 581.773585 257.180508 
L 581.977358 303.767966 
L 582.181132 298.605879 
L 582.384906 289.781534 
L 582.588679 260.661085 
L 582.792453 263.732093 
L 583.2 337.492185 
L 583.403774 338.281709 
L 583.607547 328.813933 
L 584.015094 286.939147 
L 584.626415 342.10095 
L 584.830189 344.072286 
L 585.237736 323.804374 
L 585.645283 292.979521 
L 585.849057 294.251775 
L 586.05283 272.096034 
L 586.256604 272.096034 
L 586.460377 294.255886 
L 586.664151 302.190334 
L 586.867925 299.473782 
L 587.275472 345.8835 
L 587.683019 248.673919 
L 587.886792 277.118018 
L 588.090566 267.161428 
L 588.498113 327.864174 
L 588.701887 320.201703 
L 588.90566 306.758522 
L 589.109434 330.534002 
L 589.313208 329.126685 
L 589.516981 325.630423 
L 589.924528 289.614622 
L 590.128302 312.175767 
L 590.332075 300.542049 
L 590.535849 309.493692 
L 590.739623 326.131141 
L 590.943396 327.866877 
L 591.350943 313.533756 
L 591.554717 298.701574 
L 591.758491 296.949818 
L 591.962264 288.741612 
L 592.166038 290.163022 
L 592.369811 296.641599 
L 592.573585 293.2877 
L 592.777358 266.982358 
L 592.981132 256.791281 
L 593.184906 271.246577 
L 593.388679 275.978079 
L 594 237.255847 
L 594.203774 247.786235 
L 594.611321 290.076782 
L 595.018868 278.593046 
L 595.222642 260.227528 
L 595.426415 252.80084 
L 595.630189 253.49415 
L 596.037736 291.369025 
L 596.241509 291.732159 
L 596.445283 268.879713 
L 596.649057 281.605939 
L 596.85283 314.643343 
L 597.056604 328.022273 
L 597.260377 325.312742 
L 597.464151 316.00503 
L 597.667925 315.600733 
L 597.871698 321.58871 
L 598.075472 313.599511 
L 598.483019 285.263833 
L 598.686792 289.718701 
L 598.890566 285.49576 
L 599.09434 326.648845 
L 599.298113 322.067656 
L 600.113208 245.941641 
L 600.316981 265.194994 
L 600.520755 250.820489 
L 600.724528 225.515531 
L 600.928302 214.148375 
L 601.132075 268.081723 
L 601.335849 258.703621 
L 601.539623 303.717144 
L 601.743396 296.116924 
L 601.94717 266.466776 
L 602.150943 261.544786 
L 602.354717 242.7167 
L 602.558491 275.139261 
L 602.762264 288.915773 
L 603.169811 273.295139 
L 603.373585 270.670717 
L 603.577358 274.772406 
L 603.781132 248.639583 
L 603.984906 251.850961 
L 604.188679 268.861377 
L 604.596226 226.921272 
L 605.003774 265.725481 
L 605.207547 271.971714 
L 605.411321 246.639328 
L 605.615094 265.819076 
L 605.818868 258.949429 
L 606.022642 306.558349 
L 606.226415 300.892854 
L 606.633962 255.722435 
L 606.837736 254.743871 
L 607.041509 279.746532 
L 607.245283 290.197399 
L 607.449057 263.993307 
L 607.65283 276.745491 
L 607.856604 262.970561 
L 608.060377 260.043696 
L 608.264151 248.054697 
L 608.467925 251.270906 
L 608.671698 236.265183 
L 608.875472 261.664099 
L 609.283019 274.461887 
L 609.486792 264.939779 
L 609.690566 262.605407 
L 609.89434 245.725556 
L 610.098113 216.254499 
L 612.339623 216.254499 
L 612.543396 257.886603 
L 613.154717 279.518738 
L 613.358491 280.780461 
L 613.562264 280.145566 
L 613.766038 286.616672 
L 614.377358 223.463643 
L 614.581132 224.327974 
L 614.988679 267.209959 
L 615.192453 274.369431 
L 615.396226 275.865599 
L 615.6 261.804304 
L 615.803774 265.995274 
L 616.007547 264.92205 
L 616.415094 282.632399 
L 616.618868 281.267991 
L 616.822642 261.312109 
L 617.026415 257.361703 
L 617.230189 245.668656 
L 617.433962 265.316574 
L 617.637736 265.054652 
L 617.841509 256.479599 
L 618.045283 274.234974 
L 618.249057 268.488531 
L 618.45283 242.977314 
L 618.656604 254.883425 
L 618.860377 256.385288 
L 619.064151 268.434978 
L 619.675472 235.31384 
L 619.879245 226.75902 
L 620.490566 147.282396 
L 620.69434 214.654221 
L 620.898113 227.162226 
L 621.101887 208.936563 
L 621.30566 220.230951 
L 621.509434 243.838872 
L 621.713208 249.363975 
L 621.916981 250.628361 
L 622.120755 227.306774 
L 622.324528 251.137393 
L 622.732075 266.894759 
L 622.935849 269.057783 
L 623.139623 263.764536 
L 623.343396 264.36494 
L 623.954717 258.781626 
L 624.158491 245.289735 
L 624.362264 210.554407 
L 624.566038 221.178432 
L 624.769811 256.84279 
L 625.177358 249.831913 
L 625.381132 253.933153 
L 625.584906 288.680297 
L 627.011321 288.680297 
L 627.215094 237.075699 
L 627.418868 216.271563 
L 627.622642 239.525936 
L 627.826415 236.586105 
L 628.030189 228.154763 
L 628.233962 243.996179 
L 628.437736 240.604119 
L 628.641509 257.179185 
L 628.845283 262.451844 
L 629.049057 249.939795 
L 629.25283 254.003845 
L 629.456604 243.77795 
L 632.309434 243.77795 
L 632.513208 242.089619 
L 632.716981 225.4854 
L 633.124528 235.704894 
L 633.328302 218.294807 
L 633.532075 216.565601 
L 633.735849 225.700762 
L 633.939623 244.888132 
L 634.143396 249.115751 
L 634.34717 246.631072 
L 634.550943 221.737857 
L 634.754717 210.743917 
L 635.162264 249.994394 
L 635.366038 250.329165 
L 635.977358 66.96 
L 636.181132 141.187875 
L 636.384906 171.010646 
L 636.588679 171.713337 
L 636.792453 202.436634 
L 636.996226 184.633389 
L 637.2 184.633389 
L 637.403774 200.848841 
L 637.607547 162.298227 
L 637.811321 158.006355 
L 638.422642 229.866519 
L 638.626415 231.115234 
L 638.830189 234.908893 
L 639.441509 218.258399 
L 639.645283 226.071111 
L 639.849057 246.16148 
L 640.05283 242.170654 
L 640.460377 211.303783 
L 640.664151 202.98912 
L 640.867925 170.599849 
L 641.071698 162.885527 
L 641.275472 222.137614 
L 641.479245 244.459526 
L 641.683019 228.046571 
L 641.886792 231.629181 
L 642.090566 223.578731 
L 642.29434 249.325675 
L 642.498113 241.73833 
L 642.701887 239.004754 
L 642.90566 215.735783 
L 643.109434 233.665642 
L 643.313208 216.669567 
L 643.516981 178.343466 
L 643.720755 235.698631 
L 644.128302 257.844662 
L 644.332075 251.772182 
L 644.535849 208.552048 
L 644.943396 179.47616 
L 645.350943 285.240724 
L 645.554717 252.540449 
L 645.758491 268.949753 
L 645.962264 259.996133 
L 646.166038 236.873364 
L 646.573585 131.284234 
L 646.981132 165.751083 
L 647.388679 276.242411 
L 647.592453 281.851483 
L 648.203774 251.06528 
L 648.407547 258.573731 
L 648.611321 240.796368 
L 649.018868 291.382669 
L 649.222642 272.929012 
L 649.426415 266.661765 
L 649.833962 233.565126 
L 650.241509 263.777674 
L 650.445283 262.088931 
L 650.649057 245.006212 
L 650.85283 265.572686 
L 651.056604 253.234422 
L 651.260377 272.788982 
L 651.464151 275.577453 
L 651.667925 285.87672 
L 651.871698 275.932839 
L 652.075472 244.026857 
L 652.279245 237.566403 
L 652.483019 226.671648 
L 652.686792 224.597756 
L 652.890566 229.664068 
L 653.09434 220.349953 
L 653.298113 235.902494 
L 653.501887 284.317146 
L 653.70566 285.83929 
L 654.113208 268.661266 
L 654.316981 288.377542 
L 654.520755 280.576386 
L 654.724528 288.441874 
L 654.928302 270.392279 
L 655.132075 270.092728 
L 655.335849 254.299815 
L 655.539623 264.128023 
L 655.743396 282.205256 
L 655.94717 272.420728 
L 656.150943 276.73587 
L 656.354717 269.608219 
L 656.558491 286.636175 
L 656.762264 283.390984 
L 656.966038 276.231711 
L 657.169811 282.589638 
L 657.373585 254.459939 
L 657.577358 263.716746 
L 657.781132 287.686283 
L 658.188679 306.405511 
L 658.392453 306.290487 
L 658.596226 325.146619 
L 658.8 314.773548 
L 659.003774 292.042999 
L 659.207547 288.91852 
L 659.411321 302.238603 
L 659.615094 303.121473 
L 659.818868 287.192776 
L 660.022642 287.49811 
L 660.226415 291.452858 
L 660.633962 284.150181 
L 660.837736 270.048297 
L 661.041509 278.028496 
L 661.245283 255.572322 
L 661.449057 259.684631 
L 661.856604 306.372075 
L 662.264151 265.832975 
L 662.467925 281.004109 
L 662.671698 276.67661 
L 662.875472 286.18239 
L 663.079245 285.970984 
L 663.283019 290.665592 
L 663.690566 265.691759 
L 664.098113 291.710996 
L 664.50566 311.812558 
L 664.709434 304.105195 
L 664.913208 282.721838 
L 665.320755 306.884753 
L 665.524528 306.644495 
L 665.728302 313.806541 
L 666.339623 260.770211 
L 666.543396 268.465373 
L 666.74717 264.601009 
L 666.950943 237.105917 
L 667.562264 212.356206 
L 667.766038 224.972436 
L 668.988679 224.972436 
L 669.192453 289.987253 
L 669.396226 274.575671 
L 669.6 289.305646 
L 669.803774 282.860667 
L 670.007547 287.619483 
L 670.211321 282.436785 
L 670.618868 337.151861 
L 670.822642 339.660196 
L 671.026415 324.811223 
L 671.230189 326.706976 
L 671.433962 338.143613 
L 671.841509 312.330852 
L 672.045283 320.43462 
L 672.249057 318.959688 
L 672.45283 313.323655 
L 672.656604 292.521104 
L 672.860377 323.563204 
L 673.064151 324.605542 
L 673.267925 318.677538 
L 673.879245 247.815806 
L 674.286792 296.069608 
L 674.490566 293.432386 
L 674.898113 259.682942 
L 675.101887 261.720658 
L 675.30566 298.753734 
L 675.509434 309.415648 
L 675.713208 306.529308 
L 675.916981 312.725316 
L 676.120755 308.99708 
L 676.324528 275.270159 
L 676.528302 281.803081 
L 676.732075 245.305142 
L 677.139623 297.947912 
L 677.54717 310.891874 
L 677.750943 287.535049 
L 677.954717 246.817289 
L 678.566038 203.380313 
L 678.769811 270.964967 
L 678.973585 260.617836 
L 679.177358 270.537735 
L 679.381132 286.245477 
L 679.788679 270.440874 
L 679.992453 252.077464 
L 680.196226 251.518519 
L 680.4 266.461727 
L 680.603774 249.565951 
L 680.807547 262.656384 
L 681.011321 283.286515 
L 681.215094 288.715677 
L 681.418868 259.389139 
L 681.622642 252.585136 
L 682.030189 309.464618 
L 682.233962 292.591381 
L 682.437736 296.075645 
L 683.049057 249.253354 
L 683.25283 248.204947 
L 683.456604 253.905889 
L 683.660377 281.90574 
L 683.864151 285.667161 
L 684.067925 286.986628 
L 684.271698 258.614275 
L 684.679245 270.41524 
L 684.883019 280.124813 
L 685.086792 280.131064 
L 685.290566 276.273532 
L 685.49434 287.058394 
L 685.698113 275.972458 
L 685.901887 285.311038 
L 686.309434 253.980116 
L 686.513208 275.538158 
L 686.716981 257.392371 
L 686.920755 257.406399 
L 687.124528 235.524433 
L 687.328302 233.064452 
L 687.532075 267.305677 
L 687.735849 277.242993 
L 688.143396 262.00419 
L 688.34717 264.990432 
L 688.550943 277.709234 
L 688.754717 277.376125 
L 688.958491 277.648344 
L 689.162264 272.554754 
L 689.366038 283.316276 
L 689.569811 274.172906 
L 689.773585 272.098378 
L 689.977358 262.634188 
L 690.181132 263.611803 
L 690.384906 244.796943 
L 690.588679 215.351477 
L 690.792453 238.692622 
L 690.996226 283.649537 
L 691.2 275.920189 
L 691.607547 214.389574 
L 692.015094 255.044718 
L 692.218868 255.044718 
L 692.422642 283.959557 
L 692.626415 263.978522 
L 692.830189 256.251714 
L 693.033962 256.445443 
L 693.237736 254.497135 
L 693.645283 224.783509 
L 693.849057 220.308127 
L 694.05283 276.318369 
L 694.460377 257.402123 
L 694.664151 239.663445 
L 695.071698 272.560354 
L 695.275472 273.83641 
L 695.683019 246.198464 
L 695.886792 191.337924 
L 696.090566 254.829807 
L 697.109434 254.829807 
L 697.313208 244.281254 
L 697.516981 258.101495 
L 697.720755 254.368264 
L 697.924528 244.348081 
L 698.128302 250.353798 
L 698.332075 243.14973 
L 698.535849 208.133976 
L 698.739623 237.872536 
L 699.758491 237.872536 
L 699.962264 257.603783 
L 700.166038 249.200081 
L 700.369811 251.472446 
L 700.573585 258.427295 
L 700.777358 247.935476 
L 700.981132 250.121539 
L 701.388679 227.934874 
L 701.796226 229.632059 
L 702 239.281811 
L 702.407547 248.138161 
L 702.611321 265.342441 
L 702.815094 270.451699 
L 703.018868 270.00265 
L 703.222642 274.098191 
L 703.426415 271.253251 
L 703.426415 271.253251 
" clip-path="url(#pa270681c45)" style="fill: none; stroke: #3d9970; stroke-width: 0.5; stroke-linecap: square"/>
   </g>
   <g id="line2d_45">
    <path d="M 703.833962 271.083347 
L 704.037736 255.899008 
L 704.241509 293.653478 
L 704.649057 291.348581 
L 705.056604 290.656446 
L 705.464151 290.448606 
L 706.279245 290.367452 
L 706.890566 290.360732 
L 707.09434 248.200175 
L 707.298113 231.595628 
L 707.70566 241.814844 
L 707.909434 224.404703 
L 708.113208 222.675467 
L 708.316981 231.810612 
L 708.520755 250.997973 
L 708.724528 255.225588 
L 708.928302 252.740906 
L 709.132075 227.84769 
L 709.335849 216.853748 
L 709.743396 256.104225 
L 709.94717 256.438996 
L 710.558491 73.305173 
L 710.762264 147.297706 
L 710.966038 177.120477 
L 711.169811 178.04066 
L 711.373585 208.725278 
L 711.577358 190.74322 
L 711.781132 190.74322 
L 711.984906 206.958672 
L 712.188679 168.606742 
L 712.392453 164.017985 
L 713.003774 235.97635 
L 713.207547 237.225064 
L 713.411321 241.085755 
L 714.022642 224.36823 
L 714.226415 232.212446 
L 714.430189 252.338351 
L 714.633962 248.122203 
L 715.041509 217.413614 
L 715.245283 208.844585 
L 715.449057 176.443931 
L 715.65283 168.870298 
L 715.856604 228.247445 
L 716.060377 250.613961 
L 716.264151 234.156401 
L 716.467925 237.827978 
L 716.671698 229.688562 
L 716.875472 255.435505 
L 717.079245 247.721537 
L 717.283019 246.905795 
L 717.486792 221.845614 
L 717.690566 239.539454 
L 717.89434 222.59858 
L 718.098113 183.688236 
L 718.301887 241.634763 
L 718.709434 263.954493 
L 718.913208 257.882013 
L 719.116981 214.661878 
L 719.524528 185.885827 
L 719.932075 291.25748 
L 720.135849 258.65028 
L 720.339623 275.115005 
L 720.543396 265.764393 
L 720.74717 242.916449 
L 721.154717 136.897117 
L 721.562264 171.860914 
L 721.969811 282.686145 
L 722.173585 287.676862 
L 722.784906 257.175111 
L 722.988679 264.819406 
L 723.192453 246.906198 
L 723.6 297.695214 
L 723.803774 278.945194 
L 724.007547 272.857187 
L 724.415094 239.629261 
L 724.822642 269.887505 
L 725.026415 268.119176 
L 725.230189 250.867073 
L 725.433962 271.682517 
L 725.637736 259.344253 
L 725.841509 278.977669 
L 726.045283 281.687284 
L 726.249057 292.015302 
L 726.45283 282.799504 
L 726.656604 250.136688 
L 726.860377 243.676233 
L 727.064151 232.58415 
L 727.267925 230.620699 
L 727.471698 235.786865 
L 727.675472 226.459783 
L 727.879245 242.012324 
L 728.083019 290.426976 
L 728.286792 291.780384 
L 728.69434 274.771097 
L 728.898113 294.487372 
L 729.101887 286.61417 
L 729.30566 294.553428 
L 729.509434 276.50211 
L 729.713208 275.718049 
L 729.916981 260.409646 
L 730.120755 270.237854 
L 730.324528 288.518941 
L 730.528302 279.637117 
L 730.732075 282.8457 
L 730.935849 276.653273 
L 731.139623 293.686197 
L 731.343396 289.500814 
L 731.54717 282.452079 
L 731.750943 288.699469 
L 731.954717 260.56977 
L 732.158491 269.826576 
L 732.566038 304.668921 
L 732.769811 313.02405 
L 732.973585 312.400317 
L 733.177358 331.450668 
L 733.381132 320.804068 
L 733.584906 297.941026 
L 733.788679 295.02835 
L 733.992453 308.348433 
L 734.196226 309.231303 
L 734.4 293.331273 
L 734.603774 293.60794 
L 734.807547 297.466722 
L 735.215094 290.45728 
L 735.418868 275.6895 
L 735.622642 283.813395 
L 735.826415 261.647552 
L 736.030189 265.54483 
L 736.437736 312.752364 
L 736.845283 273.949739 
L 737.049057 287.113939 
L 737.25283 282.78644 
L 737.456604 292.29222 
L 737.660377 291.935061 
L 737.864151 296.775422 
L 738.271698 271.801589 
L 738.679245 297.820827 
L 739.086792 317.863752 
L 739.290566 310.98145 
L 739.49434 289.252806 
L 739.901887 311.963636 
L 740.10566 312.754325 
L 740.309434 320.026858 
L 740.920755 266.880042 
L 741.124528 274.575204 
L 741.328302 270.71084 
L 741.532075 243.215748 
L 742.143396 218.466036 
L 742.34717 230.836495 
L 742.550943 290.359409 
L 743.569811 290.359409 
L 743.773585 296.097084 
L 743.977358 280.685502 
L 744.181132 295.415477 
L 744.384906 289.064619 
L 744.588679 293.729314 
L 744.792453 288.546616 
L 745.2 343.21691 
L 745.403774 345.770027 
L 745.607547 330.921054 
L 745.811321 332.816806 
L 746.015094 344.253444 
L 746.422642 318.440682 
L 746.626415 326.55719 
L 746.830189 325.069519 
L 747.033962 319.433485 
L 747.237736 298.630934 
L 747.441509 329.673035 
L 747.645283 330.715372 
L 747.849057 324.787368 
L 748.460377 253.925636 
L 748.867925 302.179439 
L 749.071698 299.606865 
L 749.479245 265.792773 
L 749.683019 267.790889 
L 749.886792 304.863565 
L 750.090566 315.525479 
L 750.29434 312.615287 
L 750.498113 318.835147 
L 750.701887 315.10691 
L 750.90566 281.37999 
L 751.109434 287.912911 
L 751.313208 251.547537 
L 751.720755 304.057743 
L 752.128302 317.001704 
L 752.332075 293.644879 
L 752.535849 252.927119 
L 753.14717 209.490144 
L 753.350943 277.074798 
L 753.554717 266.727667 
L 753.758491 276.564854 
L 753.962264 292.355307 
L 754.369811 276.550705 
L 754.573585 258.21511 
L 754.777358 257.628349 
L 754.981132 272.571558 
L 755.184906 255.675782 
L 755.388679 268.77646 
L 755.592453 289.396346 
L 755.796226 294.593511 
L 756 265.49897 
L 756.203774 258.694967 
L 756.611321 315.573301 
L 756.815094 298.701212 
L 757.018868 302.185475 
L 757.630189 255.687358 
L 757.833962 254.551999 
L 758.037736 260.01572 
L 758.241509 288.015571 
L 758.445283 291.776992 
L 758.649057 293.141793 
L 758.85283 264.724106 
L 759.260377 276.525071 
L 759.464151 286.234644 
L 759.667925 286.240894 
L 759.871698 282.539491 
L 760.075472 293.168224 
L 760.279245 282.082289 
L 760.483019 291.420868 
L 760.890566 260.164789 
L 761.09434 281.762378 
L 761.298113 263.568521 
L 761.501887 263.516229 
L 761.70566 241.697554 
L 761.909434 239.184069 
L 762.113208 273.415508 
L 762.316981 283.352824 
L 762.724528 268.114021 
L 762.928302 271.100262 
L 763.132075 283.819065 
L 763.335849 283.485955 
L 763.539623 283.758174 
L 763.743396 278.664585 
L 763.94717 289.426106 
L 764.150943 280.282737 
L 764.354717 278.208209 
L 764.558491 268.744018 
L 764.762264 269.721634 
L 764.966038 250.906774 
L 765.169811 221.461308 
L 765.373585 244.802452 
L 765.577358 289.759367 
L 765.781132 282.030019 
L 766.188679 220.499404 
L 766.8 290.359409 
L 767.003774 290.069388 
L 767.207547 270.088353 
L 767.411321 262.361545 
L 767.615094 262.555274 
L 767.818868 260.606966 
L 768.226415 230.893339 
L 768.430189 226.417957 
L 768.633962 282.428199 
L 769.041509 263.511953 
L 769.245283 245.773276 
L 769.65283 278.670184 
L 769.856604 279.94624 
L 770.264151 252.308295 
L 770.467925 197.447755 
L 770.875472 290.359409 
L 771.690566 290.359409 
L 771.89434 250.391085 
L 772.098113 264.211326 
L 772.301887 260.478094 
L 772.50566 250.457912 
L 772.709434 256.463629 
L 772.913208 249.25956 
L 773.116981 214.243807 
L 773.320755 243.982367 
L 773.524528 290.359409 
L 774.339623 290.359409 
L 774.543396 263.713613 
L 774.74717 255.309912 
L 774.950943 257.582276 
L 775.154717 264.537126 
L 775.358491 254.045307 
L 775.562264 256.23137 
L 775.969811 234.044704 
L 776.377358 235.74189 
L 776.581132 245.391642 
L 776.988679 254.247992 
L 777.192453 271.452272 
L 777.396226 276.561529 
L 777.6 276.112481 
L 777.6 276.112481 
" clip-path="url(#pa270681c45)" style="fill: none; stroke: #ff6666; stroke-width: 0.5; stroke-linecap: square"/>
   </g>
   <g id="patch_3">
    <path d="M 108 384.48 
L 108 51.84 
" style="fill: none; stroke: #000000; stroke-width: 0.8; stroke-linejoin: miter; stroke-linecap: square"/>
   </g>
   <g id="patch_4">
    <path d="M 777.6 384.48 
L 777.6 51.84 
" style="fill: none; stroke: #000000; stroke-width: 0.8; stroke-linejoin: miter; stroke-linecap: square"/>
   </g>
   <g id="patch_5">
    <path d="M 108 384.48 
L 777.6 384.48 
" style="fill: none; stroke: #000000; stroke-width: 0.8; stroke-linejoin: miter; stroke-linecap: square"/>
   </g>
   <g id="patch_6">
    <path d="M 108 51.84 
L 777.6 51.84 
" style="fill: none; stroke: #000000; stroke-width: 0.8; stroke-linejoin: miter; stroke-linecap: square"/>
   </g>
   <g id="text_17">
    <!-- Forecast of Temperature For Next 365 Days -->
    <g transform="translate(312.413437 45.84)scale(0.12 -0.12)">
     <defs>
      <path id="DejaVuSans-6f" d="M 1959 3097 
Q 1497 3097 1228 2736 
Q 959 2375 959 1747 
Q 959 1119 1226 758 
Q 1494 397 1959 397 
Q 2419 397 2687 759 
Q 2956 1122 2956 1747 
Q 2956 2369 2687 2733 
Q 2419 3097 1959 3097 
z
M 1959 3584 
Q 2709 3584 3137 3096 
Q 3566 2609 3566 1747 
Q 3566 888 3137 398 
Q 2709 -91 1959 -91 
Q 1206 -91 779 398 
Q 353 888 353 1747 
Q 353 2609 779 3096 
Q 1206 3584 1959 3584 
z
" transform="scale(0.015625)"/>
      <path id="DejaVuSans-63" d="M 3122 3366 
L 3122 2828 
Q 2878 2963 2633 3030 
Q 2388 3097 2138 3097 
Q 1578 3097 1268 2742 
Q 959 2388 959 1747 
Q 959 1106 1268 751 
Q 1578 397 2138 397 
Q 2388 397 2633 464 
Q 2878 531 3122 666 
L 3122 134 
Q 2881 22 2623 -34 
Q 2366 -91 2075 -91 
Q 1284 -91 818 406 
Q 353 903 353 1747 
Q 353 2603 823 3093 
Q 1294 3584 2113 3584 
Q 2378 3584 2631 3529 
Q 2884 3475 3122 3366 
z
" transform="scale(0.015625)"/>
      <path id="DejaVuSans-73" d="M 2834 3397 
L 2834 2853 
Q 2591 2978 2328 3040 
Q 2066 3103 1784 3103 
Q 1356 3103 1142 2972 
Q 928 2841 928 2578 
Q 928 2378 1081 2264 
Q 1234 2150 1697 2047 
L 1894 2003 
Q 2506 1872 2764 1633 
Q 3022 1394 3022 966 
Q 3022 478 2636 193 
Q 2250 -91 1575 -91 
Q 1294 -91 989 -36 
Q 684 19 347 128 
L 347 722 
Q 666 556 975 473 
Q 1284 391 1588 391 
Q 1994 391 2212 530 
Q 2431 669 2431 922 
Q 2431 1156 2273 1281 
Q 2116 1406 1581 1522 
L 1381 1569 
Q 847 1681 609 1914 
Q 372 2147 372 2553 
Q 372 3047 722 3315 
Q 1072 3584 1716 3584 
Q 2034 3584 2315 3537 
Q 2597 3491 2834 3397 
z
" transform="scale(0.015625)"/>
      <path id="DejaVuSans-66" d="M 2375 4863 
L 2375 4384 
L 1825 4384 
Q 1516 4384 1395 4259 
Q 1275 4134 1275 3809 
L 1275 3500 
L 2222 3500 
L 2222 3053 
L 1275 3053 
L 1275 0 
L 697 0 
L 697 3053 
L 147 3053 
L 147 3500 
L 697 3500 
L 697 3744 
Q 697 4328 969 4595 
Q 1241 4863 1831 4863 
L 2375 4863 
z
" transform="scale(0.015625)"/>
      <path id="DejaVuSans-4e" d="M 628 4666 
L 1478 4666 
L 3547 763 
L 3547 4666 
L 4159 4666 
L 4159 0 
L 3309 0 
L 1241 3903 
L 1241 0 
L 628 0 
L 628 4666 
z
" transform="scale(0.015625)"/>
      <path id="DejaVuSans-78" d="M 3513 3500 
L 2247 1797 
L 3578 0 
L 2900 0 
L 1881 1375 
L 863 0 
L 184 0 
L 1544 1831 
L 300 3500 
L 978 3500 
L 1906 2253 
L 2834 3500 
L 3513 3500 
z
" transform="scale(0.015625)"/>
      <path id="DejaVuSans-44" d="M 1259 4147 
L 1259 519 
L 2022 519 
Q 2988 519 3436 956 
Q 3884 1394 3884 2338 
Q 3884 3275 3436 3711 
Q 2988 4147 2022 4147 
L 1259 4147 
z
M 628 4666 
L 1925 4666 
Q 3281 4666 3915 4102 
Q 4550 3538 4550 2338 
Q 4550 1131 3912 565 
Q 3275 0 1925 0 
L 628 0 
L 628 4666 
z
" transform="scale(0.015625)"/>
      <path id="DejaVuSans-79" d="M 2059 -325 
Q 1816 -950 1584 -1140 
Q 1353 -1331 966 -1331 
L 506 -1331 
L 506 -850 
L 844 -850 
Q 1081 -850 1212 -737 
Q 1344 -625 1503 -206 
L 1606 56 
L 191 3500 
L 800 3500 
L 1894 763 
L 2988 3500 
L 3597 3500 
L 2059 -325 
z
" transform="scale(0.015625)"/>
     </defs>
     <use xlink:href="#DejaVuSans-46"/>
     <use xlink:href="#DejaVuSans-6f" x="53.894531"/>
     <use xlink:href="#DejaVuSans-72" x="115.076172"/>
     <use xlink:href="#DejaVuSans-65" x="153.939453"/>
     <use xlink:href="#DejaVuSans-63" x="215.462891"/>
     <use xlink:href="#DejaVuSans-61" x="270.443359"/>
     <use xlink:href="#DejaVuSans-73" x="331.722656"/>
     <use xlink:href="#DejaVuSans-74" x="383.822266"/>
     <use xlink:href="#DejaVuSans-20" x="423.03125"/>
     <use xlink:href="#DejaVuSans-6f" x="454.818359"/>
     <use xlink:href="#DejaVuSans-66" x="516"/>
     <use xlink:href="#DejaVuSans-20" x="551.205078"/>
     <use xlink:href="#DejaVuSans-54" x="582.992188"/>
     <use xlink:href="#DejaVuSans-65" x="627.076172"/>
     <use xlink:href="#DejaVuSans-6d" x="688.599609"/>
     <use xlink:href="#DejaVuSans-70" x="786.011719"/>
     <use xlink:href="#DejaVuSans-65" x="849.488281"/>
     <use xlink:href="#DejaVuSans-72" x="911.011719"/>
     <use xlink:href="#DejaVuSans-61" x="952.125"/>
     <use xlink:href="#DejaVuSans-74" x="1013.404297"/>
     <use xlink:href="#DejaVuSans-75" x="1052.613281"/>
     <use xlink:href="#DejaVuSans-72" x="1115.992188"/>
     <use xlink:href="#DejaVuSans-65" x="1154.855469"/>
     <use xlink:href="#DejaVuSans-20" x="1216.378906"/>
     <use xlink:href="#DejaVuSans-46" x="1248.166016"/>
     <use xlink:href="#DejaVuSans-6f" x="1302.060547"/>
     <use xlink:href="#DejaVuSans-72" x="1363.242188"/>
     <use xlink:href="#DejaVuSans-20" x="1404.355469"/>
     <use xlink:href="#DejaVuSans-4e" x="1436.142578"/>
     <use xlink:href="#DejaVuSans-65" x="1510.947266"/>
     <use xlink:href="#DejaVuSans-78" x="1570.720703"/>
     <use xlink:href="#DejaVuSans-74" x="1629.900391"/>
     <use xlink:href="#DejaVuSans-20" x="1669.109375"/>
     <use xlink:href="#DejaVuSans-33" x="1700.896484"/>
     <use xlink:href="#DejaVuSans-36" x="1764.519531"/>
     <use xlink:href="#DejaVuSans-35" x="1828.142578"/>
     <use xlink:href="#DejaVuSans-20" x="1891.765625"/>
     <use xlink:href="#DejaVuSans-44" x="1923.552734"/>
     <use xlink:href="#DejaVuSans-61" x="2000.554688"/>
     <use xlink:href="#DejaVuSans-79" x="2061.833984"/>
     <use xlink:href="#DejaVuSans-73" x="2121.013672"/>
    </g>
   </g>
   <g id="legend_1">
    <g id="patch_7">
     <path d="M 115 89.19625 
L 187.434375 89.19625 
Q 189.434375 89.19625 189.434375 87.19625 
L 189.434375 58.84 
Q 189.434375 56.84 187.434375 56.84 
L 115 56.84 
Q 113 56.84 113 58.84 
L 113 87.19625 
Q 113 89.19625 115 89.19625 
z
" style="fill: #ffffff; opacity: 0.8; stroke: #cccccc; stroke-linejoin: miter"/>
    </g>
    <g id="line2d_46">
     <path d="M 117 64.938437 
L 127 64.938437 
L 137 64.938437 
" style="fill: none; stroke: #3d9970; stroke-width: 0.5; stroke-linecap: square"/>
    </g>
    <g id="text_18">
     <!-- mean -->
     <g transform="translate(145 68.438437)scale(0.1 -0.1)">
      <use xlink:href="#DejaVuSans-6d"/>
      <use xlink:href="#DejaVuSans-65" x="97.412109"/>
      <use xlink:href="#DejaVuSans-61" x="158.935547"/>
      <use xlink:href="#DejaVuSans-6e" x="220.214844"/>
     </g>
    </g>
    <g id="line2d_47">
     <path d="M 117 79.616562 
L 127 79.616562 
L 137 79.616562 
" style="fill: none; stroke: #ff6666; stroke-width: 0.5; stroke-linecap: square"/>
    </g>
    <g id="text_19">
     <!-- forecast -->
     <g transform="translate(145 83.116562)scale(0.1 -0.1)">
      <use xlink:href="#DejaVuSans-66"/>
      <use xlink:href="#DejaVuSans-6f" x="35.205078"/>
      <use xlink:href="#DejaVuSans-72" x="96.386719"/>
      <use xlink:href="#DejaVuSans-65" x="135.25"/>
      <use xlink:href="#DejaVuSans-63" x="196.773438"/>
      <use xlink:href="#DejaVuSans-61" x="251.753906"/>
      <use xlink:href="#DejaVuSans-73" x="313.033203"/>
      <use xlink:href="#DejaVuSans-74" x="365.132812"/>
     </g>
    </g>
   </g>
  </g>
 </g>
 <defs>
  <clipPath id="pa270681c45">
   <rect x="108" y="51.84" width="669.6" height="332.64"/>
  </clipPath>
 </defs>
</svg>
