<?xml version="1.0" encoding="utf-8" standalone="no"?>
<!DOCTYPE svg PUBLIC "-//W3C//DTD SVG 1.1//EN"
  "http://www.w3.org/Graphics/SVG/1.1/DTD/svg11.dtd">
<svg xmlns:xlink="http://www.w3.org/1999/xlink" width="864pt" height="432pt" viewBox="0 0 864 432" xmlns="http://www.w3.org/2000/svg" version="1.1">
 <metadata>
  <rdf:RDF xmlns:dc="http://purl.org/dc/elements/1.1/" xmlns:cc="http://creativecommons.org/ns#" xmlns:rdf="http://www.w3.org/1999/02/22-rdf-syntax-ns#">
   <cc:Work>
    <dc:type rdf:resource="http://purl.org/dc/dcmitype/StillImage"/>
    <dc:date>2022-06-19T20:34:53.201687</dc:date>
    <dc:format>image/svg+xml</dc:format>
    <dc:creator>
     <cc:Agent>
      <dc:title>Matplotlib v3.5.2, https://matplotlib.org/</dc:title>
     </cc:Agent>
    </dc:creator>
   </cc:Work>
  </rdf:RDF>
 </metadata>
 <defs>
  <style type="text/css">*{stroke-linejoin: round; stroke-linecap: butt}</style>
 </defs>
 <g id="figure_1">
  <g id="patch_1">
   <path d="M 0 432 
L 864 432 
L 864 0 
L 0 0 
z
" style="fill: #ffffff"/>
  </g>
  <g id="axes_1">
   <g id="patch_2">
    <path d="M 108 384.48 
L 777.6 384.48 
L 777.6 51.84 
L 108 51.84 
z
" style="fill: #ffffff"/>
   </g>
   <g id="matplotlib.axis_1">
    <g id="xtick_1">
     <g id="line2d_1">
      <defs>
       <path id="m82528e56cb" d="M 0 0 
L 0 3.5 
" style="stroke: #000000; stroke-width: 0.8"/>
      </defs>
      <g>
       <use xlink:href="#m82528e56cb" x="170.726825" y="384.48" style="stroke: #000000; stroke-width: 0.8"/>
      </g>
     </g>
     <g id="text_1">
      <!-- 2011 -->
      <g transform="translate(158.001825 399.078438)scale(0.1 -0.1)">
       <defs>
        <path id="DejaVuSans-32" d="M 1228 531 
L 3431 531 
L 3431 0 
L 469 0 
L 469 531 
Q 828 903 1448 1529 
Q 2069 2156 2228 2338 
Q 2531 2678 2651 2914 
Q 2772 3150 2772 3378 
Q 2772 3750 2511 3984 
Q 2250 4219 1831 4219 
Q 1534 4219 1204 4116 
Q 875 4013 500 3803 
L 500 4441 
Q 881 4594 1212 4672 
Q 1544 4750 1819 4750 
Q 2544 4750 2975 4387 
Q 3406 4025 3406 3419 
Q 3406 3131 3298 2873 
Q 3191 2616 2906 2266 
Q 2828 2175 2409 1742 
Q 1991 1309 1228 531 
z
" transform="scale(0.015625)"/>
        <path id="DejaVuSans-30" d="M 2034 4250 
Q 1547 4250 1301 3770 
Q 1056 3291 1056 2328 
Q 1056 1369 1301 889 
Q 1547 409 2034 409 
Q 2525 409 2770 889 
Q 3016 1369 3016 2328 
Q 3016 3291 2770 3770 
Q 2525 4250 2034 4250 
z
M 2034 4750 
Q 2819 4750 3233 4129 
Q 3647 3509 3647 2328 
Q 3647 1150 3233 529 
Q 2819 -91 2034 -91 
Q 1250 -91 836 529 
Q 422 1150 422 2328 
Q 422 3509 836 4129 
Q 1250 4750 2034 4750 
z
" transform="scale(0.015625)"/>
        <path id="DejaVuSans-31" d="M 794 531 
L 1825 531 
L 1825 4091 
L 703 3866 
L 703 4441 
L 1819 4666 
L 2450 4666 
L 2450 531 
L 3481 531 
L 3481 0 
L 794 0 
L 794 531 
z
" transform="scale(0.015625)"/>
       </defs>
       <use xlink:href="#DejaVuSans-32"/>
       <use xlink:href="#DejaVuSans-30" x="63.623047"/>
       <use xlink:href="#DejaVuSans-31" x="127.246094"/>
       <use xlink:href="#DejaVuSans-31" x="190.869141"/>
      </g>
     </g>
    </g>
    <g id="xtick_2">
     <g id="line2d_2">
      <g>
       <use xlink:href="#m82528e56cb" x="246.765652" y="384.48" style="stroke: #000000; stroke-width: 0.8"/>
      </g>
     </g>
     <g id="text_2">
      <!-- 2012 -->
      <g transform="translate(234.040652 399.078438)scale(0.1 -0.1)">
       <use xlink:href="#DejaVuSans-32"/>
       <use xlink:href="#DejaVuSans-30" x="63.623047"/>
       <use xlink:href="#DejaVuSans-31" x="127.246094"/>
       <use xlink:href="#DejaVuSans-32" x="190.869141"/>
      </g>
     </g>
    </g>
    <g id="xtick_3">
     <g id="line2d_3">
      <g>
       <use xlink:href="#m82528e56cb" x="323.012806" y="384.48" style="stroke: #000000; stroke-width: 0.8"/>
      </g>
     </g>
     <g id="text_3">
      <!-- 2013 -->
      <g transform="translate(310.287806 399.078438)scale(0.1 -0.1)">
       <defs>
        <path id="DejaVuSans-33" d="M 2597 2516 
Q 3050 2419 3304 2112 
Q 3559 1806 3559 1356 
Q 3559 666 3084 287 
Q 2609 -91 1734 -91 
Q 1441 -91 1130 -33 
Q 819 25 488 141 
L 488 750 
Q 750 597 1062 519 
Q 1375 441 1716 441 
Q 2309 441 2620 675 
Q 2931 909 2931 1356 
Q 2931 1769 2642 2001 
Q 2353 2234 1838 2234 
L 1294 2234 
L 1294 2753 
L 1863 2753 
Q 2328 2753 2575 2939 
Q 2822 3125 2822 3475 
Q 2822 3834 2567 4026 
Q 2313 4219 1838 4219 
Q 1578 4219 1281 4162 
Q 984 4106 628 3988 
L 628 4550 
Q 988 4650 1302 4700 
Q 1616 4750 1894 4750 
Q 2613 4750 3031 4423 
Q 3450 4097 3450 3541 
Q 3450 3153 3228 2886 
Q 3006 2619 2597 2516 
z
" transform="scale(0.015625)"/>
       </defs>
       <use xlink:href="#DejaVuSans-32"/>
       <use xlink:href="#DejaVuSans-30" x="63.623047"/>
       <use xlink:href="#DejaVuSans-31" x="127.246094"/>
       <use xlink:href="#DejaVuSans-33" x="190.869141"/>
      </g>
     </g>
    </g>
    <g id="xtick_4">
     <g id="line2d_4">
      <g>
       <use xlink:href="#m82528e56cb" x="399.051633" y="384.48" style="stroke: #000000; stroke-width: 0.8"/>
      </g>
     </g>
     <g id="text_4">
      <!-- 2014 -->
      <g transform="translate(386.326633 399.078438)scale(0.1 -0.1)">
       <defs>
        <path id="DejaVuSans-34" d="M 2419 4116 
L 825 1625 
L 2419 1625 
L 2419 4116 
z
M 2253 4666 
L 3047 4666 
L 3047 1625 
L 3713 1625 
L 3713 1100 
L 3047 1100 
L 3047 0 
L 2419 0 
L 2419 1100 
L 313 1100 
L 313 1709 
L 2253 4666 
z
" transform="scale(0.015625)"/>
       </defs>
       <use xlink:href="#DejaVuSans-32"/>
       <use xlink:href="#DejaVuSans-30" x="63.623047"/>
       <use xlink:href="#DejaVuSans-31" x="127.246094"/>
       <use xlink:href="#DejaVuSans-34" x="190.869141"/>
      </g>
     </g>
    </g>
    <g id="xtick_5">
     <g id="line2d_5">
      <g>
       <use xlink:href="#m82528e56cb" x="475.090461" y="384.48" style="stroke: #000000; stroke-width: 0.8"/>
      </g>
     </g>
     <g id="text_5">
      <!-- 2015 -->
      <g transform="translate(462.365461 399.078438)scale(0.1 -0.1)">
       <defs>
        <path id="DejaVuSans-35" d="M 691 4666 
L 3169 4666 
L 3169 4134 
L 1269 4134 
L 1269 2991 
Q 1406 3038 1543 3061 
Q 1681 3084 1819 3084 
Q 2600 3084 3056 2656 
Q 3513 2228 3513 1497 
Q 3513 744 3044 326 
Q 2575 -91 1722 -91 
Q 1428 -91 1123 -41 
Q 819 9 494 109 
L 494 744 
Q 775 591 1075 516 
Q 1375 441 1709 441 
Q 2250 441 2565 725 
Q 2881 1009 2881 1497 
Q 2881 1984 2565 2268 
Q 2250 2553 1709 2553 
Q 1456 2553 1204 2497 
Q 953 2441 691 2322 
L 691 4666 
z
" transform="scale(0.015625)"/>
       </defs>
       <use xlink:href="#DejaVuSans-32"/>
       <use xlink:href="#DejaVuSans-30" x="63.623047"/>
       <use xlink:href="#DejaVuSans-31" x="127.246094"/>
       <use xlink:href="#DejaVuSans-35" x="190.869141"/>
      </g>
     </g>
    </g>
    <g id="xtick_6">
     <g id="line2d_6">
      <g>
       <use xlink:href="#m82528e56cb" x="551.129289" y="384.48" style="stroke: #000000; stroke-width: 0.8"/>
      </g>
     </g>
     <g id="text_6">
      <!-- 2016 -->
      <g transform="translate(538.404289 399.078438)scale(0.1 -0.1)">
       <defs>
        <path id="DejaVuSans-36" d="M 2113 2584 
Q 1688 2584 1439 2293 
Q 1191 2003 1191 1497 
Q 1191 994 1439 701 
Q 1688 409 2113 409 
Q 2538 409 2786 701 
Q 3034 994 3034 1497 
Q 3034 2003 2786 2293 
Q 2538 2584 2113 2584 
z
M 3366 4563 
L 3366 3988 
Q 3128 4100 2886 4159 
Q 2644 4219 2406 4219 
Q 1781 4219 1451 3797 
Q 1122 3375 1075 2522 
Q 1259 2794 1537 2939 
Q 1816 3084 2150 3084 
Q 2853 3084 3261 2657 
Q 3669 2231 3669 1497 
Q 3669 778 3244 343 
Q 2819 -91 2113 -91 
Q 1303 -91 875 529 
Q 447 1150 447 2328 
Q 447 3434 972 4092 
Q 1497 4750 2381 4750 
Q 2619 4750 2861 4703 
Q 3103 4656 3366 4563 
z
" transform="scale(0.015625)"/>
       </defs>
       <use xlink:href="#DejaVuSans-32"/>
       <use xlink:href="#DejaVuSans-30" x="63.623047"/>
       <use xlink:href="#DejaVuSans-31" x="127.246094"/>
       <use xlink:href="#DejaVuSans-36" x="190.869141"/>
      </g>
     </g>
    </g>
    <g id="xtick_7">
     <g id="line2d_7">
      <g>
       <use xlink:href="#m82528e56cb" x="627.376442" y="384.48" style="stroke: #000000; stroke-width: 0.8"/>
      </g>
     </g>
     <g id="text_7">
      <!-- 2017 -->
      <g transform="translate(614.651442 399.078438)scale(0.1 -0.1)">
       <defs>
        <path id="DejaVuSans-37" d="M 525 4666 
L 3525 4666 
L 3525 4397 
L 1831 0 
L 1172 0 
L 2766 4134 
L 525 4134 
L 525 4666 
z
" transform="scale(0.015625)"/>
       </defs>
       <use xlink:href="#DejaVuSans-32"/>
       <use xlink:href="#DejaVuSans-30" x="63.623047"/>
       <use xlink:href="#DejaVuSans-31" x="127.246094"/>
       <use xlink:href="#DejaVuSans-37" x="190.869141"/>
      </g>
     </g>
    </g>
    <g id="xtick_8">
     <g id="line2d_8">
      <g>
       <use xlink:href="#m82528e56cb" x="703.41527" y="384.48" style="stroke: #000000; stroke-width: 0.8"/>
      </g>
     </g>
     <g id="text_8">
      <!-- 2018 -->
      <g transform="translate(690.69027 399.078438)scale(0.1 -0.1)">
       <defs>
        <path id="DejaVuSans-38" d="M 2034 2216 
Q 1584 2216 1326 1975 
Q 1069 1734 1069 1313 
Q 1069 891 1326 650 
Q 1584 409 2034 409 
Q 2484 409 2743 651 
Q 3003 894 3003 1313 
Q 3003 1734 2745 1975 
Q 2488 2216 2034 2216 
z
M 1403 2484 
Q 997 2584 770 2862 
Q 544 3141 544 3541 
Q 544 4100 942 4425 
Q 1341 4750 2034 4750 
Q 2731 4750 3128 4425 
Q 3525 4100 3525 3541 
Q 3525 3141 3298 2862 
Q 3072 2584 2669 2484 
Q 3125 2378 3379 2068 
Q 3634 1759 3634 1313 
Q 3634 634 3220 271 
Q 2806 -91 2034 -91 
Q 1263 -91 848 271 
Q 434 634 434 1313 
Q 434 1759 690 2068 
Q 947 2378 1403 2484 
z
M 1172 3481 
Q 1172 3119 1398 2916 
Q 1625 2713 2034 2713 
Q 2441 2713 2670 2916 
Q 2900 3119 2900 3481 
Q 2900 3844 2670 4047 
Q 2441 4250 2034 4250 
Q 1625 4250 1398 4047 
Q 1172 3844 1172 3481 
z
" transform="scale(0.015625)"/>
       </defs>
       <use xlink:href="#DejaVuSans-32"/>
       <use xlink:href="#DejaVuSans-30" x="63.623047"/>
       <use xlink:href="#DejaVuSans-31" x="127.246094"/>
       <use xlink:href="#DejaVuSans-38" x="190.869141"/>
      </g>
     </g>
    </g>
    <g id="text_9">
     <!-- Time -->
     <g transform="translate(430.566406 412.756563)scale(0.1 -0.1)">
      <defs>
       <path id="DejaVuSans-54" d="M -19 4666 
L 3928 4666 
L 3928 4134 
L 2272 4134 
L 2272 0 
L 1638 0 
L 1638 4134 
L -19 4134 
L -19 4666 
z
" transform="scale(0.015625)"/>
       <path id="DejaVuSans-69" d="M 603 3500 
L 1178 3500 
L 1178 0 
L 603 0 
L 603 3500 
z
M 603 4863 
L 1178 4863 
L 1178 4134 
L 603 4134 
L 603 4863 
z
" transform="scale(0.015625)"/>
       <path id="DejaVuSans-6d" d="M 3328 2828 
Q 3544 3216 3844 3400 
Q 4144 3584 4550 3584 
Q 5097 3584 5394 3201 
Q 5691 2819 5691 2113 
L 5691 0 
L 5113 0 
L 5113 2094 
Q 5113 2597 4934 2840 
Q 4756 3084 4391 3084 
Q 3944 3084 3684 2787 
Q 3425 2491 3425 1978 
L 3425 0 
L 2847 0 
L 2847 2094 
Q 2847 2600 2669 2842 
Q 2491 3084 2119 3084 
Q 1678 3084 1418 2786 
Q 1159 2488 1159 1978 
L 1159 0 
L 581 0 
L 581 3500 
L 1159 3500 
L 1159 2956 
Q 1356 3278 1631 3431 
Q 1906 3584 2284 3584 
Q 2666 3584 2933 3390 
Q 3200 3197 3328 2828 
z
" transform="scale(0.015625)"/>
       <path id="DejaVuSans-65" d="M 3597 1894 
L 3597 1613 
L 953 1613 
Q 991 1019 1311 708 
Q 1631 397 2203 397 
Q 2534 397 2845 478 
Q 3156 559 3463 722 
L 3463 178 
Q 3153 47 2828 -22 
Q 2503 -91 2169 -91 
Q 1331 -91 842 396 
Q 353 884 353 1716 
Q 353 2575 817 3079 
Q 1281 3584 2069 3584 
Q 2775 3584 3186 3129 
Q 3597 2675 3597 1894 
z
M 3022 2063 
Q 3016 2534 2758 2815 
Q 2500 3097 2075 3097 
Q 1594 3097 1305 2825 
Q 1016 2553 972 2059 
L 3022 2063 
z
" transform="scale(0.015625)"/>
      </defs>
      <use xlink:href="#DejaVuSans-54"/>
      <use xlink:href="#DejaVuSans-69" x="57.958984"/>
      <use xlink:href="#DejaVuSans-6d" x="85.742188"/>
      <use xlink:href="#DejaVuSans-65" x="183.154297"/>
     </g>
    </g>
   </g>
   <g id="matplotlib.axis_2">
    <g id="ytick_1">
     <g id="line2d_9">
      <defs>
       <path id="m7640c8c1ae" d="M 0 0 
L -3.5 0 
" style="stroke: #000000; stroke-width: 0.8"/>
      </defs>
      <g>
       <use xlink:href="#m7640c8c1ae" x="108" y="363.013381" style="stroke: #000000; stroke-width: 0.8"/>
      </g>
     </g>
     <g id="text_10">
      <!-- −20 -->
      <g transform="translate(79.895313 366.8126)scale(0.1 -0.1)">
       <defs>
        <path id="DejaVuSans-2212" d="M 678 2272 
L 4684 2272 
L 4684 1741 
L 678 1741 
L 678 2272 
z
" transform="scale(0.015625)"/>
       </defs>
       <use xlink:href="#DejaVuSans-2212"/>
       <use xlink:href="#DejaVuSans-32" x="83.789062"/>
       <use xlink:href="#DejaVuSans-30" x="147.412109"/>
      </g>
     </g>
    </g>
    <g id="ytick_2">
     <g id="line2d_10">
      <g>
       <use xlink:href="#m7640c8c1ae" x="108" y="324.792396" style="stroke: #000000; stroke-width: 0.8"/>
      </g>
     </g>
     <g id="text_11">
      <!-- −10 -->
      <g transform="translate(79.895313 328.591615)scale(0.1 -0.1)">
       <use xlink:href="#DejaVuSans-2212"/>
       <use xlink:href="#DejaVuSans-31" x="83.789062"/>
       <use xlink:href="#DejaVuSans-30" x="147.412109"/>
      </g>
     </g>
    </g>
    <g id="ytick_3">
     <g id="line2d_11">
      <g>
       <use xlink:href="#m7640c8c1ae" x="108" y="286.571411" style="stroke: #000000; stroke-width: 0.8"/>
      </g>
     </g>
     <g id="text_12">
      <!-- 0 -->
      <g transform="translate(94.6375 290.37063)scale(0.1 -0.1)">
       <use xlink:href="#DejaVuSans-30"/>
      </g>
     </g>
    </g>
    <g id="ytick_4">
     <g id="line2d_12">
      <g>
       <use xlink:href="#m7640c8c1ae" x="108" y="248.350426" style="stroke: #000000; stroke-width: 0.8"/>
      </g>
     </g>
     <g id="text_13">
      <!-- 10 -->
      <g transform="translate(88.275 252.149644)scale(0.1 -0.1)">
       <use xlink:href="#DejaVuSans-31"/>
       <use xlink:href="#DejaVuSans-30" x="63.623047"/>
      </g>
     </g>
    </g>
    <g id="ytick_5">
     <g id="line2d_13">
      <g>
       <use xlink:href="#m7640c8c1ae" x="108" y="210.12944" style="stroke: #000000; stroke-width: 0.8"/>
      </g>
     </g>
     <g id="text_14">
      <!-- 20 -->
      <g transform="translate(88.275 213.928659)scale(0.1 -0.1)">
       <use xlink:href="#DejaVuSans-32"/>
       <use xlink:href="#DejaVuSans-30" x="63.623047"/>
      </g>
     </g>
    </g>
    <g id="ytick_6">
     <g id="line2d_14">
      <g>
       <use xlink:href="#m7640c8c1ae" x="108" y="171.908455" style="stroke: #000000; stroke-width: 0.8"/>
      </g>
     </g>
     <g id="text_15">
      <!-- 30 -->
      <g transform="translate(88.275 175.707674)scale(0.1 -0.1)">
       <use xlink:href="#DejaVuSans-33"/>
       <use xlink:href="#DejaVuSans-30" x="63.623047"/>
      </g>
     </g>
    </g>
    <g id="ytick_7">
     <g id="line2d_15">
      <g>
       <use xlink:href="#m7640c8c1ae" x="108" y="133.68747" style="stroke: #000000; stroke-width: 0.8"/>
      </g>
     </g>
     <g id="text_16">
      <!-- 40 -->
      <g transform="translate(88.275 137.486689)scale(0.1 -0.1)">
       <use xlink:href="#DejaVuSans-34"/>
       <use xlink:href="#DejaVuSans-30" x="63.623047"/>
      </g>
     </g>
    </g>
    <g id="ytick_8">
     <g id="line2d_16">
      <g>
       <use xlink:href="#m7640c8c1ae" x="108" y="95.466485" style="stroke: #000000; stroke-width: 0.8"/>
      </g>
     </g>
     <g id="text_17">
      <!-- 50 -->
      <g transform="translate(88.275 99.265704)scale(0.1 -0.1)">
       <use xlink:href="#DejaVuSans-35"/>
       <use xlink:href="#DejaVuSans-30" x="63.623047"/>
      </g>
     </g>
    </g>
    <g id="ytick_9">
     <g id="line2d_17">
      <g>
       <use xlink:href="#m7640c8c1ae" x="108" y="57.2455" style="stroke: #000000; stroke-width: 0.8"/>
      </g>
     </g>
     <g id="text_18">
      <!-- 60 -->
      <g transform="translate(88.275 61.044718)scale(0.1 -0.1)">
       <use xlink:href="#DejaVuSans-36"/>
       <use xlink:href="#DejaVuSans-30" x="63.623047"/>
      </g>
     </g>
    </g>
    <g id="text_19">
     <!-- Residual -->
     <g transform="translate(73.815625 239.275625)rotate(-90)scale(0.1 -0.1)">
      <defs>
       <path id="DejaVuSans-52" d="M 2841 2188 
Q 3044 2119 3236 1894 
Q 3428 1669 3622 1275 
L 4263 0 
L 3584 0 
L 2988 1197 
Q 2756 1666 2539 1819 
Q 2322 1972 1947 1972 
L 1259 1972 
L 1259 0 
L 628 0 
L 628 4666 
L 2053 4666 
Q 2853 4666 3247 4331 
Q 3641 3997 3641 3322 
Q 3641 2881 3436 2590 
Q 3231 2300 2841 2188 
z
M 1259 4147 
L 1259 2491 
L 2053 2491 
Q 2509 2491 2742 2702 
Q 2975 2913 2975 3322 
Q 2975 3731 2742 3939 
Q 2509 4147 2053 4147 
L 1259 4147 
z
" transform="scale(0.015625)"/>
       <path id="DejaVuSans-73" d="M 2834 3397 
L 2834 2853 
Q 2591 2978 2328 3040 
Q 2066 3103 1784 3103 
Q 1356 3103 1142 2972 
Q 928 2841 928 2578 
Q 928 2378 1081 2264 
Q 1234 2150 1697 2047 
L 1894 2003 
Q 2506 1872 2764 1633 
Q 3022 1394 3022 966 
Q 3022 478 2636 193 
Q 2250 -91 1575 -91 
Q 1294 -91 989 -36 
Q 684 19 347 128 
L 347 722 
Q 666 556 975 473 
Q 1284 391 1588 391 
Q 1994 391 2212 530 
Q 2431 669 2431 922 
Q 2431 1156 2273 1281 
Q 2116 1406 1581 1522 
L 1381 1569 
Q 847 1681 609 1914 
Q 372 2147 372 2553 
Q 372 3047 722 3315 
Q 1072 3584 1716 3584 
Q 2034 3584 2315 3537 
Q 2597 3491 2834 3397 
z
" transform="scale(0.015625)"/>
       <path id="DejaVuSans-64" d="M 2906 2969 
L 2906 4863 
L 3481 4863 
L 3481 0 
L 2906 0 
L 2906 525 
Q 2725 213 2448 61 
Q 2172 -91 1784 -91 
Q 1150 -91 751 415 
Q 353 922 353 1747 
Q 353 2572 751 3078 
Q 1150 3584 1784 3584 
Q 2172 3584 2448 3432 
Q 2725 3281 2906 2969 
z
M 947 1747 
Q 947 1113 1208 752 
Q 1469 391 1925 391 
Q 2381 391 2643 752 
Q 2906 1113 2906 1747 
Q 2906 2381 2643 2742 
Q 2381 3103 1925 3103 
Q 1469 3103 1208 2742 
Q 947 2381 947 1747 
z
" transform="scale(0.015625)"/>
       <path id="DejaVuSans-75" d="M 544 1381 
L 544 3500 
L 1119 3500 
L 1119 1403 
Q 1119 906 1312 657 
Q 1506 409 1894 409 
Q 2359 409 2629 706 
Q 2900 1003 2900 1516 
L 2900 3500 
L 3475 3500 
L 3475 0 
L 2900 0 
L 2900 538 
Q 2691 219 2414 64 
Q 2138 -91 1772 -91 
Q 1169 -91 856 284 
Q 544 659 544 1381 
z
M 1991 3584 
L 1991 3584 
z
" transform="scale(0.015625)"/>
       <path id="DejaVuSans-61" d="M 2194 1759 
Q 1497 1759 1228 1600 
Q 959 1441 959 1056 
Q 959 750 1161 570 
Q 1363 391 1709 391 
Q 2188 391 2477 730 
Q 2766 1069 2766 1631 
L 2766 1759 
L 2194 1759 
z
M 3341 1997 
L 3341 0 
L 2766 0 
L 2766 531 
Q 2569 213 2275 61 
Q 1981 -91 1556 -91 
Q 1019 -91 701 211 
Q 384 513 384 1019 
Q 384 1609 779 1909 
Q 1175 2209 1959 2209 
L 2766 2209 
L 2766 2266 
Q 2766 2663 2505 2880 
Q 2244 3097 1772 3097 
Q 1472 3097 1187 3025 
Q 903 2953 641 2809 
L 641 3341 
Q 956 3463 1253 3523 
Q 1550 3584 1831 3584 
Q 2591 3584 2966 3190 
Q 3341 2797 3341 1997 
z
" transform="scale(0.015625)"/>
       <path id="DejaVuSans-6c" d="M 603 4863 
L 1178 4863 
L 1178 0 
L 603 0 
L 603 4863 
z
" transform="scale(0.015625)"/>
      </defs>
      <use xlink:href="#DejaVuSans-52"/>
      <use xlink:href="#DejaVuSans-65" x="64.982422"/>
      <use xlink:href="#DejaVuSans-73" x="126.505859"/>
      <use xlink:href="#DejaVuSans-69" x="178.605469"/>
      <use xlink:href="#DejaVuSans-64" x="206.388672"/>
      <use xlink:href="#DejaVuSans-75" x="269.865234"/>
      <use xlink:href="#DejaVuSans-61" x="333.244141"/>
      <use xlink:href="#DejaVuSans-6c" x="394.523438"/>
     </g>
    </g>
   </g>
   <g id="line2d_18">
    <path d="M 138.436364 66.96 
L 138.644689 281.598434 
L 139.06134 291.691236 
L 139.269666 286.571292 
L 139.477991 286.571352 
L 139.686317 292.021551 
L 139.894643 280.395866 
L 140.311294 286.021968 
L 140.519619 286.701376 
L 140.727945 291.257236 
L 140.93627 285.572373 
L 141.144596 297.441761 
L 141.352921 268.686991 
L 141.561247 286.571439 
L 141.977898 286.571393 
L 142.186224 273.522622 
L 142.394549 290.740796 
L 142.8112 293.603526 
L 143.019526 288.203811 
L 143.436177 254.470622 
L 143.644503 258.303773 
L 143.852828 318.233672 
L 144.061154 323.369591 
L 144.269479 290.223162 
L 144.68613 285.504479 
L 144.894456 285.493986 
L 145.311107 256.392768 
L 145.727758 322.597966 
L 146.144409 271.325089 
L 146.352735 270.840289 
L 146.56106 314.730188 
L 146.769386 283.025651 
L 146.977711 286.32428 
L 147.186037 274.149612 
L 147.602688 303.970546 
L 148.019339 282.10899 
L 148.227665 293.157036 
L 148.43599 267.564008 
L 148.644316 280.968341 
L 148.852641 276.6171 
L 149.060967 291.614561 
L 149.477618 295.083452 
L 149.685944 285.156631 
L 149.894269 281.754641 
L 150.102595 268.609732 
L 150.31092 274.507905 
L 150.519246 299.856383 
L 150.727571 268.135238 
L 150.935897 275.037969 
L 151.144223 321.299369 
L 151.560874 285.089314 
L 151.769199 293.378049 
L 151.977525 285.099182 
L 152.18585 284.280031 
L 152.394176 285.193888 
L 152.602501 283.622565 
L 152.810827 287.091642 
L 153.019153 286.945651 
L 153.227478 282.837177 
L 153.435804 272.637949 
L 153.644129 280.530762 
L 153.852455 282.67565 
L 154.06078 278.293339 
L 154.477431 312.712929 
L 155.102408 282.283144 
L 155.310734 288.466122 
L 155.519059 283.098302 
L 155.727385 271.973484 
L 155.93571 294.572968 
L 156.352361 275.561955 
L 156.560687 301.342004 
L 157.185664 268.993593 
L 157.393989 300.193317 
L 157.81064 281.997278 
L 158.018966 281.132434 
L 158.227291 278.378244 
L 158.435617 285.731873 
L 158.643943 265.183697 
L 158.852268 319.930448 
L 159.060594 284.68361 
L 159.268919 295.646861 
L 159.477245 298.207361 
L 159.68557 297.396276 
L 159.893896 286.571468 
L 161.352175 286.571414 
L 161.5605 271.7504 
L 161.768826 299.580122 
L 161.977151 293.963563 
L 162.393803 277.677481 
L 162.810454 310.393004 
L 163.018779 275.743488 
L 163.227105 285.946673 
L 163.43543 278.866834 
L 163.643756 294.5365 
L 163.852081 287.018994 
L 164.477058 277.936694 
L 164.685384 279.606328 
L 164.893709 287.52926 
L 165.102035 286.571371 
L 169.06022 286.571411 
L 169.268546 294.308043 
L 169.476871 281.660016 
L 169.685197 286.153361 
L 169.893522 287.597764 
L 170.101848 299.605894 
L 170.310174 296.604423 
L 170.518499 287.152856 
L 170.93515 281.489997 
L 171.143476 284.433865 
L 171.351801 293.250357 
L 171.560127 282.392452 
L 171.768452 302.028218 
L 172.185104 277.37655 
L 172.393429 293.703376 
L 172.601755 282.949344 
L 172.81008 279.197372 
L 173.018406 269.268078 
L 173.226731 277.776559 
L 173.643382 284.432374 
L 173.851708 298.881367 
L 174.060034 284.206454 
L 174.268359 284.74 
L 174.476685 280.615865 
L 174.68501 287.685627 
L 174.893336 287.452598 
L 175.101661 279.994802 
L 175.518312 293.116809 
L 175.726638 282.308623 
L 175.934964 282.876725 
L 176.351615 302.753119 
L 176.55994 275.078583 
L 176.768266 292.667308 
L 176.976591 295.671056 
L 177.184917 269.624137 
L 177.393242 286.037199 
L 177.601568 292.703411 
L 177.809894 283.354462 
L 178.018219 265.695134 
L 178.226545 266.167204 
L 178.43487 314.996609 
L 178.643196 293.881848 
L 179.059847 285.920767 
L 179.268172 296.048207 
L 179.476498 286.057403 
L 179.684824 288.389598 
L 179.893149 278.360286 
L 180.101475 280.566489 
L 180.3098 307.798513 
L 180.518126 298.14266 
L 180.726451 306.997842 
L 180.934777 280.716836 
L 181.143102 272.26622 
L 181.768079 289.398138 
L 181.976405 285.453692 
L 182.393056 302.544554 
L 182.601381 272.071376 
L 182.809707 274.845048 
L 183.018032 282.422943 
L 183.226358 276.150734 
L 183.434684 281.934761 
L 183.643009 307.04155 
L 183.851335 286.571372 
L 184.684637 286.571418 
L 184.892962 264.142067 
L 185.101288 297.851909 
L 185.309614 280.041935 
L 185.517939 272.915113 
L 185.726265 285.764752 
L 185.93459 289.480403 
L 186.142916 296.400011 
L 186.351241 295.515201 
L 186.559567 293.000961 
L 186.767892 295.17117 
L 186.976218 272.471487 
L 187.184544 287.339198 
L 187.392869 287.241624 
L 187.601195 285.431535 
L 187.80952 298.651037 
L 188.017846 272.519515 
L 188.434497 298.392716 
L 188.642822 274.182205 
L 188.851148 274.909485 
L 189.059474 259.325668 
L 189.267799 268.286563 
L 189.68445 314.655726 
L 190.101101 267.649231 
L 190.309427 303.423198 
L 190.517752 296.324494 
L 190.726078 301.138433 
L 190.934404 282.965858 
L 191.142729 281.965545 
L 191.351055 282.048625 
L 191.55938 281.575399 
L 191.767706 300.771008 
L 191.976031 280.742569 
L 192.184357 283.727521 
L 192.392682 272.501348 
L 192.809334 294.142453 
L 193.017659 281.886654 
L 193.43431 285.319842 
L 193.642636 298.587116 
L 193.850961 293.340775 
L 194.059287 272.279958 
L 194.267612 289.751216 
L 194.475938 285.313285 
L 194.684264 289.574941 
L 194.892589 281.964947 
L 195.100915 293.781915 
L 195.30924 283.41369 
L 195.517566 266.21875 
L 195.934217 306.196769 
L 196.350868 254.646575 
L 196.767519 323.0401 
L 196.975845 290.473522 
L 197.18417 289.101645 
L 197.392496 280.481987 
L 197.600821 301.032134 
L 197.809147 279.632844 
L 198.017472 275.030841 
L 198.225798 295.688715 
L 198.434124 292.401224 
L 198.642449 285.537786 
L 198.850775 286.913828 
L 199.0591 284.326551 
L 199.267426 274.68514 
L 199.475751 281.353181 
L 199.684077 293.65553 
L 199.892402 284.914281 
L 200.100728 289.765308 
L 200.309054 284.140127 
L 200.517379 291.479097 
L 200.725705 283.757919 
L 200.93403 280.187986 
L 201.142356 284.952901 
L 201.350681 294.883882 
L 201.559007 284.384307 
L 201.767332 289.172704 
L 201.975658 282.903131 
L 202.183984 286.843011 
L 202.392309 283.809975 
L 202.600635 289.063902 
L 202.80896 280.018931 
L 203.017286 280.532191 
L 203.225611 297.347926 
L 203.433937 278.476422 
L 203.642262 289.822068 
L 204.058914 284.839903 
L 204.267239 295.86749 
L 204.475565 282.757273 
L 204.68389 281.002848 
L 204.892216 265.871276 
L 205.100541 278.411794 
L 205.308867 310.953391 
L 205.933844 261.393375 
L 206.142169 262.23474 
L 206.55882 322.987529 
L 206.767146 289.102618 
L 206.975471 287.554459 
L 207.183797 291.099516 
L 207.392122 275.142385 
L 207.600448 301.570525 
L 208.017099 276.643841 
L 208.225425 267.879818 
L 208.43375 273.355144 
L 208.642076 304.632826 
L 208.850401 261.080067 
L 209.058727 307.247903 
L 209.267052 294.466714 
L 209.475378 294.170187 
L 209.683704 286.924252 
L 209.892029 283.628702 
L 210.100355 311.766548 
L 210.30868 286.571422 
L 211.141982 286.571427 
L 211.558634 269.313803 
L 211.766959 283.260105 
L 211.975285 281.90077 
L 212.18361 289.25823 
L 212.391936 275.012177 
L 212.600261 313.678605 
L 213.016912 265.868915 
L 213.225238 295.107457 
L 213.433564 293.02239 
L 213.641889 296.428016 
L 214.05854 277.384456 
L 214.266866 298.658288 
L 214.475191 369.36 
L 214.683517 305.005013 
L 214.891842 282.808955 
L 215.308494 287.919792 
L 215.516819 287.142539 
L 215.725145 281.76513 
L 215.93347 292.900499 
L 216.141796 289.529801 
L 216.350121 288.432529 
L 216.558447 288.007271 
L 216.766772 283.354604 
L 216.975098 288.428863 
L 217.183424 275.760553 
L 217.391749 305.387082 
L 217.600075 289.433674 
L 217.8084 287.234413 
L 218.016726 293.721746 
L 218.225051 306.251945 
L 218.433377 289.182786 
L 218.641702 295.595616 
L 218.850028 271.96214 
L 219.058354 293.200046 
L 219.475005 302.594345 
L 219.68333 335.273334 
L 219.891656 269.968839 
L 220.099981 269.078652 
L 220.308307 291.946776 
L 220.516632 285.224736 
L 220.724958 283.915278 
L 220.933284 293.651151 
L 221.141609 297.129189 
L 221.349935 317.71907 
L 221.766586 270.882941 
L 222.391562 303.437744 
L 222.599888 273.783137 
L 222.808214 290.19927 
L 223.016539 278.652683 
L 223.224865 297.596207 
L 223.43319 271.500636 
L 223.641516 271.190897 
L 224.058167 298.367287 
L 224.266492 274.034239 
L 224.474818 304.302572 
L 224.891469 274.453233 
L 225.099795 279.644964 
L 225.30812 277.553233 
L 225.516446 294.904194 
L 225.724771 286.038332 
L 225.933097 287.360123 
L 226.141422 311.730984 
L 226.558074 284.53628 
L 226.766399 297.42625 
L 226.974725 281.211997 
L 227.18305 286.380217 
L 227.391376 264.880187 
L 227.599701 282.513491 
L 227.808027 282.50508 
L 228.016352 290.544976 
L 228.224678 286.945689 
L 228.433004 293.492994 
L 228.641329 293.864604 
L 229.05798 278.769683 
L 229.266306 293.512975 
L 229.474631 294.902809 
L 229.682957 284.184254 
L 229.891282 290.347726 
L 230.307934 276.583647 
L 230.516259 280.716741 
L 230.724585 265.244754 
L 231.141236 288.236604 
L 231.349561 280.3513 
L 231.557887 290.74303 
L 231.766212 292.026605 
L 231.974538 260.717848 
L 232.391189 310.542139 
L 232.599515 281.451877 
L 232.80784 285.172412 
L 233.016166 284.042814 
L 233.224491 298.695592 
L 233.432817 272.105814 
L 233.849468 292.421357 
L 234.057794 290.833971 
L 234.266119 295.875361 
L 234.68277 325.657509 
L 234.891096 268.205505 
L 235.099421 296.324401 
L 235.516072 279.298497 
L 235.724398 271.878742 
L 235.932724 278.920552 
L 236.141049 290.305957 
L 236.349375 276.03798 
L 236.766026 284.579343 
L 236.974351 282.069717 
L 237.182677 284.811353 
L 237.391002 282.290649 
L 237.599328 305.833563 
L 237.807654 284.032407 
L 238.015979 279.947693 
L 238.224305 285.50556 
L 238.43263 287.812041 
L 238.849281 263.884606 
L 239.057607 291.952168 
L 239.265932 278.452393 
L 239.474258 289.342799 
L 239.682584 278.272713 
L 239.890909 286.415798 
L 240.30756 270.067488 
L 240.515886 281.628228 
L 240.724211 302.526796 
L 240.932537 300.287089 
L 241.140862 287.866123 
L 241.349188 300.554994 
L 241.557514 293.435825 
L 241.765839 293.249168 
L 241.974165 287.62135 
L 242.18249 294.411395 
L 242.390816 293.561692 
L 242.599141 293.380219 
L 242.807467 295.376598 
L 243.015792 290.171984 
L 243.224118 291.414301 
L 243.432444 288.168078 
L 243.640769 289.980355 
L 243.849095 293.098535 
L 244.05742 286.022379 
L 244.265746 293.994206 
L 244.474071 289.720515 
L 244.682397 281.585595 
L 244.890722 305.245522 
L 245.099048 289.493748 
L 245.307374 284.84848 
L 245.515699 293.433509 
L 246.140676 271.855017 
L 246.349001 266.98544 
L 246.557327 287.199875 
L 246.765652 275.075541 
L 246.973978 285.335201 
L 247.182304 284.59781 
L 247.390629 268.80064 
L 247.598955 291.979077 
L 248.015606 261.986558 
L 248.223931 283.173937 
L 248.432257 279.044983 
L 248.640582 281.634009 
L 248.848908 289.658242 
L 249.057234 291.426786 
L 249.265559 298.10522 
L 249.473885 292.902223 
L 249.68221 310.359029 
L 249.890536 294.576416 
L 250.098861 298.720728 
L 250.307187 290.688227 
L 250.515512 296.82136 
L 250.723838 271.076048 
L 250.932164 301.226931 
L 251.140489 300.492881 
L 251.55714 287.530633 
L 251.765466 267.778058 
L 251.973791 299.651942 
L 252.182117 291.883959 
L 252.390442 271.884371 
L 252.598768 291.200606 
L 252.807094 282.323301 
L 253.015419 283.130333 
L 253.223745 296.424817 
L 253.43207 282.22065 
L 253.848721 286.697443 
L 254.265372 319.655626 
L 254.473698 256.685611 
L 254.682024 285.98575 
L 254.890349 275.572779 
L 255.098675 292.94914 
L 255.307 282.120263 
L 255.515326 290.39641 
L 255.931977 294.618388 
L 256.140302 293.911426 
L 256.348628 258.696651 
L 256.556954 274.467207 
L 256.765279 263.204984 
L 256.973605 294.631794 
L 257.18193 278.306577 
L 257.390256 281.234288 
L 257.598581 272.67836 
L 257.806907 272.368801 
L 258.015232 280.277994 
L 258.223558 294.06679 
L 258.431884 278.930967 
L 258.640209 301.361821 
L 258.848535 288.497567 
L 259.05686 287.430337 
L 259.265186 303.594523 
L 259.473511 288.327701 
L 259.681837 256.479266 
L 260.098488 308.370333 
L 260.306814 283.788098 
L 260.515139 283.770373 
L 260.723465 275.632425 
L 260.93179 307.307524 
L 261.140116 285.580694 
L 261.556767 294.493306 
L 261.765092 293.053728 
L 261.973418 281.003082 
L 262.181744 278.49195 
L 262.390069 283.944575 
L 262.598395 304.464699 
L 262.80672 280.484341 
L 263.015046 297.905422 
L 263.431697 266.279136 
L 263.640022 300.729188 
L 263.848348 273.563652 
L 264.056674 316.686426 
L 264.264999 279.749206 
L 264.473325 271.068649 
L 264.68165 290.472702 
L 264.889976 285.404778 
L 265.098301 318.361009 
L 265.306627 295.395263 
L 265.514952 303.084896 
L 265.723278 281.574851 
L 265.931604 280.178295 
L 266.139929 305.766815 
L 266.348255 286.644318 
L 266.55658 289.8419 
L 266.764906 270.446648 
L 267.181557 288.866658 
L 267.389882 291.642977 
L 267.598208 283.538171 
L 267.806534 267.613033 
L 268.014859 294.493416 
L 268.223185 293.209521 
L 268.43151 293.54367 
L 268.639836 288.797707 
L 268.848161 280.150353 
L 269.056487 289.523985 
L 269.264812 286.424963 
L 269.473138 275.916665 
L 269.681464 255.877058 
L 269.889789 265.63185 
L 270.098115 321.105364 
L 270.30644 266.064893 
L 270.514766 279.863826 
L 270.723091 278.419968 
L 270.931417 304.095656 
L 271.139742 276.626663 
L 271.348068 280.986844 
L 271.556394 298.403416 
L 271.764719 303.227097 
L 271.973045 280.387364 
L 272.18137 307.63393 
L 272.389696 307.077025 
L 272.598021 290.843137 
L 272.806347 252.116598 
L 273.014672 268.324139 
L 273.222998 272.049195 
L 273.431324 298.417164 
L 273.639649 273.893306 
L 273.847975 279.981224 
L 274.0563 289.341294 
L 274.264626 289.149318 
L 274.472951 276.778368 
L 274.681277 291.384359 
L 274.889602 283.615209 
L 275.097928 287.843531 
L 275.306254 310.466282 
L 275.514579 275.958361 
L 275.722905 278.854047 
L 275.93123 283.920772 
L 276.139556 294.267927 
L 276.347881 280.629606 
L 276.556207 277.752614 
L 276.764532 292.422743 
L 276.972858 298.894147 
L 277.389509 283.25346 
L 277.597835 291.818345 
L 277.80616 285.845541 
L 278.014486 292.394148 
L 278.222811 262.343365 
L 278.431137 288.83005 
L 278.639462 298.886885 
L 278.847788 288.721474 
L 279.056113 295.646108 
L 279.264439 276.998759 
L 279.472765 293.037254 
L 279.68109 285.538041 
L 279.889416 284.626153 
L 280.097741 275.509068 
L 280.306067 249.773141 
L 280.514392 293.422823 
L 280.722718 280.147859 
L 280.931043 320.925647 
L 281.347695 264.320562 
L 281.55602 259.104952 
L 281.764346 314.66422 
L 281.972671 327.854116 
L 282.180997 293.993009 
L 282.389322 278.738329 
L 282.597648 292.812183 
L 282.805973 279.539374 
L 283.014299 282.115069 
L 283.222625 281.768629 
L 283.43095 291.47884 
L 283.639276 264.31304 
L 283.847601 288.32762 
L 284.055927 298.732137 
L 284.264252 298.369519 
L 284.472578 295.4199 
L 284.680903 282.031377 
L 284.889229 321.298829 
L 285.097555 269.286387 
L 285.30588 287.190805 
L 285.514206 288.802014 
L 285.722531 283.641266 
L 285.930857 285.726727 
L 286.139182 277.9047 
L 286.347508 283.202626 
L 286.555833 273.858832 
L 286.764159 275.876311 
L 286.972485 293.126255 
L 287.389136 286.654177 
L 287.597461 297.803891 
L 287.805787 295.100057 
L 288.014112 287.376953 
L 288.222438 285.65281 
L 288.430763 296.453329 
L 288.639089 260.037249 
L 288.847415 278.5286 
L 289.05574 310.474039 
L 289.264066 286.086064 
L 289.472391 276.227496 
L 289.680717 281.695524 
L 290.097368 294.91544 
L 290.305693 273.426716 
L 290.514019 314.014597 
L 290.722345 260.17967 
L 290.93067 300.179935 
L 291.138996 287.535722 
L 291.555647 295.330814 
L 291.763972 291.173877 
L 291.972298 278.283264 
L 292.388949 290.962496 
L 292.597275 280.661118 
L 292.8056 290.44107 
L 293.013926 291.658444 
L 293.222251 287.981218 
L 293.430577 306.678946 
L 293.638902 274.256634 
L 293.847228 289.324558 
L 294.055553 280.99965 
L 294.263879 279.449377 
L 294.472205 283.391518 
L 294.68053 276.641088 
L 294.888856 296.588174 
L 295.097181 295.474 
L 295.305507 287.712918 
L 295.513832 309.352105 
L 295.722158 272.47556 
L 295.930483 289.263392 
L 296.138809 293.352807 
L 296.347135 272.018141 
L 296.55546 276.342774 
L 296.763786 285.771425 
L 296.972111 272.243978 
L 297.180437 307.719375 
L 297.388762 287.701727 
L 297.597088 289.304944 
L 297.805413 274.971058 
L 298.222065 294.549587 
L 298.638716 273.838765 
L 298.847041 288.866811 
L 299.055367 295.474492 
L 299.263692 284.222916 
L 299.472018 296.318683 
L 299.888669 288.070523 
L 300.096995 286.949884 
L 300.30532 283.088301 
L 300.513646 292.724349 
L 300.721971 295.549224 
L 300.930297 308.594715 
L 301.138622 296.073059 
L 301.346948 292.127293 
L 301.555273 276.031756 
L 301.763599 286.340679 
L 301.971925 286.211069 
L 302.18025 291.062972 
L 302.596901 291.522609 
L 303.013552 311.721435 
L 303.221878 271.841013 
L 303.430203 293.933131 
L 303.846855 256.409866 
L 304.05518 260.983771 
L 304.263506 301.530413 
L 304.471831 280.396492 
L 304.680157 273.297765 
L 305.096808 298.769767 
L 305.305133 278.189059 
L 305.513459 287.212114 
L 305.721785 304.374041 
L 305.93011 299.818171 
L 306.138436 301.764716 
L 306.346761 291.266463 
L 306.555087 272.302391 
L 306.763412 285.898855 
L 306.971738 273.024254 
L 307.180063 272.493296 
L 307.388389 266.605705 
L 307.596715 293.129779 
L 307.80504 299.702317 
L 308.013366 312.437263 
L 308.430017 277.256521 
L 308.638342 273.55448 
L 308.846668 285.734886 
L 309.054993 282.217486 
L 309.263319 275.091987 
L 309.471645 291.673307 
L 309.67997 291.884635 
L 310.096621 277.698985 
L 310.304947 288.856736 
L 310.721598 259.253792 
L 311.138249 271.985676 
L 311.346575 273.457355 
L 311.5549 304.740055 
L 311.763226 295.97049 
L 311.971551 306.311054 
L 312.179877 276.926638 
L 312.388202 297.699057 
L 312.804853 275.004616 
L 313.013179 279.663652 
L 313.221505 281.101466 
L 313.42983 285.914092 
L 313.638156 272.660189 
L 313.846481 281.360976 
L 314.054807 272.44768 
L 314.263132 277.307675 
L 314.471458 293.620193 
L 314.679783 300.100896 
L 314.888109 278.15398 
L 315.30476 290.248555 
L 315.513086 289.505853 
L 315.721411 273.021448 
L 315.929737 278.471368 
L 316.138062 287.198827 
L 316.346388 300.91213 
L 316.763039 280.118823 
L 316.971365 285.165366 
L 317.388016 266.999015 
L 317.596341 292.893513 
L 317.804667 290.15547 
L 318.012992 292.421281 
L 318.221318 274.581853 
L 318.429643 278.878353 
L 318.637969 294.021548 
L 318.846295 288.246747 
L 319.05462 300.564909 
L 319.262946 288.458733 
L 319.471271 297.185616 
L 319.679597 274.626655 
L 319.887922 278.896223 
L 320.096248 316.201512 
L 320.512899 275.578062 
L 320.721225 287.490461 
L 320.92955 273.346057 
L 321.346201 295.643407 
L 321.762852 288.522918 
L 321.971178 302.351482 
L 322.179503 298.17189 
L 322.387829 301.169471 
L 322.596155 285.766919 
L 322.80448 302.795981 
L 323.012806 289.744098 
L 323.429457 300.683575 
L 323.637782 279.384516 
L 323.846108 284.910563 
L 324.054433 304.635914 
L 324.471085 277.633756 
L 324.67941 294.953739 
L 324.887736 298.146855 
L 325.096061 297.083131 
L 325.304387 293.15604 
L 325.512712 299.419338 
L 325.721038 272.3384 
L 325.929363 274.950357 
L 326.137689 279.278163 
L 326.346015 280.508169 
L 326.55434 278.919726 
L 326.762666 304.992336 
L 326.970991 272.858677 
L 327.179317 280.766703 
L 327.387642 278.380323 
L 327.595968 281.674216 
L 327.804293 302.657057 
L 328.012619 268.067318 
L 328.220945 292.563738 
L 328.42927 295.901121 
L 328.637596 291.4171 
L 329.054247 273.543811 
L 329.262572 290.706521 
L 329.470898 288.079854 
L 329.679223 283.328706 
L 329.887549 288.610682 
L 330.095875 289.285043 
L 330.3042 276.072147 
L 330.512526 305.505628 
L 330.720851 294.507132 
L 330.929177 305.130233 
L 331.137502 277.089617 
L 331.345828 285.578856 
L 331.554153 276.163271 
L 331.970805 283.7992 
L 332.17913 270.910158 
L 332.387456 280.843086 
L 332.595781 284.113425 
L 332.804107 295.152879 
L 333.012432 279.77193 
L 333.220758 312.452407 
L 333.429083 290.080101 
L 333.637409 294.969584 
L 333.845735 295.795698 
L 334.05406 288.400893 
L 334.262386 267.668091 
L 334.470711 276.401842 
L 334.679037 277.318468 
L 334.887362 284.7161 
L 335.095688 281.317652 
L 335.304013 267.961488 
L 335.512339 282.884403 
L 335.720665 312.109391 
L 335.92899 302.463718 
L 336.137316 257.899115 
L 336.345641 287.552313 
L 336.553967 294.479824 
L 336.762292 294.676441 
L 337.178943 272.216785 
L 337.387269 290.221478 
L 337.595595 292.049248 
L 337.80392 277.371961 
L 338.012246 300.888071 
L 338.220571 284.317857 
L 338.428897 284.646124 
L 338.637222 260.968044 
L 338.845548 284.542622 
L 339.053873 281.784752 
L 339.262199 283.826738 
L 339.470525 314.275696 
L 339.67885 265.504711 
L 339.887176 286.085426 
L 340.095501 270.465449 
L 340.303827 299.528386 
L 340.512152 282.253825 
L 340.928803 286.915571 
L 341.137129 279.904253 
L 341.345455 297.969179 
L 341.55378 272.547118 
L 341.762106 276.784046 
L 341.970431 301.238995 
L 342.387082 268.103067 
L 342.595408 274.184966 
L 342.803733 289.384048 
L 343.012059 291.76108 
L 343.220385 289.672845 
L 343.42871 255.27462 
L 343.845361 316.861695 
L 344.053687 277.172181 
L 344.262012 280.292916 
L 344.470338 297.999714 
L 344.678663 300.213663 
L 344.886989 280.558705 
L 345.095315 275.325801 
L 345.30364 292.926826 
L 345.511966 294.89056 
L 345.720291 305.861043 
L 345.928617 287.434935 
L 346.136942 247.926219 
L 346.345268 319.720747 
L 346.970245 282.954762 
L 347.17857 295.044902 
L 347.386896 277.760076 
L 347.595221 277.002347 
L 347.803547 283.562808 
L 348.011872 255.99241 
L 348.636849 295.020326 
L 348.845175 289.634049 
L 349.261826 298.827491 
L 349.470151 294.081601 
L 349.678477 282.199205 
L 349.886802 305.733174 
L 350.303453 271.422066 
L 350.511779 292.467851 
L 350.720105 278.697879 
L 350.92843 293.70342 
L 351.136756 280.904071 
L 351.345081 275.917107 
L 351.553407 290.913851 
L 351.761732 280.230199 
L 351.970058 284.280742 
L 352.386709 300.328551 
L 352.595035 290.370473 
L 352.80336 285.971119 
L 353.011686 286.088539 
L 353.220011 278.679328 
L 353.428337 287.408095 
L 353.636662 276.05053 
L 353.844988 283.078348 
L 354.053313 281.430565 
L 354.261639 298.461926 
L 354.469965 271.268864 
L 354.67829 290.453339 
L 354.886616 288.873066 
L 355.094941 288.369978 
L 355.303267 291.864481 
L 355.511592 290.112629 
L 355.719918 273.648945 
L 356.136569 303.638301 
L 356.344895 309.35374 
L 356.55322 285.242398 
L 356.761546 291.909689 
L 356.969871 272.27314 
L 357.178197 287.154722 
L 357.386522 318.988152 
L 357.594848 302.0065 
L 357.803173 260.516067 
L 358.219825 296.318086 
L 358.42815 296.529816 
L 358.636476 255.389277 
L 358.844801 287.509774 
L 359.053127 301.763735 
L 359.469778 267.807736 
L 359.678103 279.92325 
L 359.886429 284.718189 
L 360.094755 269.456749 
L 360.30308 286.650944 
L 360.511406 292.643834 
L 360.719731 275.411685 
L 360.928057 288.543141 
L 361.344708 273.560014 
L 361.553033 309.39673 
L 361.761359 287.854465 
L 361.969685 288.711923 
L 362.17801 272.092783 
L 362.594661 298.57846 
L 362.802987 302.339872 
L 363.011312 270.245776 
L 363.219638 273.777862 
L 363.427963 304.686567 
L 363.844615 275.464728 
L 364.05294 294.059892 
L 364.261266 292.279358 
L 364.469591 295.24279 
L 364.677917 309.418445 
L 364.886242 302.090616 
L 365.094568 259.887438 
L 365.302893 284.93762 
L 365.511219 291.995261 
L 365.719545 293.680062 
L 365.92787 280.114516 
L 366.136196 288.127672 
L 366.344521 289.755668 
L 366.552847 279.13522 
L 366.761172 303.863356 
L 366.969498 282.568099 
L 367.177823 282.072388 
L 367.386149 289.658413 
L 367.594475 283.212252 
L 367.8028 287.04273 
L 368.011126 298.672671 
L 368.427777 274.110865 
L 368.636102 296.969569 
L 369.052753 276.542954 
L 369.261079 295.61884 
L 369.469405 256.074559 
L 369.67773 287.883394 
L 369.886056 289.108317 
L 370.094381 274.910739 
L 370.302707 289.28817 
L 370.511032 287.155857 
L 370.719358 277.497581 
L 370.927683 292.033816 
L 371.136009 261.041157 
L 371.344335 287.154877 
L 371.55266 282.966697 
L 371.760986 297.451295 
L 372.177637 264.663312 
L 372.385962 300.821885 
L 372.594288 296.536733 
L 372.802613 281.94152 
L 373.010939 284.372459 
L 373.219265 260.250281 
L 373.42759 299.205004 
L 373.635916 276.449294 
L 373.844241 275.762248 
L 374.052567 288.940648 
L 374.260892 271.250326 
L 374.469218 286.091455 
L 374.677543 268.623649 
L 374.885869 279.588477 
L 375.094195 305.040626 
L 375.30252 286.046274 
L 375.510846 284.390082 
L 375.719171 273.185603 
L 375.927497 296.139328 
L 376.135822 279.913629 
L 376.344148 293.58176 
L 376.552473 271.495084 
L 376.969125 293.411364 
L 377.17745 281.369045 
L 377.385776 292.014356 
L 377.594101 280.761905 
L 377.802427 291.000385 
L 378.010752 292.370375 
L 378.219078 263.918591 
L 378.427403 290.018835 
L 378.635729 275.79214 
L 378.844055 312.52117 
L 379.05238 270.878 
L 379.260706 285.972295 
L 379.469031 282.826177 
L 379.885682 323.478722 
L 380.094008 310.076997 
L 380.302333 270.764744 
L 380.510659 258.889101 
L 380.718985 294.983468 
L 380.92731 276.601472 
L 381.343961 306.79196 
L 381.760612 288.926005 
L 382.177263 298.508319 
L 382.385589 284.344519 
L 382.593915 285.987161 
L 382.80224 289.58382 
L 383.010566 289.552243 
L 383.218891 299.089819 
L 383.427217 332.706374 
L 383.635542 269.962278 
L 383.843868 296.06333 
L 384.052193 280.611429 
L 384.260519 291.595818 
L 384.468845 285.657523 
L 384.67717 293.942084 
L 384.885496 280.746485 
L 385.302147 306.351764 
L 385.510472 286.046835 
L 385.718798 280.382025 
L 385.927123 291.874888 
L 386.135449 291.902853 
L 386.343775 276.681122 
L 386.760426 303.21296 
L 386.968751 300.662063 
L 387.385402 286.376683 
L 387.593728 263.63596 
L 387.802053 287.497609 
L 388.010379 268.615384 
L 388.218704 286.139155 
L 388.42703 271.574345 
L 388.635356 273.414 
L 388.843681 305.511804 
L 389.052007 292.333483 
L 389.260332 292.416204 
L 389.468658 289.911633 
L 389.676983 291.853904 
L 389.885309 281.299023 
L 390.30196 291.577346 
L 390.510286 281.527695 
L 390.718611 263.871433 
L 390.926937 302.327824 
L 391.135262 296.755589 
L 391.343588 284.37521 
L 391.551913 279.020077 
L 391.760239 290.674753 
L 391.968564 290.629216 
L 392.17689 296.794141 
L 392.385216 309.056079 
L 392.593541 267.244639 
L 392.801867 294.736745 
L 393.010192 281.190212 
L 393.218518 326.676616 
L 393.426843 310.260412 
L 393.635169 278.318315 
L 393.843494 296.395297 
L 394.05182 302.28873 
L 394.260146 300.12428 
L 394.468471 291.872087 
L 394.676797 272.856935 
L 394.885122 281.637619 
L 395.093448 272.614317 
L 395.301773 279.379833 
L 395.510099 275.505296 
L 395.718424 287.022507 
L 395.92675 285.288501 
L 396.135076 268.851724 
L 396.343401 271.238838 
L 396.551727 304.352536 
L 396.968378 277.083773 
L 397.176703 286.293936 
L 397.385029 269.292096 
L 397.593354 276.035882 
L 397.80168 289.978535 
L 398.010006 279.722039 
L 398.218331 279.122132 
L 398.426657 272.95999 
L 398.634982 286.697778 
L 398.843308 281.626297 
L 399.051633 268.255954 
L 399.259959 281.434148 
L 399.468284 277.417685 
L 399.67661 290.678146 
L 399.884936 277.476309 
L 400.093261 283.440819 
L 400.509912 288.84346 
L 400.926563 270.754039 
L 401.134889 282.75195 
L 401.343214 271.912107 
L 401.55154 267.924456 
L 401.759866 280.262418 
L 401.968191 270.313455 
L 402.176517 292.262981 
L 402.384842 288.738166 
L 402.593168 292.11665 
L 402.801493 283.186697 
L 403.009819 289.843082 
L 403.218144 286.113592 
L 403.42647 298.131416 
L 403.634796 279.460727 
L 403.843121 297.661194 
L 404.259772 276.43803 
L 404.468098 285.909254 
L 404.676423 267.607026 
L 405.093074 300.849905 
L 405.3014 291.518095 
L 405.509726 300.539308 
L 405.718051 300.456907 
L 405.926377 289.020696 
L 406.134702 298.148208 
L 406.343028 291.529336 
L 406.759679 268.124825 
L 406.968004 258.192857 
L 407.384656 283.149203 
L 407.592981 290.919762 
L 407.801307 272.678062 
L 408.009632 267.294746 
L 408.217958 293.061323 
L 408.426283 298.683896 
L 408.634609 291.655614 
L 408.842934 280.176796 
L 409.05126 281.121593 
L 409.259586 267.700144 
L 409.467911 291.344097 
L 409.884562 285.873877 
L 410.092888 288.977253 
L 410.301213 288.732549 
L 410.509539 284.625478 
L 410.92619 290.826938 
L 411.134516 288.105765 
L 411.342841 288.712611 
L 411.551167 296.302749 
L 411.759492 272.380958 
L 411.967818 270.025421 
L 412.176143 273.832033 
L 412.384469 292.129103 
L 412.592794 277.653747 
L 412.80112 276.464431 
L 413.009446 278.283341 
L 413.217771 300.074008 
L 413.426097 279.679897 
L 413.634422 277.043053 
L 413.842748 300.090309 
L 414.051073 286.677183 
L 414.259399 284.501928 
L 414.467724 298.03815 
L 414.67605 283.593731 
L 414.884376 286.455487 
L 415.092701 285.485992 
L 415.301027 300.739775 
L 415.509352 283.849397 
L 415.717678 296.334899 
L 416.342654 279.446317 
L 416.55098 293.923215 
L 416.759306 285.574176 
L 416.967631 290.705252 
L 417.175957 302.777505 
L 417.384282 295.202697 
L 417.592608 310.36922 
L 418.009259 274.213086 
L 418.42591 300.784324 
L 418.842561 273.057896 
L 419.050887 267.913884 
L 419.259212 286.643832 
L 419.467538 333.0151 
L 419.675863 283.875832 
L 419.884189 268.089918 
L 420.092514 287.170528 
L 420.30084 282.492691 
L 420.509166 283.704359 
L 420.717491 272.659938 
L 421.134142 305.812791 
L 421.342468 292.314786 
L 421.550793 297.66253 
L 421.759119 273.451923 
L 421.967444 317.232119 
L 422.17577 307.160979 
L 422.384096 267.957316 
L 422.592421 276.091233 
L 422.800747 305.824099 
L 423.009072 277.896461 
L 423.217398 277.670692 
L 423.425723 296.042445 
L 423.842374 252.451933 
L 424.259026 329.600184 
L 424.675677 268.179817 
L 424.884002 297.325554 
L 425.092328 296.797448 
L 425.300653 290.190814 
L 425.508979 266.892075 
L 425.717304 285.49205 
L 425.92563 279.480713 
L 426.133956 279.932647 
L 426.342281 274.912805 
L 426.550607 254.905964 
L 426.758932 263.185686 
L 427.175583 308.463754 
L 427.383909 287.074117 
L 427.80056 298.73166 
L 428.008886 290.597564 
L 428.217211 273.789767 
L 428.425537 286.816049 
L 428.633862 286.59726 
L 428.842188 281.838952 
L 429.050513 267.148148 
L 429.258839 296.271568 
L 429.67549 286.788759 
L 429.883816 287.304729 
L 430.092141 314.069642 
L 430.300467 291.297362 
L 430.508792 303.959172 
L 430.717118 277.25495 
L 430.925443 284.971493 
L 431.133769 279.842694 
L 431.342094 288.848134 
L 431.55042 285.603556 
L 431.758746 296.219331 
L 431.967071 264.931197 
L 432.383722 301.095455 
L 432.592048 277.377552 
L 432.800373 301.230913 
L 433.008699 270.078035 
L 433.217024 298.429537 
L 433.42535 273.9889 
L 433.633676 299.84826 
L 434.050327 265.71773 
L 434.258652 317.940671 
L 434.466978 273.010801 
L 434.675303 308.291605 
L 435.091954 268.357054 
L 435.30028 280.977911 
L 435.508606 318.57425 
L 435.716931 288.576032 
L 435.925257 283.298462 
L 436.133582 287.944574 
L 436.341908 279.2646 
L 436.550233 287.687842 
L 436.758559 312.214625 
L 436.966884 275.096829 
L 437.383536 306.391332 
L 437.591861 245.589259 
L 437.800187 294.766784 
L 438.008512 281.94176 
L 438.216838 287.192705 
L 438.425163 276.30771 
L 438.633489 291.032197 
L 438.841814 257.502103 
L 439.05014 296.94532 
L 439.258466 287.165143 
L 439.466791 263.982283 
L 439.883442 287.032204 
L 440.300093 277.131435 
L 440.508419 276.508819 
L 440.716744 268.433533 
L 440.92507 268.036169 
L 441.133396 298.809263 
L 441.341721 274.233708 
L 441.550047 280.433305 
L 441.758372 264.678658 
L 441.966698 298.10339 
L 442.175023 281.399961 
L 442.383349 287.448994 
L 442.591674 287.847238 
L 442.8 287.866421 
L 443.008326 285.086908 
L 443.216651 286.526194 
L 443.424977 290.534731 
L 443.633302 277.261195 
L 443.841628 273.68803 
L 444.049953 282.150791 
L 444.258279 282.058018 
L 444.466604 308.072019 
L 444.67493 275.558299 
L 444.883256 303.354283 
L 445.091581 276.502105 
L 445.299907 271.786574 
L 445.508232 295.954696 
L 445.716558 295.380145 
L 445.924883 285.632638 
L 446.133209 294.851913 
L 446.341534 289.24505 
L 446.54986 288.336307 
L 446.758186 301.624116 
L 446.966511 267.662317 
L 447.174837 293.70411 
L 447.383162 279.815474 
L 447.591488 289.215167 
L 447.799813 272.432845 
L 448.008139 295.88466 
L 448.216464 300.48567 
L 448.42479 276.419266 
L 448.633116 283.146975 
L 448.841441 297.956054 
L 449.049767 294.65134 
L 449.466418 273.148441 
L 449.674743 289.587459 
L 449.883069 317.546199 
L 450.091394 268.285295 
L 450.29972 296.605049 
L 450.508046 287.607397 
L 450.716371 308.489207 
L 450.924697 297.756448 
L 451.133022 272.285427 
L 451.341348 286.203047 
L 451.549673 284.974919 
L 451.757999 300.189387 
L 451.966324 273.48769 
L 452.591301 287.643971 
L 453.007952 274.280817 
L 453.424603 288.909779 
L 453.841254 278.546527 
L 454.04958 278.866877 
L 454.257906 298.076659 
L 454.466231 269.258201 
L 454.674557 301.752044 
L 454.882882 251.582118 
L 455.091208 305.532209 
L 455.299533 279.173269 
L 455.507859 302.461235 
L 455.92451 265.322493 
L 456.132836 280.867425 
L 456.341161 274.909896 
L 456.549487 314.214896 
L 456.757812 308.990882 
L 457.174463 285.657422 
L 457.382789 268.768896 
L 457.591114 289.984562 
L 458.007766 264.825129 
L 458.216091 262.857464 
L 458.424417 312.363346 
L 458.632742 286.52342 
L 458.841068 289.127222 
L 459.049393 301.767308 
L 459.466044 251.452214 
L 459.67437 296.747514 
L 459.882696 265.916473 
L 460.091021 290.337798 
L 460.507672 271.576134 
L 460.715998 284.88922 
L 460.924323 284.22427 
L 461.132649 292.827125 
L 461.757626 276.240053 
L 462.174277 299.835294 
L 462.382602 298.301922 
L 462.590928 279.786959 
L 462.799253 284.842504 
L 463.007579 283.041782 
L 463.215904 284.433869 
L 463.42423 297.099493 
L 463.632556 292.976107 
L 463.840881 257.856345 
L 464.049207 300.620918 
L 464.257532 286.215547 
L 464.465858 287.169661 
L 464.674183 299.387869 
L 464.882509 279.653741 
L 465.090834 285.743852 
L 465.29916 271.375683 
L 465.507486 295.50128 
L 465.715811 294.498567 
L 465.924137 291.166421 
L 466.132462 300.562084 
L 466.340788 292.198927 
L 466.549113 277.260114 
L 466.757439 287.114542 
L 466.965764 287.980963 
L 467.17409 281.993823 
L 467.590741 289.183555 
L 467.799067 294.651496 
L 468.007392 294.880225 
L 468.215718 265.562566 
L 468.424043 275.124336 
L 468.632369 307.384536 
L 468.840694 274.492467 
L 469.04902 279.181856 
L 469.257346 259.977502 
L 469.465671 226.864483 
L 469.673997 276.093946 
L 469.882322 253.964489 
L 470.090648 253.447997 
L 470.298973 266.682015 
L 470.715624 276.317771 
L 470.92395 271.658488 
L 471.132276 273.894724 
L 471.340601 278.30915 
L 471.548927 277.007843 
L 471.757252 286.531537 
L 471.965578 368.828754 
L 472.173903 274.37447 
L 472.382229 297.975822 
L 472.590554 281.834045 
L 473.007206 308.716887 
L 473.423857 294.895154 
L 473.632182 299.171807 
L 474.048833 311.064558 
L 474.257159 291.114303 
L 474.465484 312.139314 
L 474.67381 299.416912 
L 474.882136 295.437371 
L 475.090461 323.582122 
L 475.298787 298.532778 
L 475.507112 302.652787 
L 475.715438 289.501319 
L 475.923763 292.901921 
L 476.132089 289.326109 
L 476.340414 291.517604 
L 476.54874 286.416815 
L 476.757066 289.255446 
L 476.965391 295.777125 
L 477.173717 295.668693 
L 477.382042 293.570189 
L 477.590368 299.293852 
L 477.798693 296.903566 
L 478.007019 303.504715 
L 478.215344 280.257463 
L 478.42367 293.79471 
L 478.631996 289.427662 
L 479.048647 298.228896 
L 479.256972 282.742912 
L 479.465298 295.577136 
L 479.673623 299.900312 
L 479.881949 273.792438 
L 480.090274 314.587193 
L 480.2986 276.684449 
L 480.506926 264.820473 
L 480.715251 319.609709 
L 480.923577 292.875663 
L 481.131902 284.371789 
L 481.340228 270.491222 
L 481.548553 283.264438 
L 481.756879 266.238902 
L 481.965204 279.638272 
L 482.17353 285.70505 
L 482.381856 277.694572 
L 482.590181 279.756594 
L 482.798507 291.026734 
L 483.006832 308.383799 
L 483.423483 298.488964 
L 483.631809 279.28308 
L 483.840134 286.296845 
L 484.04846 303.336074 
L 484.256786 281.927454 
L 484.465111 276.616561 
L 484.673437 301.936092 
L 484.881762 288.067577 
L 485.090088 281.919101 
L 485.298413 292.235185 
L 485.506739 282.47963 
L 485.715064 294.893703 
L 485.92339 283.28748 
L 486.340041 293.056506 
L 486.548367 280.431185 
L 486.756692 283.440667 
L 486.965018 296.363744 
L 487.173343 296.443658 
L 487.381669 298.959198 
L 487.589994 285.527478 
L 487.79832 293.170234 
L 488.006646 292.688902 
L 488.214971 297.928014 
L 488.423297 279.537848 
L 488.631622 286.134392 
L 488.839948 309.935824 
L 489.048273 300.416336 
L 489.256599 281.050216 
L 489.464924 283.674392 
L 489.67325 296.206726 
L 490.089901 262.822171 
L 490.298227 294.69631 
L 490.506552 274.385774 
L 490.714878 302.086281 
L 490.923203 284.430943 
L 491.131529 287.44457 
L 491.54818 273.235586 
L 491.756506 284.95245 
L 491.964831 287.511157 
L 492.173157 283.422345 
L 492.381482 292.445159 
L 492.589808 262.568329 
L 492.798133 321.668562 
L 493.006459 278.10845 
L 493.214784 277.238321 
L 493.42311 291.288829 
L 493.631436 265.768149 
L 493.839761 288.758461 
L 494.048087 284.415396 
L 494.256412 299.546629 
L 494.464738 287.473703 
L 494.673063 306.195746 
L 494.881389 297.372721 
L 495.089714 317.729148 
L 495.29804 279.592583 
L 495.506366 264.717743 
L 495.714691 298.428982 
L 495.923017 275.011376 
L 496.131342 284.047472 
L 496.339668 307.965105 
L 496.547993 284.814371 
L 496.756319 277.000449 
L 496.964644 274.748555 
L 497.17297 299.663785 
L 497.381296 286.505644 
L 497.589621 286.881304 
L 497.797947 304.062041 
L 498.006272 279.690457 
L 498.214598 278.501736 
L 498.422923 294.344992 
L 498.631249 291.283623 
L 498.839574 274.968801 
L 499.0479 280.185882 
L 499.256225 304.22042 
L 499.672877 291.958406 
L 499.881202 314.067613 
L 500.297853 265.793638 
L 500.506179 294.002146 
L 500.714504 303.615828 
L 500.92283 276.472143 
L 501.131155 288.907553 
L 501.339481 280.461105 
L 501.547807 306.644096 
L 501.756132 291.397561 
L 501.964458 291.100726 
L 502.172783 305.756951 
L 502.381109 305.701656 
L 502.589434 298.785221 
L 502.79776 309.407 
L 503.006085 279.796972 
L 503.214411 269.477563 
L 503.631062 291.354291 
L 503.839388 281.14214 
L 504.047713 293.007045 
L 504.256039 276.905562 
L 504.464364 281.117144 
L 504.881015 297.353424 
L 505.089341 300.610308 
L 505.297667 277.66785 
L 505.505992 284.81329 
L 505.714318 297.470351 
L 505.922643 292.548542 
L 506.130969 259.702974 
L 506.339294 291.803727 
L 506.54762 265.830376 
L 506.964271 292.370615 
L 507.172597 282.867908 
L 507.380922 279.49073 
L 507.589248 286.31454 
L 507.797573 283.790188 
L 508.005899 284.780861 
L 508.214224 283.625972 
L 508.42255 280.04589 
L 508.630875 304.836003 
L 508.839201 253.111128 
L 509.047527 313.557211 
L 509.255852 287.956721 
L 509.672503 273.378167 
L 509.880829 302.313567 
L 510.089154 300.569212 
L 510.29748 260.311946 
L 510.505805 301.732812 
L 510.714131 267.699986 
L 510.922457 297.103369 
L 511.130782 276.884181 
L 511.339108 289.502721 
L 511.547433 263.397925 
L 511.755759 301.570875 
L 511.964084 281.066365 
L 512.380735 298.514308 
L 512.589061 273.928304 
L 512.797387 267.841356 
L 513.005712 295.639685 
L 513.214038 276.273141 
L 513.630689 289.044301 
L 513.839014 276.214031 
L 514.255665 292.86092 
L 514.463991 295.642593 
L 514.672317 263.536585 
L 514.880642 295.575633 
L 515.088968 271.728614 
L 515.505619 302.848299 
L 515.713944 275.455779 
L 515.92227 295.231273 
L 516.130595 286.524411 
L 516.338921 282.942526 
L 516.547247 266.13547 
L 516.963898 322.89474 
L 517.172223 288.427105 
L 517.380549 294.529209 
L 517.588874 291.260044 
L 517.7972 304.729464 
L 518.005525 270.925233 
L 518.213851 277.602244 
L 518.422177 266.756038 
L 518.630502 300.551975 
L 518.838828 279.242633 
L 519.047153 289.727939 
L 519.255479 276.613486 
L 519.463804 278.456442 
L 519.880455 294.748171 
L 520.088781 286.501014 
L 520.297107 302.31557 
L 520.505432 265.390749 
L 520.713758 303.761892 
L 520.922083 262.782711 
L 521.130409 304.651184 
L 521.54706 276.245292 
L 521.755385 288.306185 
L 521.963711 287.840763 
L 522.172037 266.120528 
L 522.380362 284.965151 
L 522.588688 292.107957 
L 522.797013 283.894624 
L 523.005339 298.751866 
L 523.213664 296.373031 
L 523.42199 300.13431 
L 523.630315 275.04275 
L 523.838641 294.024497 
L 524.046967 283.495692 
L 524.255292 292.179628 
L 524.463618 290.935192 
L 524.671943 268.727992 
L 524.880269 269.319105 
L 525.088594 296.982977 
L 525.29692 297.877805 
L 525.505245 287.034419 
L 525.713571 294.562905 
L 525.921897 273.442695 
L 526.130222 304.75744 
L 526.546873 280.766124 
L 527.17185 257.878415 
L 527.588501 311.69269 
L 527.796827 293.05582 
L 528.005152 295.689513 
L 528.213478 286.692419 
L 528.421803 297.672833 
L 528.630129 301.607951 
L 528.838454 288.026252 
L 529.04678 301.321369 
L 529.255105 291.148321 
L 529.463431 266.383331 
L 529.671757 269.968628 
L 530.088408 325.653782 
L 530.296733 277.691173 
L 530.505059 288.988851 
L 530.713384 289.631759 
L 530.92171 300.795408 
L 531.130035 282.904923 
L 531.338361 297.19591 
L 531.546687 280.536042 
L 531.755012 301.884984 
L 532.171663 289.830749 
L 532.379989 307.787428 
L 532.588314 283.130306 
L 532.79664 244.93692 
L 533.004965 285.841352 
L 533.421617 280.159786 
L 533.629942 284.174132 
L 533.838268 284.497303 
L 534.046593 297.926184 
L 534.254919 288.673333 
L 534.463244 257.069633 
L 534.67157 290.057132 
L 534.879895 298.359858 
L 535.088221 279.076172 
L 535.296547 295.877307 
L 535.504872 296.719788 
L 535.713198 279.478506 
L 535.921523 286.373287 
L 536.129849 278.389866 
L 536.338174 294.355911 
L 536.5465 297.276537 
L 536.754825 287.356933 
L 536.963151 293.204471 
L 537.171477 271.771498 
L 537.796453 301.387192 
L 538.004779 272.95137 
L 538.213104 266.064818 
L 538.42143 292.056018 
L 538.629755 296.125286 
L 538.838081 292.737287 
L 539.046407 292.988899 
L 539.254732 305.499489 
L 539.463058 283.291723 
L 539.671383 281.840261 
L 539.879709 311.707408 
L 540.088034 291.363379 
L 540.504685 300.146696 
L 540.713011 288.923072 
L 540.921337 284.075591 
L 541.129662 306.768512 
L 541.337988 290.94113 
L 541.546313 284.74682 
L 541.754639 271.735673 
L 541.962964 279.579948 
L 542.379615 277.298683 
L 542.587941 280.08023 
L 542.796267 310.848453 
L 543.004592 293.424759 
L 543.212918 286.140506 
L 543.421243 309.680504 
L 543.629569 293.293172 
L 543.837894 292.018661 
L 544.04622 283.705957 
L 544.254545 314.623225 
L 544.462871 288.224963 
L 544.671197 291.516777 
L 544.879522 276.694864 
L 545.087848 291.824727 
L 545.296173 289.478522 
L 545.504499 337.843543 
L 545.712824 279.977301 
L 545.92115 293.776894 
L 546.129475 298.565619 
L 546.337801 288.335503 
L 546.754452 314.873628 
L 546.962778 293.811797 
L 547.171103 305.458673 
L 547.379429 305.907616 
L 547.587754 301.027493 
L 547.79608 307.004391 
L 548.004405 204.712072 
L 548.212731 288.203656 
L 548.421057 285.135122 
L 548.629382 292.510418 
L 548.837708 265.704831 
L 549.046033 268.72829 
L 549.254359 290.463771 
L 549.462684 290.676818 
L 549.67101 287.924042 
L 549.879335 267.442134 
L 550.087661 285.422389 
L 550.295987 282.696503 
L 550.504312 270.518372 
L 550.712638 282.141405 
L 550.920963 276.729638 
L 551.129289 277.799259 
L 551.337614 266.796439 
L 551.54594 269.083091 
L 551.962591 286.434395 
L 552.170917 286.699927 
L 552.379242 291.165463 
L 553.004219 277.355761 
L 553.212544 268.94789 
L 553.42087 278.150854 
L 553.629195 272.699386 
L 553.837521 291.733822 
L 554.045847 266.856574 
L 554.254172 284.879105 
L 554.462498 267.652475 
L 554.670823 278.62524 
L 554.879149 283.037186 
L 555.087474 277.817532 
L 555.2958 279.243448 
L 555.504125 271.214435 
L 555.920777 302.641863 
L 556.129102 262.685889 
L 556.337428 296.716984 
L 556.545753 291.733689 
L 556.754079 274.877038 
L 556.962404 277.157913 
L 557.379055 305.010107 
L 557.587381 284.872201 
L 557.795707 301.905041 
L 558.004032 293.199632 
L 558.212358 268.305971 
L 558.420683 293.618583 
L 558.629009 281.023337 
L 558.837334 279.700763 
L 559.04566 258.422968 
L 559.253985 292.551632 
L 559.462311 264.112427 
L 559.670637 293.397868 
L 559.878962 297.840121 
L 560.087288 286.640364 
L 560.295613 287.393125 
L 560.503939 269.220671 
L 560.712264 264.10171 
L 561.128915 303.88078 
L 561.337241 289.553685 
L 561.545567 294.091366 
L 561.753892 276.301539 
L 561.962218 279.055649 
L 562.170543 275.783256 
L 562.378869 278.176866 
L 562.587194 276.852845 
L 562.79552 303.989374 
L 563.003845 269.634513 
L 563.212171 287.4471 
L 563.420497 266.496402 
L 563.628822 285.771883 
L 563.837148 281.706959 
L 564.045473 287.660437 
L 564.253799 283.544393 
L 564.462124 289.522603 
L 564.67045 300.971459 
L 564.878775 286.071981 
L 565.087101 290.638985 
L 565.295427 269.51226 
L 565.503752 293.895287 
L 565.712078 303.588451 
L 565.920403 294.513082 
L 566.128729 297.625913 
L 566.337054 294.65442 
L 566.54538 289.847467 
L 566.753705 262.643442 
L 567.170357 308.922819 
L 567.378682 270.659727 
L 567.587008 294.673692 
L 567.795333 292.796278 
L 568.003659 287.349352 
L 568.211984 284.989063 
L 568.42031 277.283955 
L 568.628635 308.52059 
L 568.836961 259.727467 
L 569.045287 310.809697 
L 569.461938 278.364046 
L 569.670263 292.982715 
L 569.878589 276.762603 
L 570.086914 297.856061 
L 570.29524 281.966415 
L 570.503565 280.539352 
L 570.711891 262.854764 
L 570.920217 271.157781 
L 571.128542 234.78023 
L 571.336868 316.134437 
L 571.545193 288.097294 
L 571.753519 290.836805 
L 571.961844 297.676691 
L 572.378495 278.619753 
L 572.586821 285.034324 
L 572.795147 302.830725 
L 573.003472 302.215932 
L 573.211798 243.353754 
L 573.628449 276.95512 
L 573.836774 280.769013 
L 574.0451 281.489529 
L 574.253425 285.825853 
L 574.461751 294.205082 
L 574.670077 286.272556 
L 574.878402 288.101216 
L 575.086728 304.236486 
L 575.295053 275.692466 
L 575.711704 306.624202 
L 575.92003 292.125598 
L 576.128355 263.275199 
L 576.336681 267.011244 
L 576.545007 309.439646 
L 576.753332 273.961561 
L 576.961658 291.018111 
L 577.169983 278.223136 
L 577.378309 302.926107 
L 577.586634 266.113944 
L 578.003285 292.611696 
L 578.211611 280.239845 
L 578.419937 288.90807 
L 578.628262 304.233005 
L 579.044913 272.302758 
L 579.253239 284.857279 
L 579.461564 287.531385 
L 579.66989 257.968338 
L 579.878215 300.220095 
L 580.086541 296.911735 
L 580.294867 302.862616 
L 580.503192 283.696464 
L 580.711518 285.06994 
L 580.919843 278.887263 
L 581.336494 295.005413 
L 581.54482 280.192734 
L 581.961471 264.145779 
L 582.169797 307.652785 
L 582.378122 285.630384 
L 582.586448 303.943594 
L 583.003099 281.36553 
L 583.211424 270.38469 
L 583.41975 307.101092 
L 583.628075 295.079984 
L 583.836401 294.128652 
L 584.044727 312.926235 
L 584.253052 288.071698 
L 584.461378 288.068534 
L 584.669703 279.400297 
L 584.878029 291.514349 
L 585.086354 283.425574 
L 585.29468 290.892316 
L 585.503005 279.63343 
L 585.711331 299.55777 
L 585.919657 264.585399 
L 586.127982 283.406729 
L 586.336308 286.835868 
L 586.544633 263.68699 
L 586.752959 302.058977 
L 586.961284 270.64722 
L 587.16961 322.808084 
L 587.377935 275.502565 
L 587.586261 303.118269 
L 587.794587 279.206278 
L 588.002912 295.505023 
L 588.211238 291.742853 
L 588.419563 297.207997 
L 588.627889 317.637372 
L 588.836214 270.483561 
L 589.04454 295.467886 
L 589.252865 296.804637 
L 589.461191 287.453058 
L 589.877842 300.763798 
L 590.086168 297.980289 
L 590.294493 279.830333 
L 590.502819 280.796141 
L 590.711144 290.316479 
L 590.91947 290.832523 
L 591.127795 295.207936 
L 591.336121 295.089059 
L 591.544447 278.358841 
L 591.752772 304.634991 
L 591.961098 281.306111 
L 592.377749 304.406396 
L 592.586074 310.776031 
L 592.7944 299.152042 
L 593.002725 268.000238 
L 593.211051 300.135459 
L 593.419377 291.904002 
L 593.627702 253.043856 
L 593.836028 296.565323 
L 594.044353 286.109281 
L 594.252679 296.393232 
L 594.461004 300.391318 
L 594.66933 275.624412 
L 594.877655 286.735639 
L 595.085981 281.897073 
L 595.294307 299.169595 
L 595.502632 283.971956 
L 595.710958 292.483537 
L 595.919283 286.594011 
L 596.127609 287.608339 
L 596.335934 279.343699 
L 596.54426 294.658101 
L 596.752585 276.23175 
L 596.960911 304.824794 
L 597.169237 271.761047 
L 597.377562 290.564497 
L 597.585888 299.053968 
L 597.794213 273.493363 
L 598.002539 283.112285 
L 598.210864 308.632953 
L 598.41919 283.590633 
L 598.627515 276.680814 
L 599.044167 288.586491 
L 599.460818 281.293034 
L 599.669143 294.383963 
L 600.085794 283.570593 
L 600.29412 287.844533 
L 600.502445 289.025523 
L 600.710771 292.251244 
L 600.919097 299.96606 
L 601.127422 277.052687 
L 601.335748 288.583538 
L 601.544073 276.606197 
L 601.752399 272.992037 
L 601.960724 277.879803 
L 602.377375 274.388435 
L 602.585701 287.133011 
L 602.794027 291.488191 
L 603.002352 298.739191 
L 603.210678 291.187562 
L 603.419003 312.273058 
L 603.627329 277.64751 
L 603.835654 277.012205 
L 604.04398 283.419792 
L 604.252305 294.22757 
L 604.460631 264.172525 
L 604.668957 280.958415 
L 604.877282 307.1937 
L 605.085608 280.221827 
L 605.293933 290.005783 
L 605.502259 268.058384 
L 605.710584 303.879878 
L 605.91891 307.539068 
L 606.127235 254.807973 
L 606.335561 297.851755 
L 606.543887 295.730493 
L 606.752212 255.307202 
L 606.960538 248.12647 
L 607.168863 264.492668 
L 607.377189 306.535074 
L 607.585514 303.995044 
L 607.79384 286.473028 
L 608.002165 288.825214 
L 608.210491 281.478586 
L 608.418817 282.066132 
L 608.627142 292.664614 
L 608.835468 296.552625 
L 609.043793 287.242137 
L 609.252119 272.924916 
L 609.460444 276.621539 
L 609.66877 266.903668 
L 609.877095 331.299434 
L 610.085421 281.129703 
L 610.293746 306.436631 
L 610.502072 304.313902 
L 610.710398 266.618386 
L 610.918723 278.580539 
L 611.127049 281.952463 
L 611.335374 287.84729 
L 611.5437 282.934648 
L 611.752025 289.975202 
L 612.168676 275.876791 
L 612.585328 292.276719 
L 612.793653 287.47379 
L 613.001979 271.893405 
L 613.41863 287.790879 
L 613.626955 285.445919 
L 613.835281 277.445464 
L 614.251932 301.443815 
L 614.668583 269.46345 
L 614.876909 279.877954 
L 615.085234 272.339953 
L 615.29356 274.043769 
L 615.501885 290.681994 
L 615.710211 274.743537 
L 615.918536 272.87534 
L 616.126862 257.656373 
L 616.335188 273.184638 
L 616.543513 264.941409 
L 616.751839 294.52782 
L 617.16849 269.772326 
L 617.376815 298.45174 
L 617.585141 273.999267 
L 617.793466 310.163833 
L 618.210118 284.14226 
L 618.626769 306.529927 
L 618.835094 281.902843 
L 619.04342 273.301917 
L 619.251745 289.532025 
L 619.460071 276.21998 
L 619.668396 282.046077 
L 619.876722 282.416951 
L 620.085048 281.762348 
L 620.293373 277.811502 
L 620.710024 293.791587 
L 620.91835 292.613356 
L 621.126675 275.911371 
L 621.335001 293.801088 
L 621.543326 282.922 
L 621.751652 308.868705 
L 621.959978 306.609795 
L 622.168303 300.621467 
L 622.376629 284.977493 
L 622.584954 260.792871 
L 622.79328 274.008716 
L 623.001605 311.925637 
L 623.209931 276.288289 
L 623.418256 277.335043 
L 623.626582 267.971526 
L 623.834908 276.997115 
L 624.043233 314.871867 
L 624.66821 281.076619 
L 624.876535 304.098138 
L 625.084861 280.11261 
L 625.293186 281.015208 
L 625.501512 286.170301 
L 625.709838 294.252331 
L 625.918163 289.378339 
L 626.126489 266.958242 
L 626.334814 285.880957 
L 626.54314 280.217993 
L 626.751465 267.860933 
L 626.959791 285.480876 
L 627.168116 261.167094 
L 627.376442 289.214078 
L 627.584768 299.637756 
L 628.001419 284.642415 
L 628.209744 302.134924 
L 628.41807 292.526686 
L 628.626395 261.813476 
L 628.834721 270.640574 
L 629.043046 298.529263 
L 629.251372 284.322231 
L 629.459698 306.779902 
L 629.668023 309.487979 
L 629.876349 273.794019 
L 630.084674 299.802347 
L 630.293 306.272272 
L 630.501325 304.001035 
L 630.709651 296.017888 
L 631.126302 274.413604 
L 631.334628 312.842116 
L 631.542953 281.039456 
L 631.751279 290.959371 
L 631.959604 293.246984 
L 632.16793 297.07458 
L 632.376255 285.208817 
L 632.584581 296.465302 
L 632.792906 280.97905 
L 633.001232 295.349598 
L 633.209558 269.281717 
L 633.417883 279.984387 
L 633.626209 282.000717 
L 634.04286 271.038012 
L 634.251185 287.293616 
L 634.459511 287.241664 
L 634.667836 297.822968 
L 634.876162 292.19791 
L 635.084488 301.27403 
L 635.292813 265.635566 
L 635.501139 295.225613 
L 635.709464 294.906105 
L 636.126115 284.962895 
L 636.542766 303.626567 
L 636.751092 283.51536 
L 636.959418 277.691493 
L 637.376069 285.431897 
L 637.79272 277.236939 
L 638.001045 303.688412 
L 638.209371 310.915943 
L 638.417696 298.44386 
L 638.626022 307.235365 
L 638.834348 273.627528 
L 639.042673 298.721907 
L 639.250999 288.08131 
L 639.459324 303.97896 
L 639.66765 281.774116 
L 639.875975 282.598396 
L 640.084301 290.903781 
L 640.292626 292.120605 
L 640.500952 308.220981 
L 640.709278 274.272602 
L 641.125929 267.957971 
L 641.334254 289.7692 
L 641.750905 275.54628 
L 641.959231 270.600294 
L 642.167556 275.928076 
L 642.375882 264.540156 
L 642.584208 303.508792 
L 642.792533 287.989486 
L 643.000859 316.522179 
L 643.209184 264.11345 
L 643.41751 285.224619 
L 643.625835 283.815143 
L 643.834161 265.823539 
L 644.042486 295.094414 
L 644.250812 294.907863 
L 644.459138 285.010106 
L 644.667463 286.878787 
L 644.875789 285.905494 
L 645.084114 278.544035 
L 645.29244 262.001863 
L 645.500765 286.591699 
L 645.709091 286.760184 
L 645.917416 268.653601 
L 646.125742 271.688218 
L 646.334068 288.280233 
L 646.542393 288.186663 
L 646.750719 301.072127 
L 646.959044 289.506112 
L 647.16737 338.572328 
L 647.375695 252.095788 
L 647.584021 315.242908 
L 647.792346 278.059296 
L 648.000672 274.280712 
L 648.208998 282.431406 
L 648.417323 275.37825 
L 648.625649 298.989467 
L 649.0423 279.695801 
L 649.250625 321.929744 
L 649.458951 292.617901 
L 649.667276 290.670459 
L 649.875602 282.835411 
L 650.083928 282.858746 
L 650.292253 280.368715 
L 650.500579 284.886215 
L 650.708904 285.067864 
L 650.91723 287.386645 
L 651.125555 271.49955 
L 651.333881 283.734797 
L 651.542206 270.997953 
L 651.750532 269.744072 
L 651.958858 276.02071 
L 652.167183 307.501741 
L 652.583834 254.163734 
L 652.79216 280.95137 
L 653.000485 282.237322 
L 653.208811 286.219466 
L 653.417136 263.841152 
L 653.625462 285.337973 
L 653.833788 282.132479 
L 654.042113 269.46726 
L 654.250439 306.470243 
L 654.458764 282.150531 
L 654.66709 293.387038 
L 654.875415 297.148835 
L 655.083741 298.412418 
L 655.292066 291.747372 
L 655.500392 294.764743 
L 655.708718 308.040221 
L 655.917043 269.044533 
L 656.125369 259.687434 
L 656.54202 296.245243 
L 656.750345 294.442353 
L 656.958671 290.927212 
L 657.166996 289.707754 
L 657.375322 278.981424 
L 657.583648 292.757745 
L 657.791973 297.724174 
L 658.000299 311.535247 
L 658.208624 274.769101 
L 658.41695 292.983487 
L 658.625275 282.209177 
L 658.833601 279.987308 
L 659.041926 284.160447 
L 659.250252 320.048459 
L 659.458578 267.173328 
L 659.666903 276.985293 
L 659.875229 295.032354 
L 660.29188 272.038806 
L 660.500205 290.229696 
L 660.708531 282.953236 
L 660.916856 313.742174 
L 661.125182 275.329328 
L 661.333508 274.566014 
L 661.541833 277.817238 
L 661.750159 276.989497 
L 661.958484 284.67349 
L 662.16681 275.432585 
L 662.375135 259.706871 
L 662.583461 332.91132 
L 662.791786 265.983528 
L 663.000112 282.815317 
L 663.208438 267.874227 
L 663.416763 308.076261 
L 663.625089 287.151718 
L 663.833414 292.530423 
L 664.04174 275.952273 
L 664.250065 298.967383 
L 664.458391 282.427483 
L 664.666716 274.78761 
L 664.875042 306.513705 
L 665.083368 277.238696 
L 665.291693 290.653983 
L 665.500019 285.193401 
L 665.708344 289.694507 
L 665.91667 278.95492 
L 666.124995 278.112346 
L 666.333321 266.034297 
L 666.749972 309.71909 
L 666.958298 288.693985 
L 667.166623 286.668825 
L 667.374949 282.851622 
L 667.583274 308.156179 
L 667.7916 289.863366 
L 667.999925 296.545601 
L 668.416576 284.87896 
L 668.624902 296.497581 
L 668.833228 274.467516 
L 669.041553 289.194419 
L 669.249879 256.639898 
L 669.458204 270.831006 
L 669.66653 331.932831 
L 669.874855 262.925474 
L 670.083181 285.891303 
L 670.291506 292.956505 
L 670.499832 283.786191 
L 670.708158 296.43942 
L 671.124809 282.741263 
L 671.333134 291.203692 
L 671.54146 281.996842 
L 671.749785 287.678112 
L 671.958111 286.424894 
L 672.166436 286.697177 
L 672.583088 286.644753 
L 672.791413 286.639347 
L 672.999739 273.328895 
L 673.208064 298.679653 
L 673.41639 282.279461 
L 673.624715 284.078461 
L 673.833041 296.749301 
L 674.041366 286.909459 
L 674.249692 288.983872 
L 674.458018 288.440656 
L 674.666343 287.51714 
L 674.874669 278.823165 
L 675.082994 288.350743 
L 675.499645 274.657298 
L 675.707971 282.711632 
L 675.916296 282.173702 
L 676.124622 299.419396 
L 676.332948 279.321763 
L 676.541273 285.132211 
L 676.749599 287.781585 
L 676.957924 279.36295 
L 677.16625 293.705653 
L 677.374575 294.485052 
L 677.582901 296.541726 
L 677.999552 234.107406 
L 678.416203 306.553709 
L 678.624529 288.078915 
L 678.832854 282.035638 
L 679.04118 299.652276 
L 679.249505 286.718099 
L 679.457831 259.833114 
L 679.666156 281.337515 
L 679.874482 259.343459 
L 680.291133 286.074301 
L 680.499459 313.059133 
L 680.91611 273.888211 
L 681.124435 291.374737 
L 681.332761 285.907699 
L 681.541086 318.408827 
L 681.957738 269.677917 
L 682.166063 297.216209 
L 682.374389 285.26473 
L 682.582714 286.811821 
L 682.999365 312.809824 
L 683.207691 287.723138 
L 683.416016 247.27764 
L 683.624342 291.524035 
L 683.832668 287.546488 
L 684.040993 277.934172 
L 684.249319 296.509207 
L 684.457644 277.641235 
L 684.66597 298.269256 
L 685.290946 282.682725 
L 685.499272 315.864959 
L 685.707598 291.260213 
L 685.915923 222.86744 
L 686.124249 315.035885 
L 686.332574 283.673409 
L 686.5409 289.77639 
L 686.749225 307.229348 
L 686.957551 265.912996 
L 687.165876 280.50755 
L 687.374202 274.217684 
L 687.582528 309.78453 
L 687.790853 310.372475 
L 687.999179 281.775353 
L 688.207504 314.178981 
L 688.41583 279.994115 
L 688.624155 272.830935 
L 688.832481 254.010865 
L 689.040806 267.851423 
L 689.249132 295.351728 
L 689.457458 274.592769 
L 689.874109 321.832094 
L 690.29076 286.550493 
L 690.499085 286.696552 
L 690.707411 282.877459 
L 690.915736 293.906492 
L 691.124062 288.857351 
L 691.332388 311.28006 
L 691.540713 292.024178 
L 691.957364 297.037841 
L 692.16569 291.905 
L 692.374015 281.528498 
L 692.582341 310.486176 
L 692.790666 282.523921 
L 692.998992 290.282382 
L 693.207318 276.355366 
L 693.415643 293.430419 
L 693.623969 281.56582 
L 693.832294 281.837911 
L 694.04062 282.324927 
L 694.248945 303.456793 
L 694.665596 268.471574 
L 694.873922 275.778106 
L 695.082248 270.731721 
L 695.290573 274.315034 
L 695.498899 270.489908 
L 695.707224 275.008104 
L 695.91555 285.518123 
L 696.123875 307.813952 
L 696.332201 287.194213 
L 696.540526 278.043422 
L 696.748852 276.331787 
L 696.957178 303.834284 
L 697.165503 291.1508 
L 697.373829 285.831472 
L 697.582154 275.374699 
L 697.79048 280.913171 
L 697.998805 265.234027 
L 698.207131 278.098204 
L 698.415456 307.622166 
L 698.623782 303.326562 
L 699.040433 262.077554 
L 699.248759 299.556444 
L 699.457084 286.552307 
L 699.66541 299.862847 
L 699.873735 290.752996 
L 700.082061 247.435106 
L 700.290386 276.325391 
L 700.498712 289.078681 
L 700.707038 289.68204 
L 700.915363 297.726869 
L 701.123689 299.334722 
L 701.54034 278.989024 
L 701.748665 263.212814 
L 702.165316 292.547254 
L 702.581968 285.592678 
L 702.790293 293.915912 
L 702.998619 288.430321 
L 703.206944 299.303065 
L 703.623595 270.870635 
L 703.831921 287.654602 
L 704.040246 272.815654 
L 704.248572 268.330975 
L 704.456898 285.512375 
L 704.665223 321.602985 
L 705.081874 270.324514 
L 705.2902 305.140136 
L 705.498525 268.155393 
L 706.123502 292.83595 
L 706.331828 263.896793 
L 706.748479 286.817549 
L 706.956804 298.095867 
L 707.16513 303.212727 
L 707.373455 281.190049 
L 707.581781 293.64682 
L 707.790106 272.11151 
L 707.998432 287.193002 
L 708.415083 288.930159 
L 708.623409 295.323552 
L 709.04006 275.439366 
L 709.248385 287.218512 
L 709.456711 287.794981 
L 709.873362 271.478027 
L 710.081688 292.23871 
L 710.498339 273.728456 
L 710.706664 286.167075 
L 710.91499 287.130007 
L 711.123315 289.475416 
L 711.331641 294.236222 
L 711.748292 274.068339 
L 711.956618 274.329725 
L 712.164943 322.204991 
L 712.373269 278.969978 
L 712.581594 311.22639 
L 712.78992 292.455069 
L 712.998245 298.159586 
L 713.206571 278.275252 
L 713.414896 302.827262 
L 713.623222 304.390032 
L 713.831548 309.551642 
L 714.039873 283.051761 
L 714.248199 280.659615 
L 714.456524 291.071649 
L 714.66485 284.401755 
L 714.873175 286.01393 
L 715.081501 292.291105 
L 715.289826 283.536572 
L 715.498152 289.438733 
L 715.706478 284.984146 
L 715.914803 311.556653 
L 716.123129 288.210881 
L 716.331454 293.306846 
L 716.53978 257.513019 
L 716.748105 276.463397 
L 716.956431 275.84335 
L 717.164756 310.071914 
L 717.373082 305.421159 
L 717.581408 295.995711 
L 717.789733 276.474974 
L 718.41471 317.979542 
L 718.623035 272.333102 
L 718.831361 301.262963 
L 719.039686 270.20107 
L 719.248012 293.099221 
L 719.456338 284.30674 
L 719.664663 294.185306 
L 719.872989 277.769195 
L 720.081314 287.08964 
L 720.28964 289.78263 
L 720.706291 296.743809 
L 721.122942 264.644085 
L 721.331268 289.999728 
L 721.539593 266.89998 
L 721.747919 267.841012 
L 721.956244 331.00107 
L 722.16457 284.437951 
L 722.581221 288.998735 
L 722.789546 281.921926 
L 722.997872 297.277383 
L 723.206197 266.641749 
L 723.414523 290.54646 
L 723.622849 264.565569 
L 723.831174 275.92114 
L 724.0395 297.822688 
L 724.247825 305.385504 
L 724.456151 291.517582 
L 724.664476 261.17328 
L 724.872802 277.659257 
L 725.081127 312.868098 
L 725.289453 292.179751 
L 725.497779 289.960387 
L 725.706104 294.999256 
L 726.122755 283.094445 
L 726.331081 287.143385 
L 726.539406 272.864605 
L 726.956057 295.023413 
L 727.372709 290.496351 
L 727.581034 283.027797 
L 727.78936 308.479162 
L 727.997685 293.838772 
L 728.206011 299.902827 
L 728.414336 294.697248 
L 728.622662 293.262246 
L 728.830987 300.740758 
L 729.039313 288.526371 
L 729.247639 300.16996 
L 729.455964 286.606653 
L 729.66429 283.401715 
L 729.872615 302.855387 
L 730.289266 267.962551 
L 730.497592 268.778494 
L 730.705917 274.173532 
L 730.914243 292.708087 
L 731.330894 278.535448 
L 731.53922 274.945889 
L 731.747545 293.15716 
L 731.955871 299.233702 
L 732.164196 301.271514 
L 732.580847 278.674928 
L 732.789173 283.814172 
L 732.997499 277.610874 
L 733.41415 285.787419 
L 733.622475 281.797187 
L 733.830801 273.878635 
L 734.039126 259.699526 
L 734.455777 301.695627 
L 734.872429 273.363032 
L 735.080754 273.392492 
L 735.497405 290.632425 
L 735.705731 287.309712 
L 735.914056 291.361628 
L 736.122382 278.356403 
L 736.330707 296.486992 
L 736.539033 279.419354 
L 736.747359 285.432586 
L 736.955684 267.332686 
L 737.16401 284.225594 
L 737.372335 281.498818 
L 737.580661 321.03466 
L 737.788986 287.651673 
L 737.997312 300.999658 
L 738.205637 291.574821 
L 738.413963 327.315452 
L 738.622289 269.538825 
L 738.830614 293.488544 
L 739.03894 295.205486 
L 739.247265 277.53718 
L 739.455591 246.202512 
L 739.663916 314.607337 
L 739.872242 278.152245 
L 740.080567 299.935587 
L 740.288893 273.148758 
L 740.497219 281.719803 
L 740.705544 280.671527 
L 740.91387 275.768463 
L 741.122195 292.518474 
L 741.330521 279.645918 
L 741.538846 279.494153 
L 741.747172 287.57659 
L 742.163823 271.303308 
L 742.372149 317.735426 
L 742.580474 278.246804 
L 742.7888 270.392928 
L 742.997125 287.104107 
L 743.413776 281.435787 
L 743.622102 275.136454 
L 743.830427 277.373234 
L 744.247079 283.994415 
L 744.455404 275.20894 
L 744.66373 282.4239 
L 744.872055 274.177554 
L 745.080381 273.71962 
L 745.288706 308.162883 
L 745.705357 281.528827 
L 745.913683 293.094074 
L 746.122009 295.415915 
L 746.330334 290.767537 
L 746.53866 295.934278 
L 746.746985 281.830782 
L 747.163636 294.19525 
L 747.163636 294.19525 
" clip-path="url(#pd796e27148)" style="fill: none; stroke: #3d9970; stroke-width: 0.5; stroke-linecap: square"/>
   </g>
   <g id="patch_3">
    <path d="M 108 384.48 
L 108 51.84 
" style="fill: none; stroke: #000000; stroke-width: 0.8; stroke-linejoin: miter; stroke-linecap: square"/>
   </g>
   <g id="patch_4">
    <path d="M 777.6 384.48 
L 777.6 51.84 
" style="fill: none; stroke: #000000; stroke-width: 0.8; stroke-linejoin: miter; stroke-linecap: square"/>
   </g>
   <g id="patch_5">
    <path d="M 108 384.48 
L 777.6 384.48 
" style="fill: none; stroke: #000000; stroke-width: 0.8; stroke-linejoin: miter; stroke-linecap: square"/>
   </g>
   <g id="patch_6">
    <path d="M 108 51.84 
L 777.6 51.84 
" style="fill: none; stroke: #000000; stroke-width: 0.8; stroke-linejoin: miter; stroke-linecap: square"/>
   </g>
   <g id="text_20">
    <!-- Residuals -->
    <g transform="translate(414.335625 45.84)scale(0.12 -0.12)">
     <use xlink:href="#DejaVuSans-52"/>
     <use xlink:href="#DejaVuSans-65" x="64.982422"/>
     <use xlink:href="#DejaVuSans-73" x="126.505859"/>
     <use xlink:href="#DejaVuSans-69" x="178.605469"/>
     <use xlink:href="#DejaVuSans-64" x="206.388672"/>
     <use xlink:href="#DejaVuSans-75" x="269.865234"/>
     <use xlink:href="#DejaVuSans-61" x="333.244141"/>
     <use xlink:href="#DejaVuSans-6c" x="394.523438"/>
     <use xlink:href="#DejaVuSans-73" x="422.306641"/>
    </g>
   </g>
  </g>
 </g>
 <defs>
  <clipPath id="pd796e27148">
   <rect x="108" y="51.84" width="669.6" height="332.64"/>
  </clipPath>
 </defs>
</svg>
